solid default:import_1
  facet normal -0.000000e+00 1.000000e+00 -0.000000e+00
    outer loop
      vertex -1.200000e-01 1.200000e-01 2.000000e-03
      vertex 1.000000e-01 1.200000e-01 -2.000000e-03
      vertex -1.200000e-01 1.200000e-01 -2.000000e-03
    endloop
  endfacet
  facet normal -0.000000e+00 1.000000e+00 -0.000000e+00
    outer loop
      vertex 1.000000e-01 1.200000e-01 2.000000e-03
      vertex 1.000000e-01 1.200000e-01 -2.000000e-03
      vertex -1.200000e-01 1.200000e-01 2.000000e-03
    endloop
  endfacet
  facet normal 1.000000e+00 -0.000000e+00 -0.000000e+00
    outer loop
      vertex 1.200000e-01 1.400000e-01 2.000000e-03
      vertex 1.200000e-01 -1.200000e-01 -2.000000e-03
      vertex 1.200000e-01 1.400000e-01 -2.000000e-03
    endloop
  endfacet
  facet normal 1.000000e+00 -0.000000e+00 -0.000000e+00
    outer loop
      vertex 1.200000e-01 -1.200000e-01 2.000000e-03
      vertex 1.200000e-01 -1.200000e-01 -2.000000e-03
      vertex 1.200000e-01 1.400000e-01 2.000000e-03
    endloop
  endfacet
  facet normal -1.000000e+00 -0.000000e+00 -0.000000e+00
    outer loop
      vertex -1.200000e-01 -1.200000e-01 2.000000e-03
      vertex -1.200000e-01 1.200000e-01 -2.000000e-03
      vertex -1.200000e-01 -1.200000e-01 -2.000000e-03
    endloop
  endfacet
  facet normal -1.000000e+00 -0.000000e+00 -0.000000e+00
    outer loop
      vertex -1.200000e-01 1.200000e-01 2.000000e-03
      vertex -1.200000e-01 1.200000e-01 -2.000000e-03
      vertex -1.200000e-01 -1.200000e-01 2.000000e-03
    endloop
  endfacet
  facet normal -0.000000e+00 -1.000000e+00 -0.000000e+00
    outer loop
      vertex 1.200000e-01 -1.200000e-01 2.000000e-03
      vertex -1.200000e-01 -1.200000e-01 -2.000000e-03
      vertex 1.200000e-01 -1.200000e-01 -2.000000e-03
    endloop
  endfacet
  facet normal -0.000000e+00 -1.000000e+00 -0.000000e+00
    outer loop
      vertex -1.200000e-01 -1.200000e-01 2.000000e-03
      vertex -1.200000e-01 -1.200000e-01 -2.000000e-03
      vertex 1.200000e-01 -1.200000e-01 2.000000e-03
    endloop
  endfacet
  facet normal -1.000000e+00 0.000000e+00 0.000000e+00
    outer loop
      vertex 1.100000e-01 1.300000e-01 -2.000000e-03
      vertex 1.100000e-01 -1.100000e-01 2.000000e-03
      vertex 1.100000e-01 1.300000e-01 2.000000e-03
    endloop
  endfacet
  facet normal -1.000000e+00 0.000000e+00 0.000000e+00
    outer loop
      vertex 1.100000e-01 -1.100000e-01 -2.000000e-03
      vertex 1.100000e-01 -1.100000e-01 2.000000e-03
      vertex 1.100000e-01 1.300000e-01 -2.000000e-03
    endloop
  endfacet
  facet normal 1.000000e+00 0.000000e+00 0.000000e+00
    outer loop
      vertex -1.100000e-01 -1.100000e-01 -2.000000e-03
      vertex -1.100000e-01 1.100000e-01 2.000000e-03
      vertex -1.100000e-01 -1.100000e-01 2.000000e-03
    endloop
  endfacet
  facet normal 1.000000e+00 0.000000e+00 0.000000e+00
    outer loop
      vertex -1.100000e-01 1.100000e-01 -2.000000e-03
      vertex -1.100000e-01 1.100000e-01 2.000000e-03
      vertex -1.100000e-01 -1.100000e-01 -2.000000e-03
    endloop
  endfacet
  facet normal 0.000000e+00 1.000000e+00 0.000000e+00
    outer loop
      vertex 1.100000e-01 -1.100000e-01 -2.000000e-03
      vertex -1.100000e-01 -1.100000e-01 2.000000e-03
      vertex 1.100000e-01 -1.100000e-01 2.000000e-03
    endloop
  endfacet
  facet normal 0.000000e+00 1.000000e+00 0.000000e+00
    outer loop
      vertex -1.100000e-01 -1.100000e-01 -2.000000e-03
      vertex -1.100000e-01 -1.100000e-01 2.000000e-03
      vertex 1.100000e-01 -1.100000e-01 -2.000000e-03
    endloop
  endfacet
  facet normal -1.000000e+00 -0.000000e+00 -0.000000e+00
    outer loop
      vertex -1.400000e-01 -1.400000e-01 2.000000e-03
      vertex -1.400000e-01 1.400000e-01 -2.000000e-03
      vertex -1.400000e-01 -1.400000e-01 -2.000000e-03
    endloop
  endfacet
  facet normal -1.000000e+00 -0.000000e+00 -0.000000e+00
    outer loop
      vertex -1.400000e-01 1.400000e-01 2.000000e-03
      vertex -1.400000e-01 1.400000e-01 -2.000000e-03
      vertex -1.400000e-01 -1.400000e-01 2.000000e-03
    endloop
  endfacet
  facet normal -0.000000e+00 -1.000000e+00 -0.000000e+00
    outer loop
      vertex 1.400000e-01 -1.400000e-01 2.000000e-03
      vertex -1.400000e-01 -1.400000e-01 -2.000000e-03
      vertex 1.400000e-01 -1.400000e-01 -2.000000e-03
    endloop
  endfacet
  facet normal -0.000000e+00 -1.000000e+00 -0.000000e+00
    outer loop
      vertex -1.400000e-01 -1.400000e-01 2.000000e-03
      vertex -1.400000e-01 -1.400000e-01 -2.000000e-03
      vertex 1.400000e-01 -1.400000e-01 2.000000e-03
    endloop
  endfacet
  facet normal -1.000000e+00 0.000000e+00 0.000000e+00
    outer loop
      vertex 1.300000e-01 1.500000e-01 -2.000000e-03
      vertex 1.300000e-01 -1.300000e-01 2.000000e-03
      vertex 1.300000e-01 1.500000e-01 2.000000e-03
    endloop
  endfacet
  facet normal -1.000000e+00 0.000000e+00 0.000000e+00
    outer loop
      vertex 1.300000e-01 -1.300000e-01 -2.000000e-03
      vertex 1.300000e-01 -1.300000e-01 2.000000e-03
      vertex 1.300000e-01 1.500000e-01 -2.000000e-03
    endloop
  endfacet
  facet normal 0.000000e+00 -1.000000e+00 0.000000e+00
    outer loop
      vertex -1.300000e-01 1.300000e-01 -2.000000e-03
      vertex 1.100000e-01 1.300000e-01 2.000000e-03
      vertex -1.300000e-01 1.300000e-01 2.000000e-03
    endloop
  endfacet
  facet normal 0.000000e+00 -1.000000e+00 0.000000e+00
    outer loop
      vertex 1.100000e-01 1.300000e-01 -2.000000e-03
      vertex 1.100000e-01 1.300000e-01 2.000000e-03
      vertex -1.300000e-01 1.300000e-01 -2.000000e-03
    endloop
  endfacet
  facet normal 1.000000e+00 0.000000e+00 0.000000e+00
    outer loop
      vertex -1.300000e-01 -1.300000e-01 -2.000000e-03
      vertex -1.300000e-01 1.300000e-01 2.000000e-03
      vertex -1.300000e-01 -1.300000e-01 2.000000e-03
    endloop
  endfacet
  facet normal 1.000000e+00 0.000000e+00 0.000000e+00
    outer loop
      vertex -1.300000e-01 1.300000e-01 -2.000000e-03
      vertex -1.300000e-01 1.300000e-01 2.000000e-03
      vertex -1.300000e-01 -1.300000e-01 -2.000000e-03
    endloop
  endfacet
  facet normal 0.000000e+00 1.000000e+00 0.000000e+00
    outer loop
      vertex 1.300000e-01 -1.300000e-01 -2.000000e-03
      vertex -1.300000e-01 -1.300000e-01 2.000000e-03
      vertex 1.300000e-01 -1.300000e-01 2.000000e-03
    endloop
  endfacet
  facet normal 0.000000e+00 1.000000e+00 0.000000e+00
    outer loop
      vertex -1.300000e-01 -1.300000e-01 -2.000000e-03
      vertex -1.300000e-01 -1.300000e-01 2.000000e-03
      vertex 1.300000e-01 -1.300000e-01 -2.000000e-03
    endloop
  endfacet
  facet normal -0.000000e+00 1.000000e+00 -0.000000e+00
    outer loop
      vertex -1.400000e-01 1.400000e-01 2.000000e-03
      vertex 1.200000e-01 1.400000e-01 -2.000000e-03
      vertex -1.400000e-01 1.400000e-01 -2.000000e-03
    endloop
  endfacet
  facet normal -0.000000e+00 1.000000e+00 -0.000000e+00
    outer loop
      vertex 1.200000e-01 1.400000e-01 2.000000e-03
      vertex 1.200000e-01 1.400000e-01 -2.000000e-03
      vertex -1.400000e-01 1.400000e-01 2.000000e-03
    endloop
  endfacet
  facet normal -0.000000e+00 -1.000000e+00 -0.000000e+00
    outer loop
      vertex 1.800000e-01 -1.800000e-01 2.000000e-03
      vertex -1.800000e-01 -1.800000e-01 -2.000000e-03
      vertex 1.800000e-01 -1.800000e-01 -2.000000e-03
    endloop
  endfacet
  facet normal -0.000000e+00 -1.000000e+00 -0.000000e+00
    outer loop
      vertex -1.800000e-01 -1.800000e-01 2.000000e-03
      vertex -1.800000e-01 -1.800000e-01 -2.000000e-03
      vertex 1.800000e-01 -1.800000e-01 2.000000e-03
    endloop
  endfacet
  facet normal -1.000000e+00 0.000000e+00 0.000000e+00
    outer loop
      vertex 1.700000e-01 1.900000e-01 -2.000000e-03
      vertex 1.700000e-01 -1.700000e-01 2.000000e-03
      vertex 1.700000e-01 1.900000e-01 2.000000e-03
    endloop
  endfacet
  facet normal -1.000000e+00 0.000000e+00 0.000000e+00
    outer loop
      vertex 1.700000e-01 -1.700000e-01 -2.000000e-03
      vertex 1.700000e-01 -1.700000e-01 2.000000e-03
      vertex 1.700000e-01 1.900000e-01 -2.000000e-03
    endloop
  endfacet
  facet normal 1.000000e+00 0.000000e+00 0.000000e+00
    outer loop
      vertex -1.700000e-01 -1.700000e-01 -2.000000e-03
      vertex -1.700000e-01 1.700000e-01 2.000000e-03
      vertex -1.700000e-01 -1.700000e-01 2.000000e-03
    endloop
  endfacet
  facet normal 1.000000e+00 0.000000e+00 0.000000e+00
    outer loop
      vertex -1.700000e-01 1.700000e-01 -2.000000e-03
      vertex -1.700000e-01 1.700000e-01 2.000000e-03
      vertex -1.700000e-01 -1.700000e-01 -2.000000e-03
    endloop
  endfacet
  facet normal 0.000000e+00 1.000000e+00 0.000000e+00
    outer loop
      vertex 1.700000e-01 -1.700000e-01 -2.000000e-03
      vertex -1.700000e-01 -1.700000e-01 2.000000e-03
      vertex 1.700000e-01 -1.700000e-01 2.000000e-03
    endloop
  endfacet
  facet normal 0.000000e+00 1.000000e+00 0.000000e+00
    outer loop
      vertex -1.700000e-01 -1.700000e-01 -2.000000e-03
      vertex -1.700000e-01 -1.700000e-01 2.000000e-03
      vertex 1.700000e-01 -1.700000e-01 -2.000000e-03
    endloop
  endfacet
  facet normal -1.000000e+00 -0.000000e+00 -0.000000e+00
    outer loop
      vertex -1.800000e-01 -1.800000e-01 2.000000e-03
      vertex -1.800000e-01 1.800000e-01 -2.000000e-03
      vertex -1.800000e-01 -1.800000e-01 -2.000000e-03
    endloop
  endfacet
  facet normal -1.000000e+00 -0.000000e+00 -0.000000e+00
    outer loop
      vertex -1.800000e-01 1.800000e-01 2.000000e-03
      vertex -1.800000e-01 1.800000e-01 -2.000000e-03
      vertex -1.800000e-01 -1.800000e-01 2.000000e-03
    endloop
  endfacet
  facet normal -1.000000e+00 -0.000000e+00 -0.000000e+00
    outer loop
      vertex -2.000000e-01 -2.000000e-01 2.000000e-03
      vertex -2.000000e-01 2.000000e-01 -2.000000e-03
      vertex -2.000000e-01 -2.000000e-01 -2.000000e-03
    endloop
  endfacet
  facet normal -1.000000e+00 -0.000000e+00 -0.000000e+00
    outer loop
      vertex -2.000000e-01 2.000000e-01 2.000000e-03
      vertex -2.000000e-01 2.000000e-01 -2.000000e-03
      vertex -2.000000e-01 -2.000000e-01 2.000000e-03
    endloop
  endfacet
  facet normal -0.000000e+00 -1.000000e+00 -0.000000e+00
    outer loop
      vertex 2.000000e-01 -2.000000e-01 2.000000e-03
      vertex -2.000000e-01 -2.000000e-01 -2.000000e-03
      vertex 2.000000e-01 -2.000000e-01 -2.000000e-03
    endloop
  endfacet
  facet normal -0.000000e+00 -1.000000e+00 -0.000000e+00
    outer loop
      vertex -2.000000e-01 -2.000000e-01 2.000000e-03
      vertex -2.000000e-01 -2.000000e-01 -2.000000e-03
      vertex 2.000000e-01 -2.000000e-01 2.000000e-03
    endloop
  endfacet
  facet normal 0.000000e+00 -1.000000e+00 0.000000e+00
    outer loop
      vertex -1.900000e-01 1.900000e-01 -2.000000e-03
      vertex 1.700000e-01 1.900000e-01 2.000000e-03
      vertex -1.900000e-01 1.900000e-01 2.000000e-03
    endloop
  endfacet
  facet normal 0.000000e+00 -1.000000e+00 0.000000e+00
    outer loop
      vertex 1.700000e-01 1.900000e-01 -2.000000e-03
      vertex 1.700000e-01 1.900000e-01 2.000000e-03
      vertex -1.900000e-01 1.900000e-01 -2.000000e-03
    endloop
  endfacet
  facet normal 1.000000e+00 0.000000e+00 0.000000e+00
    outer loop
      vertex -1.900000e-01 -1.900000e-01 -2.000000e-03
      vertex -1.900000e-01 1.900000e-01 2.000000e-03
      vertex -1.900000e-01 -1.900000e-01 2.000000e-03
    endloop
  endfacet
  facet normal 1.000000e+00 0.000000e+00 0.000000e+00
    outer loop
      vertex -1.900000e-01 1.900000e-01 -2.000000e-03
      vertex -1.900000e-01 1.900000e-01 2.000000e-03
      vertex -1.900000e-01 -1.900000e-01 -2.000000e-03
    endloop
  endfacet
  facet normal 0.000000e+00 1.000000e+00 0.000000e+00
    outer loop
      vertex 1.900000e-01 -1.900000e-01 -2.000000e-03
      vertex -1.900000e-01 -1.900000e-01 2.000000e-03
      vertex 1.900000e-01 -1.900000e-01 2.000000e-03
    endloop
  endfacet
  facet normal 0.000000e+00 1.000000e+00 0.000000e+00
    outer loop
      vertex -1.900000e-01 -1.900000e-01 -2.000000e-03
      vertex -1.900000e-01 -1.900000e-01 2.000000e-03
      vertex 1.900000e-01 -1.900000e-01 -2.000000e-03
    endloop
  endfacet
  facet normal -0.000000e+00 1.000000e+00 -0.000000e+00
    outer loop
      vertex -2.000000e-01 2.000000e-01 2.000000e-03
      vertex 1.800000e-01 2.000000e-01 -2.000000e-03
      vertex -2.000000e-01 2.000000e-01 -2.000000e-03
    endloop
  endfacet
  facet normal -0.000000e+00 1.000000e+00 -0.000000e+00
    outer loop
      vertex 1.800000e-01 2.000000e-01 2.000000e-03
      vertex 1.800000e-01 2.000000e-01 -2.000000e-03
      vertex -2.000000e-01 2.000000e-01 2.000000e-03
    endloop
  endfacet
  facet normal 1.000000e+00 0.000000e+00 0.000000e+00
    outer loop
      vertex 1.800000e-01 -1.800000e-01 -2.000000e-03
      vertex 1.800000e-01 2.000000e-01 2.000000e-03
      vertex 1.800000e-01 -1.800000e-01 2.000000e-03
    endloop
  endfacet
  facet normal 1.000000e+00 0.000000e+00 0.000000e+00
    outer loop
      vertex 1.800000e-01 2.000000e-01 -2.000000e-03
      vertex 1.800000e-01 2.000000e-01 2.000000e-03
      vertex 1.800000e-01 -1.800000e-01 -2.000000e-03
    endloop
  endfacet
  facet normal -0.000000e+00 1.000000e+00 -0.000000e+00
    outer loop
      vertex -1.800000e-01 1.800000e-01 2.000000e-03
      vertex 1.600000e-01 1.800000e-01 -2.000000e-03
      vertex -1.800000e-01 1.800000e-01 -2.000000e-03
    endloop
  endfacet
  facet normal -0.000000e+00 1.000000e+00 -0.000000e+00
    outer loop
      vertex 1.600000e-01 1.800000e-01 2.000000e-03
      vertex 1.600000e-01 1.800000e-01 -2.000000e-03
      vertex -1.800000e-01 1.800000e-01 2.000000e-03
    endloop
  endfacet
  facet normal 1.000000e+00 -0.000000e+00 -0.000000e+00
    outer loop
      vertex 1.600000e-01 1.800000e-01 2.000000e-03
      vertex 1.600000e-01 -1.600000e-01 -2.000000e-03
      vertex 1.600000e-01 1.800000e-01 -2.000000e-03
    endloop
  endfacet
  facet normal 1.000000e+00 -0.000000e+00 -0.000000e+00
    outer loop
      vertex 1.600000e-01 -1.600000e-01 2.000000e-03
      vertex 1.600000e-01 -1.600000e-01 -2.000000e-03
      vertex 1.600000e-01 1.800000e-01 2.000000e-03
    endloop
  endfacet
  facet normal -0.000000e+00 -1.000000e+00 -0.000000e+00
    outer loop
      vertex -1.700000e-01 1.700000e-01 -2.000000e-03
      vertex 1.500000e-01 1.700000e-01 2.000000e-03
      vertex -1.700000e-01 1.700000e-01 2.000000e-03
    endloop
  endfacet
  facet normal -0.000000e+00 -1.000000e+00 -0.000000e+00
    outer loop
      vertex 1.500000e-01 1.700000e-01 -2.000000e-03
      vertex 1.500000e-01 1.700000e-01 2.000000e-03
      vertex -1.700000e-01 1.700000e-01 -2.000000e-03
    endloop
  endfacet
  facet normal -1.000000e+00 -0.000000e+00 -0.000000e+00
    outer loop
      vertex 1.500000e-01 -1.500000e-01 2.000000e-03
      vertex 1.500000e-01 1.700000e-01 -2.000000e-03
      vertex 1.500000e-01 -1.500000e-01 -2.000000e-03
    endloop
  endfacet
  facet normal -1.000000e+00 -0.000000e+00 -0.000000e+00
    outer loop
      vertex 1.500000e-01 1.700000e-01 2.000000e-03
      vertex 1.500000e-01 1.700000e-01 -2.000000e-03
      vertex 1.500000e-01 -1.500000e-01 2.000000e-03
    endloop
  endfacet
  facet normal -1.000000e+00 -0.000000e+00 -0.000000e+00
    outer loop
      vertex -1.600000e-01 -1.600000e-01 2.000000e-03
      vertex -1.600000e-01 1.600000e-01 -2.000000e-03
      vertex -1.600000e-01 -1.600000e-01 -2.000000e-03
    endloop
  endfacet
  facet normal -1.000000e+00 -0.000000e+00 -0.000000e+00
    outer loop
      vertex -1.600000e-01 1.600000e-01 2.000000e-03
      vertex -1.600000e-01 1.600000e-01 -2.000000e-03
      vertex -1.600000e-01 -1.600000e-01 2.000000e-03
    endloop
  endfacet
  facet normal -0.000000e+00 -1.000000e+00 -0.000000e+00
    outer loop
      vertex 1.600000e-01 -1.600000e-01 2.000000e-03
      vertex -1.600000e-01 -1.600000e-01 -2.000000e-03
      vertex 1.600000e-01 -1.600000e-01 -2.000000e-03
    endloop
  endfacet
  facet normal -0.000000e+00 -1.000000e+00 -0.000000e+00
    outer loop
      vertex -1.600000e-01 -1.600000e-01 2.000000e-03
      vertex -1.600000e-01 -1.600000e-01 -2.000000e-03
      vertex 1.600000e-01 -1.600000e-01 2.000000e-03
    endloop
  endfacet
  facet normal 0.000000e+00 -1.000000e+00 0.000000e+00
    outer loop
      vertex -1.500000e-01 1.500000e-01 -2.000000e-03
      vertex 1.300000e-01 1.500000e-01 2.000000e-03
      vertex -1.500000e-01 1.500000e-01 2.000000e-03
    endloop
  endfacet
  facet normal 0.000000e+00 -1.000000e+00 0.000000e+00
    outer loop
      vertex 1.300000e-01 1.500000e-01 -2.000000e-03
      vertex 1.300000e-01 1.500000e-01 2.000000e-03
      vertex -1.500000e-01 1.500000e-01 -2.000000e-03
    endloop
  endfacet
  facet normal 1.000000e+00 0.000000e+00 0.000000e+00
    outer loop
      vertex -1.500000e-01 -1.500000e-01 -2.000000e-03
      vertex -1.500000e-01 1.500000e-01 2.000000e-03
      vertex -1.500000e-01 -1.500000e-01 2.000000e-03
    endloop
  endfacet
  facet normal 1.000000e+00 0.000000e+00 0.000000e+00
    outer loop
      vertex -1.500000e-01 1.500000e-01 -2.000000e-03
      vertex -1.500000e-01 1.500000e-01 2.000000e-03
      vertex -1.500000e-01 -1.500000e-01 -2.000000e-03
    endloop
  endfacet
  facet normal 0.000000e+00 1.000000e+00 0.000000e+00
    outer loop
      vertex 1.500000e-01 -1.500000e-01 -2.000000e-03
      vertex -1.500000e-01 -1.500000e-01 2.000000e-03
      vertex 1.500000e-01 -1.500000e-01 2.000000e-03
    endloop
  endfacet
  facet normal 0.000000e+00 1.000000e+00 0.000000e+00
    outer loop
      vertex -1.500000e-01 -1.500000e-01 -2.000000e-03
      vertex -1.500000e-01 -1.500000e-01 2.000000e-03
      vertex 1.500000e-01 -1.500000e-01 -2.000000e-03
    endloop
  endfacet
  facet normal -0.000000e+00 1.000000e+00 -0.000000e+00
    outer loop
      vertex -1.600000e-01 1.600000e-01 2.000000e-03
      vertex 1.400000e-01 1.600000e-01 -2.000000e-03
      vertex -1.600000e-01 1.600000e-01 -2.000000e-03
    endloop
  endfacet
  facet normal -0.000000e+00 1.000000e+00 -0.000000e+00
    outer loop
      vertex 1.400000e-01 1.600000e-01 2.000000e-03
      vertex 1.400000e-01 1.600000e-01 -2.000000e-03
      vertex -1.600000e-01 1.600000e-01 2.000000e-03
    endloop
  endfacet
  facet normal 1.000000e+00 0.000000e+00 0.000000e+00
    outer loop
      vertex 1.400000e-01 -1.400000e-01 -2.000000e-03
      vertex 1.400000e-01 1.600000e-01 2.000000e-03
      vertex 1.400000e-01 -1.400000e-01 2.000000e-03
    endloop
  endfacet
  facet normal 1.000000e+00 0.000000e+00 0.000000e+00
    outer loop
      vertex 1.400000e-01 1.600000e-01 -2.000000e-03
      vertex 1.400000e-01 1.600000e-01 2.000000e-03
      vertex 1.400000e-01 -1.400000e-01 -2.000000e-03
    endloop
  endfacet
  facet normal 0.000000e+00 -1.000000e+00 0.000000e+00
    outer loop
      vertex -1.100000e-01 1.100000e-01 -2.000000e-03
      vertex 9.000000e-02 1.100000e-01 2.000000e-03
      vertex -1.100000e-01 1.100000e-01 2.000000e-03
    endloop
  endfacet
  facet normal 0.000000e+00 -1.000000e+00 0.000000e+00
    outer loop
      vertex 9.000000e-02 1.100000e-01 -2.000000e-03
      vertex 9.000000e-02 1.100000e-01 2.000000e-03
      vertex -1.100000e-01 1.100000e-01 -2.000000e-03
    endloop
  endfacet
  facet normal 1.000000e+00 -0.000000e+00 -0.000000e+00
    outer loop
      vertex 1.000000e-01 1.000000e-02 -2.000000e-03
      vertex 1.000000e-01 1.200000e-01 -2.000000e-03
      vertex 1.000000e-01 1.200000e-01 2.000000e-03
    endloop
  endfacet
  facet normal 1.000000e+00 -0.000000e+00 -0.000000e+00
    outer loop
      vertex 1.000000e-01 1.000000e-02 -2.000000e-03
      vertex 1.000000e-01 0.000000e+00 -1.400000e-02
      vertex 1.000000e-01 1.000000e-02 -1.400000e-02
    endloop
  endfacet
  facet normal 1.000000e+00 -0.000000e+00 -0.000000e+00
    outer loop
      vertex 1.000000e-01 1.000000e-02 -2.000000e-03
      vertex 1.000000e-01 0.000000e+00 2.000000e-03
      vertex 1.000000e-01 0.000000e+00 -1.400000e-02
    endloop
  endfacet
  facet normal 1.000000e+00 -0.000000e+00 -0.000000e+00
    outer loop
      vertex 1.000000e-01 1.200000e-01 2.000000e-03
      vertex 1.000000e-01 0.000000e+00 2.000000e-03
      vertex 1.000000e-01 1.000000e-02 -2.000000e-03
    endloop
  endfacet
  facet normal -1.000000e+00 -0.000000e+00 -0.000000e+00
    outer loop
      vertex 9.000000e-02 1.100000e-01 2.000000e-03
      vertex 9.000000e-02 1.100000e-01 -2.000000e-03
      vertex 9.000000e-02 1.000000e-02 -2.000000e-03
    endloop
  endfacet
  facet normal -1.000000e+00 -0.000000e+00 -0.000000e+00
    outer loop
      vertex 9.000000e-02 1.000000e-02 -2.000000e-03
      vertex 9.000000e-02 0.000000e+00 2.000000e-03
      vertex 9.000000e-02 1.100000e-01 2.000000e-03
    endloop
  endfacet
  facet normal -1.000000e+00 -0.000000e+00 -0.000000e+00
    outer loop
      vertex 9.000000e-02 1.000000e-02 -2.000000e-03
      vertex 9.000000e-02 0.000000e+00 -1.800000e-02
      vertex 9.000000e-02 0.000000e+00 2.000000e-03
    endloop
  endfacet
  facet normal -1.000000e+00 -0.000000e+00 -0.000000e+00
    outer loop
      vertex 9.000000e-02 1.000000e-02 -1.800000e-02
      vertex 9.000000e-02 0.000000e+00 -1.800000e-02
      vertex 9.000000e-02 1.000000e-02 -2.000000e-03
    endloop
  endfacet
  facet normal 0.000000e+00 0.000000e+00 1.000000e+00
    outer loop
      vertex 9.000000e-02 1.100000e-01 2.000000e-03
      vertex 9.000000e-02 0.000000e+00 2.000000e-03
      vertex 1.000000e-01 0.000000e+00 2.000000e-03
    endloop
  endfacet
  facet normal 0.000000e+00 0.000000e+00 1.000000e+00
    outer loop
      vertex 1.000000e-01 1.200000e-01 2.000000e-03
      vertex 9.000000e-02 1.100000e-01 2.000000e-03
      vertex 1.000000e-01 0.000000e+00 2.000000e-03
    endloop
  endfacet
  facet normal 0.000000e+00 0.000000e+00 1.000000e+00
    outer loop
      vertex -1.200000e-01 1.200000e-01 2.000000e-03
      vertex 9.000000e-02 1.100000e-01 2.000000e-03
      vertex 1.000000e-01 1.200000e-01 2.000000e-03
    endloop
  endfacet
  facet normal 0.000000e+00 0.000000e+00 1.000000e+00
    outer loop
      vertex -1.200000e-01 1.200000e-01 2.000000e-03
      vertex -1.100000e-01 1.100000e-01 2.000000e-03
      vertex 9.000000e-02 1.100000e-01 2.000000e-03
    endloop
  endfacet
  facet normal 0.000000e+00 0.000000e+00 1.000000e+00
    outer loop
      vertex -1.200000e-01 -1.200000e-01 2.000000e-03
      vertex -1.100000e-01 1.100000e-01 2.000000e-03
      vertex -1.200000e-01 1.200000e-01 2.000000e-03
    endloop
  endfacet
  facet normal 0.000000e+00 0.000000e+00 1.000000e+00
    outer loop
      vertex -1.200000e-01 -1.200000e-01 2.000000e-03
      vertex -1.100000e-01 -1.100000e-01 2.000000e-03
      vertex -1.100000e-01 1.100000e-01 2.000000e-03
    endloop
  endfacet
  facet normal 0.000000e+00 0.000000e+00 1.000000e+00
    outer loop
      vertex 1.200000e-01 -1.200000e-01 2.000000e-03
      vertex -1.100000e-01 -1.100000e-01 2.000000e-03
      vertex -1.200000e-01 -1.200000e-01 2.000000e-03
    endloop
  endfacet
  facet normal 0.000000e+00 0.000000e+00 1.000000e+00
    outer loop
      vertex 1.200000e-01 -1.200000e-01 2.000000e-03
      vertex 1.100000e-01 -1.100000e-01 2.000000e-03
      vertex -1.100000e-01 -1.100000e-01 2.000000e-03
    endloop
  endfacet
  facet normal 0.000000e+00 0.000000e+00 1.000000e+00
    outer loop
      vertex 1.100000e-01 1.300000e-01 2.000000e-03
      vertex 1.100000e-01 -1.100000e-01 2.000000e-03
      vertex 1.200000e-01 -1.200000e-01 2.000000e-03
    endloop
  endfacet
  facet normal 0.000000e+00 0.000000e+00 1.000000e+00
    outer loop
      vertex 1.200000e-01 1.400000e-01 2.000000e-03
      vertex 1.100000e-01 1.300000e-01 2.000000e-03
      vertex 1.200000e-01 -1.200000e-01 2.000000e-03
    endloop
  endfacet
  facet normal 0.000000e+00 0.000000e+00 1.000000e+00
    outer loop
      vertex -1.400000e-01 1.400000e-01 2.000000e-03
      vertex 1.100000e-01 1.300000e-01 2.000000e-03
      vertex 1.200000e-01 1.400000e-01 2.000000e-03
    endloop
  endfacet
  facet normal 0.000000e+00 0.000000e+00 1.000000e+00
    outer loop
      vertex -1.400000e-01 1.400000e-01 2.000000e-03
      vertex -1.300000e-01 1.300000e-01 2.000000e-03
      vertex 1.100000e-01 1.300000e-01 2.000000e-03
    endloop
  endfacet
  facet normal 0.000000e+00 0.000000e+00 1.000000e+00
    outer loop
      vertex -1.400000e-01 -1.400000e-01 2.000000e-03
      vertex -1.300000e-01 1.300000e-01 2.000000e-03
      vertex -1.400000e-01 1.400000e-01 2.000000e-03
    endloop
  endfacet
  facet normal 0.000000e+00 0.000000e+00 1.000000e+00
    outer loop
      vertex -1.400000e-01 -1.400000e-01 2.000000e-03
      vertex -1.300000e-01 -1.300000e-01 2.000000e-03
      vertex -1.300000e-01 1.300000e-01 2.000000e-03
    endloop
  endfacet
  facet normal 0.000000e+00 0.000000e+00 1.000000e+00
    outer loop
      vertex 1.400000e-01 -1.400000e-01 2.000000e-03
      vertex -1.300000e-01 -1.300000e-01 2.000000e-03
      vertex -1.400000e-01 -1.400000e-01 2.000000e-03
    endloop
  endfacet
  facet normal 0.000000e+00 0.000000e+00 1.000000e+00
    outer loop
      vertex 1.400000e-01 -1.400000e-01 2.000000e-03
      vertex 1.300000e-01 -1.300000e-01 2.000000e-03
      vertex -1.300000e-01 -1.300000e-01 2.000000e-03
    endloop
  endfacet
  facet normal 0.000000e+00 0.000000e+00 1.000000e+00
    outer loop
      vertex 1.300000e-01 1.500000e-01 2.000000e-03
      vertex 1.300000e-01 -1.300000e-01 2.000000e-03
      vertex 1.400000e-01 -1.400000e-01 2.000000e-03
    endloop
  endfacet
  facet normal 0.000000e+00 0.000000e+00 1.000000e+00
    outer loop
      vertex 1.400000e-01 1.600000e-01 2.000000e-03
      vertex 1.300000e-01 1.500000e-01 2.000000e-03
      vertex 1.400000e-01 -1.400000e-01 2.000000e-03
    endloop
  endfacet
  facet normal 0.000000e+00 0.000000e+00 1.000000e+00
    outer loop
      vertex -1.600000e-01 1.600000e-01 2.000000e-03
      vertex 1.300000e-01 1.500000e-01 2.000000e-03
      vertex 1.400000e-01 1.600000e-01 2.000000e-03
    endloop
  endfacet
  facet normal 0.000000e+00 0.000000e+00 1.000000e+00
    outer loop
      vertex -1.600000e-01 1.600000e-01 2.000000e-03
      vertex -1.500000e-01 1.500000e-01 2.000000e-03
      vertex 1.300000e-01 1.500000e-01 2.000000e-03
    endloop
  endfacet
  facet normal 0.000000e+00 0.000000e+00 1.000000e+00
    outer loop
      vertex -1.600000e-01 -1.600000e-01 2.000000e-03
      vertex -1.500000e-01 1.500000e-01 2.000000e-03
      vertex -1.600000e-01 1.600000e-01 2.000000e-03
    endloop
  endfacet
  facet normal 0.000000e+00 0.000000e+00 1.000000e+00
    outer loop
      vertex -1.600000e-01 -1.600000e-01 2.000000e-03
      vertex -1.500000e-01 -1.500000e-01 2.000000e-03
      vertex -1.500000e-01 1.500000e-01 2.000000e-03
    endloop
  endfacet
  facet normal 0.000000e+00 0.000000e+00 1.000000e+00
    outer loop
      vertex 1.600000e-01 -1.600000e-01 2.000000e-03
      vertex -1.500000e-01 -1.500000e-01 2.000000e-03
      vertex -1.600000e-01 -1.600000e-01 2.000000e-03
    endloop
  endfacet
  facet normal 0.000000e+00 0.000000e+00 1.000000e+00
    outer loop
      vertex 1.600000e-01 -1.600000e-01 2.000000e-03
      vertex 1.500000e-01 -1.500000e-01 2.000000e-03
      vertex -1.500000e-01 -1.500000e-01 2.000000e-03
    endloop
  endfacet
  facet normal 0.000000e+00 0.000000e+00 1.000000e+00
    outer loop
      vertex 1.500000e-01 1.700000e-01 2.000000e-03
      vertex 1.500000e-01 -1.500000e-01 2.000000e-03
      vertex 1.600000e-01 -1.600000e-01 2.000000e-03
    endloop
  endfacet
  facet normal 0.000000e+00 0.000000e+00 1.000000e+00
    outer loop
      vertex 1.600000e-01 1.800000e-01 2.000000e-03
      vertex 1.500000e-01 1.700000e-01 2.000000e-03
      vertex 1.600000e-01 -1.600000e-01 2.000000e-03
    endloop
  endfacet
  facet normal 0.000000e+00 0.000000e+00 1.000000e+00
    outer loop
      vertex -1.800000e-01 1.800000e-01 2.000000e-03
      vertex 1.500000e-01 1.700000e-01 2.000000e-03
      vertex 1.600000e-01 1.800000e-01 2.000000e-03
    endloop
  endfacet
  facet normal 0.000000e+00 0.000000e+00 1.000000e+00
    outer loop
      vertex -1.800000e-01 1.800000e-01 2.000000e-03
      vertex -1.700000e-01 1.700000e-01 2.000000e-03
      vertex 1.500000e-01 1.700000e-01 2.000000e-03
    endloop
  endfacet
  facet normal 0.000000e+00 0.000000e+00 1.000000e+00
    outer loop
      vertex -1.800000e-01 -1.800000e-01 2.000000e-03
      vertex -1.700000e-01 1.700000e-01 2.000000e-03
      vertex -1.800000e-01 1.800000e-01 2.000000e-03
    endloop
  endfacet
  facet normal 0.000000e+00 0.000000e+00 1.000000e+00
    outer loop
      vertex -1.800000e-01 -1.800000e-01 2.000000e-03
      vertex -1.700000e-01 -1.700000e-01 2.000000e-03
      vertex -1.700000e-01 1.700000e-01 2.000000e-03
    endloop
  endfacet
  facet normal 0.000000e+00 0.000000e+00 1.000000e+00
    outer loop
      vertex 1.800000e-01 -1.800000e-01 2.000000e-03
      vertex -1.700000e-01 -1.700000e-01 2.000000e-03
      vertex -1.800000e-01 -1.800000e-01 2.000000e-03
    endloop
  endfacet
  facet normal 0.000000e+00 0.000000e+00 1.000000e+00
    outer loop
      vertex 1.800000e-01 -1.800000e-01 2.000000e-03
      vertex 1.700000e-01 -1.700000e-01 2.000000e-03
      vertex -1.700000e-01 -1.700000e-01 2.000000e-03
    endloop
  endfacet
  facet normal 0.000000e+00 0.000000e+00 1.000000e+00
    outer loop
      vertex 1.800000e-01 -1.800000e-01 2.000000e-03
      vertex 1.700000e-01 1.900000e-01 2.000000e-03
      vertex 1.700000e-01 -1.700000e-01 2.000000e-03
    endloop
  endfacet
  facet normal 0.000000e+00 0.000000e+00 1.000000e+00
    outer loop
      vertex 1.800000e-01 2.000000e-01 2.000000e-03
      vertex 1.700000e-01 1.900000e-01 2.000000e-03
      vertex 1.800000e-01 -1.800000e-01 2.000000e-03
    endloop
  endfacet
  facet normal 0.000000e+00 0.000000e+00 1.000000e+00
    outer loop
      vertex -2.000000e-01 2.000000e-01 2.000000e-03
      vertex 1.700000e-01 1.900000e-01 2.000000e-03
      vertex 1.800000e-01 2.000000e-01 2.000000e-03
    endloop
  endfacet
  facet normal 0.000000e+00 0.000000e+00 1.000000e+00
    outer loop
      vertex -1.900000e-01 1.900000e-01 2.000000e-03
      vertex 1.700000e-01 1.900000e-01 2.000000e-03
      vertex -2.000000e-01 2.000000e-01 2.000000e-03
    endloop
  endfacet
  facet normal 0.000000e+00 0.000000e+00 1.000000e+00
    outer loop
      vertex -2.000000e-01 -2.000000e-01 2.000000e-03
      vertex -1.900000e-01 1.900000e-01 2.000000e-03
      vertex -2.000000e-01 2.000000e-01 2.000000e-03
    endloop
  endfacet
  facet normal 0.000000e+00 0.000000e+00 1.000000e+00
    outer loop
      vertex -1.900000e-01 -1.900000e-01 2.000000e-03
      vertex -1.900000e-01 1.900000e-01 2.000000e-03
      vertex -2.000000e-01 -2.000000e-01 2.000000e-03
    endloop
  endfacet
  facet normal 0.000000e+00 0.000000e+00 1.000000e+00
    outer loop
      vertex 2.000000e-01 -2.000000e-01 2.000000e-03
      vertex -1.900000e-01 -1.900000e-01 2.000000e-03
      vertex -2.000000e-01 -2.000000e-01 2.000000e-03
    endloop
  endfacet
  facet normal 0.000000e+00 0.000000e+00 1.000000e+00
    outer loop
      vertex 1.900000e-01 -1.900000e-01 2.000000e-03
      vertex -1.900000e-01 -1.900000e-01 2.000000e-03
      vertex 2.000000e-01 -2.000000e-01 2.000000e-03
    endloop
  endfacet
  facet normal 0.000000e+00 0.000000e+00 1.000000e+00
    outer loop
      vertex 2.000000e-01 0.000000e+00 2.000000e-03
      vertex 1.900000e-01 -1.900000e-01 2.000000e-03
      vertex 2.000000e-01 -2.000000e-01 2.000000e-03
    endloop
  endfacet
  facet normal 0.000000e+00 0.000000e+00 1.000000e+00
    outer loop
      vertex 1.900000e-01 0.000000e+00 2.000000e-03
      vertex 1.900000e-01 -1.900000e-01 2.000000e-03
      vertex 2.000000e-01 0.000000e+00 2.000000e-03
    endloop
  endfacet
  facet normal -1.000000e+00 0.000000e+00 0.000000e+00
    outer loop
      vertex 1.900000e-01 -1.900000e-01 2.000000e-03
      vertex 1.900000e-01 0.000000e+00 -2.000000e-03
      vertex 1.900000e-01 -1.900000e-01 -2.000000e-03
    endloop
  endfacet
  facet normal -1.000000e+00 0.000000e+00 0.000000e+00
    outer loop
      vertex 1.900000e-01 0.000000e+00 2.000000e-03
      vertex 1.900000e-01 0.000000e+00 -2.000000e-03
      vertex 1.900000e-01 -1.900000e-01 2.000000e-03
    endloop
  endfacet
  facet normal -0.000000e+00 1.000000e+00 -0.000000e+00
    outer loop
      vertex 9.000000e-02 1.000000e-02 -2.000000e-03
      vertex 1.000000e-01 1.000000e-02 -2.000000e-03
      vertex 1.000000e-01 1.000000e-02 -1.400000e-02
    endloop
  endfacet
  facet normal -0.000000e+00 1.000000e+00 -0.000000e+00
    outer loop
      vertex 1.000000e-01 1.000000e-02 -1.400000e-02
      vertex 9.000000e-02 1.000000e-02 -1.800000e-02
      vertex 9.000000e-02 1.000000e-02 -2.000000e-03
    endloop
  endfacet
  facet normal -0.000000e+00 1.000000e+00 -0.000000e+00
    outer loop
      vertex 1.000000e-01 1.000000e-02 -1.400000e-02
      vertex 1.900000e-01 1.000000e-02 -1.800000e-02
      vertex 9.000000e-02 1.000000e-02 -1.800000e-02
    endloop
  endfacet
  facet normal -0.000000e+00 1.000000e+00 -0.000000e+00
    outer loop
      vertex 1.900000e-01 1.000000e-02 -1.400000e-02
      vertex 1.900000e-01 1.000000e-02 -1.800000e-02
      vertex 1.000000e-01 1.000000e-02 -1.400000e-02
    endloop
  endfacet
  facet normal 0.000000e+00 0.000000e+00 1.000000e+00
    outer loop
      vertex 1.900000e-01 0.000000e+00 -1.400000e-02
      vertex 1.000000e-01 1.000000e-02 -1.400000e-02
      vertex 1.000000e-01 0.000000e+00 -1.400000e-02
    endloop
  endfacet
  facet normal 0.000000e+00 0.000000e+00 1.000000e+00
    outer loop
      vertex 1.900000e-01 1.000000e-02 -1.400000e-02
      vertex 1.000000e-01 1.000000e-02 -1.400000e-02
      vertex 1.900000e-01 0.000000e+00 -1.400000e-02
    endloop
  endfacet
  facet normal 1.000000e+00 -0.000000e+00 -0.000000e+00
    outer loop
      vertex 2.000000e-01 -2.000000e-01 -2.000000e-03
      vertex 2.000000e-01 0.000000e+00 2.000000e-03
      vertex 2.000000e-01 -2.000000e-01 2.000000e-03
    endloop
  endfacet
  facet normal 1.000000e+00 -0.000000e+00 -0.000000e+00
    outer loop
      vertex 2.000000e-01 0.000000e+00 -2.000000e-03
      vertex 2.000000e-01 0.000000e+00 2.000000e-03
      vertex 2.000000e-01 -2.000000e-01 -2.000000e-03
    endloop
  endfacet
  facet normal -0.000000e+00 -0.000000e+00 -1.000000e+00
    outer loop
      vertex 9.000000e-02 1.100000e-01 -2.000000e-03
      vertex 1.000000e-01 1.000000e-02 -2.000000e-03
      vertex 9.000000e-02 1.000000e-02 -2.000000e-03
    endloop
  endfacet
  facet normal -0.000000e+00 -0.000000e+00 -1.000000e+00
    outer loop
      vertex 9.000000e-02 1.100000e-01 -2.000000e-03
      vertex 1.000000e-01 1.200000e-01 -2.000000e-03
      vertex 1.000000e-01 1.000000e-02 -2.000000e-03
    endloop
  endfacet
  facet normal -0.000000e+00 -0.000000e+00 -1.000000e+00
    outer loop
      vertex -1.100000e-01 1.100000e-01 -2.000000e-03
      vertex 1.000000e-01 1.200000e-01 -2.000000e-03
      vertex 9.000000e-02 1.100000e-01 -2.000000e-03
    endloop
  endfacet
  facet normal -0.000000e+00 -0.000000e+00 -1.000000e+00
    outer loop
      vertex -1.100000e-01 1.100000e-01 -2.000000e-03
      vertex -1.200000e-01 1.200000e-01 -2.000000e-03
      vertex 1.000000e-01 1.200000e-01 -2.000000e-03
    endloop
  endfacet
  facet normal -0.000000e+00 -0.000000e+00 -1.000000e+00
    outer loop
      vertex -1.200000e-01 -1.200000e-01 -2.000000e-03
      vertex -1.200000e-01 1.200000e-01 -2.000000e-03
      vertex -1.100000e-01 1.100000e-01 -2.000000e-03
    endloop
  endfacet
  facet normal -0.000000e+00 -0.000000e+00 -1.000000e+00
    outer loop
      vertex -1.100000e-01 -1.100000e-01 -2.000000e-03
      vertex -1.200000e-01 -1.200000e-01 -2.000000e-03
      vertex -1.100000e-01 1.100000e-01 -2.000000e-03
    endloop
  endfacet
  facet normal -0.000000e+00 -0.000000e+00 -1.000000e+00
    outer loop
      vertex 1.100000e-01 -1.100000e-01 -2.000000e-03
      vertex -1.200000e-01 -1.200000e-01 -2.000000e-03
      vertex -1.100000e-01 -1.100000e-01 -2.000000e-03
    endloop
  endfacet
  facet normal -0.000000e+00 -0.000000e+00 -1.000000e+00
    outer loop
      vertex 1.100000e-01 -1.100000e-01 -2.000000e-03
      vertex 1.200000e-01 -1.200000e-01 -2.000000e-03
      vertex -1.200000e-01 -1.200000e-01 -2.000000e-03
    endloop
  endfacet
  facet normal -0.000000e+00 -0.000000e+00 -1.000000e+00
    outer loop
      vertex 1.100000e-01 1.300000e-01 -2.000000e-03
      vertex 1.200000e-01 -1.200000e-01 -2.000000e-03
      vertex 1.100000e-01 -1.100000e-01 -2.000000e-03
    endloop
  endfacet
  facet normal -0.000000e+00 -0.000000e+00 -1.000000e+00
    outer loop
      vertex 1.100000e-01 1.300000e-01 -2.000000e-03
      vertex 1.200000e-01 1.400000e-01 -2.000000e-03
      vertex 1.200000e-01 -1.200000e-01 -2.000000e-03
    endloop
  endfacet
  facet normal -0.000000e+00 -0.000000e+00 -1.000000e+00
    outer loop
      vertex -1.300000e-01 1.300000e-01 -2.000000e-03
      vertex 1.200000e-01 1.400000e-01 -2.000000e-03
      vertex 1.100000e-01 1.300000e-01 -2.000000e-03
    endloop
  endfacet
  facet normal -0.000000e+00 -0.000000e+00 -1.000000e+00
    outer loop
      vertex -1.300000e-01 1.300000e-01 -2.000000e-03
      vertex -1.400000e-01 1.400000e-01 -2.000000e-03
      vertex 1.200000e-01 1.400000e-01 -2.000000e-03
    endloop
  endfacet
  facet normal -0.000000e+00 -0.000000e+00 -1.000000e+00
    outer loop
      vertex -1.400000e-01 -1.400000e-01 -2.000000e-03
      vertex -1.400000e-01 1.400000e-01 -2.000000e-03
      vertex -1.300000e-01 1.300000e-01 -2.000000e-03
    endloop
  endfacet
  facet normal -0.000000e+00 -0.000000e+00 -1.000000e+00
    outer loop
      vertex -1.300000e-01 -1.300000e-01 -2.000000e-03
      vertex -1.400000e-01 -1.400000e-01 -2.000000e-03
      vertex -1.300000e-01 1.300000e-01 -2.000000e-03
    endloop
  endfacet
  facet normal -0.000000e+00 -0.000000e+00 -1.000000e+00
    outer loop
      vertex 1.300000e-01 -1.300000e-01 -2.000000e-03
      vertex -1.400000e-01 -1.400000e-01 -2.000000e-03
      vertex -1.300000e-01 -1.300000e-01 -2.000000e-03
    endloop
  endfacet
  facet normal -0.000000e+00 -0.000000e+00 -1.000000e+00
    outer loop
      vertex 1.300000e-01 -1.300000e-01 -2.000000e-03
      vertex 1.400000e-01 -1.400000e-01 -2.000000e-03
      vertex -1.400000e-01 -1.400000e-01 -2.000000e-03
    endloop
  endfacet
  facet normal -0.000000e+00 -0.000000e+00 -1.000000e+00
    outer loop
      vertex 1.300000e-01 1.500000e-01 -2.000000e-03
      vertex 1.400000e-01 -1.400000e-01 -2.000000e-03
      vertex 1.300000e-01 -1.300000e-01 -2.000000e-03
    endloop
  endfacet
  facet normal -0.000000e+00 -0.000000e+00 -1.000000e+00
    outer loop
      vertex 1.300000e-01 1.500000e-01 -2.000000e-03
      vertex 1.400000e-01 1.600000e-01 -2.000000e-03
      vertex 1.400000e-01 -1.400000e-01 -2.000000e-03
    endloop
  endfacet
  facet normal -0.000000e+00 -0.000000e+00 -1.000000e+00
    outer loop
      vertex -1.500000e-01 1.500000e-01 -2.000000e-03
      vertex 1.400000e-01 1.600000e-01 -2.000000e-03
      vertex 1.300000e-01 1.500000e-01 -2.000000e-03
    endloop
  endfacet
  facet normal -0.000000e+00 -0.000000e+00 -1.000000e+00
    outer loop
      vertex -1.500000e-01 1.500000e-01 -2.000000e-03
      vertex -1.600000e-01 1.600000e-01 -2.000000e-03
      vertex 1.400000e-01 1.600000e-01 -2.000000e-03
    endloop
  endfacet
  facet normal -0.000000e+00 -0.000000e+00 -1.000000e+00
    outer loop
      vertex -1.600000e-01 -1.600000e-01 -2.000000e-03
      vertex -1.600000e-01 1.600000e-01 -2.000000e-03
      vertex -1.500000e-01 1.500000e-01 -2.000000e-03
    endloop
  endfacet
  facet normal -0.000000e+00 -0.000000e+00 -1.000000e+00
    outer loop
      vertex -1.500000e-01 -1.500000e-01 -2.000000e-03
      vertex -1.600000e-01 -1.600000e-01 -2.000000e-03
      vertex -1.500000e-01 1.500000e-01 -2.000000e-03
    endloop
  endfacet
  facet normal -0.000000e+00 -0.000000e+00 -1.000000e+00
    outer loop
      vertex 1.500000e-01 -1.500000e-01 -2.000000e-03
      vertex -1.600000e-01 -1.600000e-01 -2.000000e-03
      vertex -1.500000e-01 -1.500000e-01 -2.000000e-03
    endloop
  endfacet
  facet normal -0.000000e+00 -0.000000e+00 -1.000000e+00
    outer loop
      vertex 1.500000e-01 -1.500000e-01 -2.000000e-03
      vertex 1.600000e-01 -1.600000e-01 -2.000000e-03
      vertex -1.600000e-01 -1.600000e-01 -2.000000e-03
    endloop
  endfacet
  facet normal -0.000000e+00 -0.000000e+00 -1.000000e+00
    outer loop
      vertex 1.500000e-01 1.700000e-01 -2.000000e-03
      vertex 1.600000e-01 -1.600000e-01 -2.000000e-03
      vertex 1.500000e-01 -1.500000e-01 -2.000000e-03
    endloop
  endfacet
  facet normal -0.000000e+00 -0.000000e+00 -1.000000e+00
    outer loop
      vertex 1.500000e-01 1.700000e-01 -2.000000e-03
      vertex 1.600000e-01 1.800000e-01 -2.000000e-03
      vertex 1.600000e-01 -1.600000e-01 -2.000000e-03
    endloop
  endfacet
  facet normal -0.000000e+00 -0.000000e+00 -1.000000e+00
    outer loop
      vertex -1.700000e-01 1.700000e-01 -2.000000e-03
      vertex 1.600000e-01 1.800000e-01 -2.000000e-03
      vertex 1.500000e-01 1.700000e-01 -2.000000e-03
    endloop
  endfacet
  facet normal -0.000000e+00 -0.000000e+00 -1.000000e+00
    outer loop
      vertex -1.700000e-01 1.700000e-01 -2.000000e-03
      vertex -1.800000e-01 1.800000e-01 -2.000000e-03
      vertex 1.600000e-01 1.800000e-01 -2.000000e-03
    endloop
  endfacet
  facet normal -0.000000e+00 -0.000000e+00 -1.000000e+00
    outer loop
      vertex -1.700000e-01 1.700000e-01 -2.000000e-03
      vertex -1.800000e-01 -1.800000e-01 -2.000000e-03
      vertex -1.800000e-01 1.800000e-01 -2.000000e-03
    endloop
  endfacet
  facet normal -0.000000e+00 -0.000000e+00 -1.000000e+00
    outer loop
      vertex -1.700000e-01 -1.700000e-01 -2.000000e-03
      vertex -1.800000e-01 -1.800000e-01 -2.000000e-03
      vertex -1.700000e-01 1.700000e-01 -2.000000e-03
    endloop
  endfacet
  facet normal -0.000000e+00 -0.000000e+00 -1.000000e+00
    outer loop
      vertex 1.700000e-01 -1.700000e-01 -2.000000e-03
      vertex -1.800000e-01 -1.800000e-01 -2.000000e-03
      vertex -1.700000e-01 -1.700000e-01 -2.000000e-03
    endloop
  endfacet
  facet normal -0.000000e+00 -0.000000e+00 -1.000000e+00
    outer loop
      vertex 1.800000e-01 -1.800000e-01 -2.000000e-03
      vertex -1.800000e-01 -1.800000e-01 -2.000000e-03
      vertex 1.700000e-01 -1.700000e-01 -2.000000e-03
    endloop
  endfacet
  facet normal -0.000000e+00 -0.000000e+00 -1.000000e+00
    outer loop
      vertex 1.700000e-01 1.900000e-01 -2.000000e-03
      vertex 1.800000e-01 -1.800000e-01 -2.000000e-03
      vertex 1.700000e-01 -1.700000e-01 -2.000000e-03
    endloop
  endfacet
  facet normal -0.000000e+00 -0.000000e+00 -1.000000e+00
    outer loop
      vertex 1.800000e-01 2.000000e-01 -2.000000e-03
      vertex 1.800000e-01 -1.800000e-01 -2.000000e-03
      vertex 1.700000e-01 1.900000e-01 -2.000000e-03
    endloop
  endfacet
  facet normal -0.000000e+00 -0.000000e+00 -1.000000e+00
    outer loop
      vertex -1.900000e-01 1.900000e-01 -2.000000e-03
      vertex 1.800000e-01 2.000000e-01 -2.000000e-03
      vertex 1.700000e-01 1.900000e-01 -2.000000e-03
    endloop
  endfacet
  facet normal -0.000000e+00 -0.000000e+00 -1.000000e+00
    outer loop
      vertex -2.000000e-01 2.000000e-01 -2.000000e-03
      vertex 1.800000e-01 2.000000e-01 -2.000000e-03
      vertex -1.900000e-01 1.900000e-01 -2.000000e-03
    endloop
  endfacet
  facet normal -0.000000e+00 -0.000000e+00 -1.000000e+00
    outer loop
      vertex -2.000000e-01 -2.000000e-01 -2.000000e-03
      vertex -1.900000e-01 -1.900000e-01 -2.000000e-03
      vertex 1.900000e-01 -1.900000e-01 -2.000000e-03
    endloop
  endfacet
  facet normal -0.000000e+00 -0.000000e+00 -1.000000e+00
    outer loop
      vertex -2.000000e-01 -2.000000e-01 -2.000000e-03
      vertex -1.900000e-01 1.900000e-01 -2.000000e-03
      vertex -1.900000e-01 -1.900000e-01 -2.000000e-03
    endloop
  endfacet
  facet normal -0.000000e+00 -0.000000e+00 -1.000000e+00
    outer loop
      vertex -2.000000e-01 2.000000e-01 -2.000000e-03
      vertex -1.900000e-01 1.900000e-01 -2.000000e-03
      vertex -2.000000e-01 -2.000000e-01 -2.000000e-03
    endloop
  endfacet
  facet normal -0.000000e+00 -0.000000e+00 -1.000000e+00
    outer loop
      vertex 1.900000e-01 -1.900000e-01 -2.000000e-03
      vertex 2.000000e-01 -2.000000e-01 -2.000000e-03
      vertex -2.000000e-01 -2.000000e-01 -2.000000e-03
    endloop
  endfacet
  facet normal -0.000000e+00 -0.000000e+00 -1.000000e+00
    outer loop
      vertex 1.900000e-01 -1.900000e-01 -2.000000e-03
      vertex 2.000000e-01 0.000000e+00 -2.000000e-03
      vertex 2.000000e-01 -2.000000e-01 -2.000000e-03
    endloop
  endfacet
  facet normal -0.000000e+00 -0.000000e+00 -1.000000e+00
    outer loop
      vertex 1.900000e-01 0.000000e+00 -2.000000e-03
      vertex 2.000000e-01 0.000000e+00 -2.000000e-03
      vertex 1.900000e-01 -1.900000e-01 -2.000000e-03
    endloop
  endfacet
  facet normal 0.000000e+00 1.000000e+00 0.000000e+00
    outer loop
      vertex 2.000000e-01 0.000000e+00 -2.000000e-03
      vertex 1.900000e-01 0.000000e+00 2.000000e-03
      vertex 2.000000e-01 0.000000e+00 2.000000e-03
    endloop
  endfacet
  facet normal 0.000000e+00 1.000000e+00 0.000000e+00
    outer loop
      vertex 1.900000e-01 0.000000e+00 -2.000000e-03
      vertex 1.900000e-01 0.000000e+00 2.000000e-03
      vertex 2.000000e-01 0.000000e+00 -2.000000e-03
    endloop
  endfacet
  facet normal -0.000000e+00 -1.000000e+00 -0.000000e+00
    outer loop
      vertex 1.000000e-01 0.000000e+00 -1.400000e-02
      vertex 9.000000e-02 0.000000e+00 2.000000e-03
      vertex 9.000000e-02 0.000000e+00 -1.800000e-02
    endloop
  endfacet
  facet normal -0.000000e+00 -1.000000e+00 -0.000000e+00
    outer loop
      vertex 1.000000e-01 0.000000e+00 2.000000e-03
      vertex 9.000000e-02 0.000000e+00 2.000000e-03
      vertex 1.000000e-01 0.000000e+00 -1.400000e-02
    endloop
  endfacet
  facet normal -0.000000e+00 -1.000000e+00 -0.000000e+00
    outer loop
      vertex 1.900000e-01 0.000000e+00 -1.800000e-02
      vertex 1.000000e-01 0.000000e+00 -1.400000e-02
      vertex 9.000000e-02 0.000000e+00 -1.800000e-02
    endloop
  endfacet
  facet normal -0.000000e+00 -1.000000e+00 -0.000000e+00
    outer loop
      vertex 1.900000e-01 0.000000e+00 -1.400000e-02
      vertex 1.000000e-01 0.000000e+00 -1.400000e-02
      vertex 1.900000e-01 0.000000e+00 -1.800000e-02
    endloop
  endfacet
  facet normal -0.000000e+00 -0.000000e+00 -1.000000e+00
    outer loop
      vertex 1.900000e-01 1.000000e-02 -1.800000e-02
      vertex 9.000000e-02 0.000000e+00 -1.800000e-02
      vertex 9.000000e-02 1.000000e-02 -1.800000e-02
    endloop
  endfacet
  facet normal -0.000000e+00 -0.000000e+00 -1.000000e+00
    outer loop
      vertex 1.900000e-01 0.000000e+00 -1.800000e-02
      vertex 9.000000e-02 0.000000e+00 -1.800000e-02
      vertex 1.900000e-01 1.000000e-02 -1.800000e-02
    endloop
  endfacet
  facet normal 1.000000e+00 0.000000e+00 0.000000e+00
    outer loop
      vertex 1.900000e-01 0.000000e+00 -1.800000e-02
      vertex 1.900000e-01 1.000000e-02 -1.400000e-02
      vertex 1.900000e-01 0.000000e+00 -1.400000e-02
    endloop
  endfacet
  facet normal 1.000000e+00 0.000000e+00 0.000000e+00
    outer loop
      vertex 1.900000e-01 1.000000e-02 -1.800000e-02
      vertex 1.900000e-01 1.000000e-02 -1.400000e-02
      vertex 1.900000e-01 0.000000e+00 -1.800000e-02
    endloop
  endfacet
endsolid default:import_1
