solid default:import_2
  facet normal 1.000000e+00 -0.000000e+00 -0.000000e+00
    outer loop
      vertex 2.000000e-01 1.000000e-02 -1.400000e-02
      vertex 2.000000e-01 0.000000e+00 -1.800000e-02
      vertex 2.000000e-01 1.000000e-02 -1.800000e-02
    endloop
  endfacet
  facet normal 1.000000e+00 -0.000000e+00 -0.000000e+00
    outer loop
      vertex 2.000000e-01 0.000000e+00 -1.400000e-02
      vertex 2.000000e-01 0.000000e+00 -1.800000e-02
      vertex 2.000000e-01 1.000000e-02 -1.400000e-02
    endloop
  endfacet
  facet normal -0.000000e+00 1.000000e+00 -0.000000e+00
    outer loop
      vertex 1.900000e-01 1.000000e-02 -1.400000e-02
      vertex 2.000000e-01 1.000000e-02 -1.800000e-02
      vertex 1.900000e-01 1.000000e-02 -1.800000e-02
    endloop
  endfacet
  facet normal -0.000000e+00 1.000000e+00 -0.000000e+00
    outer loop
      vertex 2.000000e-01 1.000000e-02 -1.400000e-02
      vertex 2.000000e-01 1.000000e-02 -1.800000e-02
      vertex 1.900000e-01 1.000000e-02 -1.400000e-02
    endloop
  endfacet
  facet normal -1.000000e+00 -0.000000e+00 -0.000000e+00
    outer loop
      vertex 1.900000e-01 0.000000e+00 -1.400000e-02
      vertex 1.900000e-01 1.000000e-02 -1.800000e-02
      vertex 1.900000e-01 0.000000e+00 -1.800000e-02
    endloop
  endfacet
  facet normal -1.000000e+00 -0.000000e+00 -0.000000e+00
    outer loop
      vertex 1.900000e-01 1.000000e-02 -1.400000e-02
      vertex 1.900000e-01 1.000000e-02 -1.800000e-02
      vertex 1.900000e-01 0.000000e+00 -1.400000e-02
    endloop
  endfacet
  facet normal -0.000000e+00 -1.000000e+00 -0.000000e+00
    outer loop
      vertex 2.000000e-01 0.000000e+00 -1.400000e-02
      vertex 1.900000e-01 0.000000e+00 -1.800000e-02
      vertex 2.000000e-01 0.000000e+00 -1.800000e-02
    endloop
  endfacet
  facet normal -0.000000e+00 -1.000000e+00 -0.000000e+00
    outer loop
      vertex 1.900000e-01 0.000000e+00 -1.400000e-02
      vertex 1.900000e-01 0.000000e+00 -1.800000e-02
      vertex 2.000000e-01 0.000000e+00 -1.400000e-02
    endloop
  endfacet
  facet normal -0.000000e+00 -0.000000e+00 -1.000000e+00
    outer loop
      vertex 2.000000e-01 1.000000e-02 -1.800000e-02
      vertex 1.900000e-01 0.000000e+00 -1.800000e-02
      vertex 1.900000e-01 1.000000e-02 -1.800000e-02
    endloop
  endfacet
  facet normal -0.000000e+00 -0.000000e+00 -1.000000e+00
    outer loop
      vertex 2.000000e-01 0.000000e+00 -1.800000e-02
      vertex 1.900000e-01 0.000000e+00 -1.800000e-02
      vertex 2.000000e-01 1.000000e-02 -1.800000e-02
    endloop
  endfacet
  facet normal 0.000000e+00 0.000000e+00 1.000000e+00
    outer loop
      vertex 2.000000e-01 0.000000e+00 -1.400000e-02
      vertex 1.900000e-01 1.000000e-02 -1.400000e-02
      vertex 1.900000e-01 0.000000e+00 -1.400000e-02
    endloop
  endfacet
  facet normal 0.000000e+00 0.000000e+00 1.000000e+00
    outer loop
      vertex 2.000000e-01 1.000000e-02 -1.400000e-02
      vertex 1.900000e-01 1.000000e-02 -1.400000e-02
      vertex 2.000000e-01 0.000000e+00 -1.400000e-02
    endloop
  endfacet
endsolid default:import_2
