solid COMSOL rendering object int1
facet normal -1 -0 -0
outer loop
vertex -6 -1.5 0.400000005960464
vertex -6 -0.25 0.400000005960464
vertex -6 -1.5 0.300000011920929
endloop
endfacet
facet normal -1 -0 -0
outer loop
vertex -6 -1.5 0.300000011920929
vertex -6 -0.25 0.400000005960464
vertex -6 -0.25 0.300000011920929
endloop
endfacet
facet normal 0 -1 0
outer loop
vertex -6 -1.5 0.400000005960464
vertex -6 -1.5 0.300000011920929
vertex -5.5 -1.5 0.400000005960464
endloop
endfacet
facet normal 0 -1 0
outer loop
vertex -6 -1.5 0.300000011920929
vertex -5.5 -1.5 0.300000011920929
vertex -5.5 -1.5 0.400000005960464
endloop
endfacet
facet normal -0 -0 -1
outer loop
vertex -6 -0.25 0.300000011920929
vertex -5.5 -1 0.300000011920929
vertex -6 -1.5 0.300000011920929
endloop
endfacet
facet normal -0 -0 -1
outer loop
vertex -6 -1.5 0.300000011920929
vertex -5.5 -1 0.300000011920929
vertex -5.5 -1.5 0.300000011920929
endloop
endfacet
facet normal -0 -0 -1
outer loop
vertex -6 -0.25 0.300000011920929
vertex -5.5 -0.25 0.300000011920929
vertex -5.5 -0.5 0.300000011920929
endloop
endfacet
facet normal -0 -0 -1
outer loop
vertex -6 -0.25 0.300000011920929
vertex -5.5 -0.5 0.300000011920929
vertex -5.5 -1 0.300000011920929
endloop
endfacet
facet normal -0 -0 -1
outer loop
vertex -5.5 -0.5 0.300000011920929
vertex -4.25 -0.5 0.300000011920929
vertex -5.5 -1 0.300000011920929
endloop
endfacet
facet normal -0 -0 -1
outer loop
vertex -5.5 -1 0.300000011920929
vertex -4.25 -0.5 0.300000011920929
vertex -4.25 -1 0.300000011920929
endloop
endfacet
facet normal 0 0 1
outer loop
vertex -6 -0.25 0.400000005960464
vertex -6 -1.5 0.400000005960464
vertex -5.5 -1 0.400000005960464
endloop
endfacet
facet normal 0 0 1
outer loop
vertex -6 -1.5 0.400000005960464
vertex -5.5 -1.5 0.400000005960464
vertex -5.5 -1 0.400000005960464
endloop
endfacet
facet normal 0 0 1
outer loop
vertex -6 -0.25 0.400000005960464
vertex -5.5 -0.5 0.400000005960464
vertex -5.5 -0.25 0.400000005960464
endloop
endfacet
facet normal 0 0 1
outer loop
vertex -6 -0.25 0.400000005960464
vertex -5.5 -1 0.400000005960464
vertex -5.5 -0.5 0.400000005960464
endloop
endfacet
facet normal 0 0 1
outer loop
vertex -5.5 -0.5 0.400000005960464
vertex -5.5 -1 0.400000005960464
vertex -4.25 -0.5 0.400000005960464
endloop
endfacet
facet normal 0 0 1
outer loop
vertex -5.5 -1 0.400000005960464
vertex -4.25 -1 0.400000005960464
vertex -4.25 -0.5 0.400000005960464
endloop
endfacet
facet normal 0 1 -0
outer loop
vertex -6 -0.25 0.300000011920929
vertex -6 -0.25 0.400000005960464
vertex -5.5 -0.25 0.400000005960464
endloop
endfacet
facet normal 0 1 -0
outer loop
vertex -5.5 -0.25 0.300000011920929
vertex -6 -0.25 0.300000011920929
vertex -5.5 -0.25 0.400000005960464
endloop
endfacet
facet normal -1 -0 -0
outer loop
vertex -6 0.75 0.400000005960464
vertex -6 1 0.400000005960464
vertex -6 0.75 0.300000011920929
endloop
endfacet
facet normal -1 -0 -0
outer loop
vertex -6 0.75 0.300000011920929
vertex -6 1 0.400000005960464
vertex -6 1 0.300000011920929
endloop
endfacet
facet normal -0 -1 0
outer loop
vertex -6 0.75 0.300000011920929
vertex -5.5 0.75 0.400000005960464
vertex -6 0.75 0.400000005960464
endloop
endfacet
facet normal -0 -1 0
outer loop
vertex -5.5 0.75 0.300000011920929
vertex -5.5 0.75 0.400000005960464
vertex -6 0.75 0.300000011920929
endloop
endfacet
facet normal -0 -0 -1
outer loop
vertex -6 1 0.300000011920929
vertex -5.5 1 0.300000011920929
vertex -6 0.75 0.300000011920929
endloop
endfacet
facet normal -0 -0 -1
outer loop
vertex -6 0.75 0.300000011920929
vertex -5.5 1 0.300000011920929
vertex -5.5 0.75 0.300000011920929
endloop
endfacet
facet normal 0 0 1
outer loop
vertex -6 1 0.400000005960464
vertex -6 0.75 0.400000005960464
vertex -5.5 1 0.400000005960464
endloop
endfacet
facet normal 0 0 1
outer loop
vertex -6 0.75 0.400000005960464
vertex -5.5 0.75 0.400000005960464
vertex -5.5 1 0.400000005960464
endloop
endfacet
facet normal -1 -0 -0
outer loop
vertex -6 1 0.400000005960464
vertex -6 2 0.400000005960464
vertex -6 1 0.300000011920929
endloop
endfacet
facet normal -1 -0 -0
outer loop
vertex -6 1 0.300000011920929
vertex -6 2 0.400000005960464
vertex -6 2 0.300000011920929
endloop
endfacet
facet normal -0 -0 -1
outer loop
vertex -4 1.5 0.300000011920929
vertex -3.5 2 0.300000011920929
vertex -3.5 1 0.300000011920929
endloop
endfacet
facet normal -0 -0 -1
outer loop
vertex -6 2 0.300000011920929
vertex -5.5 1.5 0.300000011920929
vertex -6 1 0.300000011920929
endloop
endfacet
facet normal -0 -0 -1
outer loop
vertex -6 1 0.300000011920929
vertex -5.5 1.5 0.300000011920929
vertex -5.5 1 0.300000011920929
endloop
endfacet
facet normal -0 -0 -1
outer loop
vertex -6 2 0.300000011920929
vertex -5.5 2 0.300000011920929
vertex -5.5 1.5 0.300000011920929
endloop
endfacet
facet normal -0 -0 -1
outer loop
vertex -4 1.5 0.300000011920929
vertex -3.5 1 0.300000011920929
vertex -5.5 1 0.300000011920929
endloop
endfacet
facet normal -0 -0 -1
outer loop
vertex -5.5 1.5 0.300000011920929
vertex -4 1.5 0.300000011920929
vertex -5.5 1 0.300000011920929
endloop
endfacet
facet normal -0 -0 -1
outer loop
vertex -4 2 0.300000011920929
vertex -3.5 2 0.300000011920929
vertex -4 1.5 0.300000011920929
endloop
endfacet
facet normal 0 0 1
outer loop
vertex -4 1.5 0.400000005960464
vertex -3.5 1 0.400000005960464
vertex -3.5 2 0.400000005960464
endloop
endfacet
facet normal 0 0 1
outer loop
vertex -6 2 0.400000005960464
vertex -6 1 0.400000005960464
vertex -5.5 1.5 0.400000005960464
endloop
endfacet
facet normal 0 0 1
outer loop
vertex -6 1 0.400000005960464
vertex -5.5 1 0.400000005960464
vertex -5.5 1.5 0.400000005960464
endloop
endfacet
facet normal 0 0 1
outer loop
vertex -6 2 0.400000005960464
vertex -5.5 1.5 0.400000005960464
vertex -5.5 2 0.400000005960464
endloop
endfacet
facet normal 0 0 1
outer loop
vertex -4 1.5 0.400000005960464
vertex -5.5 1 0.400000005960464
vertex -3.5 1 0.400000005960464
endloop
endfacet
facet normal 0 0 1
outer loop
vertex -5.5 1.5 0.400000005960464
vertex -5.5 1 0.400000005960464
vertex -4 1.5 0.400000005960464
endloop
endfacet
facet normal 0 0 1
outer loop
vertex -4 2 0.400000005960464
vertex -4 1.5 0.400000005960464
vertex -3.5 2 0.400000005960464
endloop
endfacet
facet normal -0 1 -0
outer loop
vertex -6 2 0.400000005960464
vertex -5.5 2 0.400000005960464
vertex -6 2 0.300000011920929
endloop
endfacet
facet normal -0 1 -0
outer loop
vertex -6 2 0.300000011920929
vertex -5.5 2 0.400000005960464
vertex -5.5 2 0.300000011920929
endloop
endfacet
facet normal 1 -0 -0
outer loop
vertex -5.5 -1.5 0.300000011920929
vertex -5.5 -1 0.400000005960464
vertex -5.5 -1.5 0.400000005960464
endloop
endfacet
facet normal 1 -0 -0
outer loop
vertex -5.5 -1 0.300000011920929
vertex -5.5 -1 0.400000005960464
vertex -5.5 -1.5 0.300000011920929
endloop
endfacet
facet normal -0 -1 0
outer loop
vertex -5.5 -1 0.300000011920929
vertex -4.25 -1 0.400000005960464
vertex -5.5 -1 0.400000005960464
endloop
endfacet
facet normal -0 -1 0
outer loop
vertex -4.25 -1 0.300000011920929
vertex -4.25 -1 0.400000005960464
vertex -5.5 -1 0.300000011920929
endloop
endfacet
facet normal 1 -0 -0
outer loop
vertex -5.5 -0.5 0.300000011920929
vertex -5.5 -0.25 0.400000005960464
vertex -5.5 -0.5 0.400000005960464
endloop
endfacet
facet normal 1 -0 -0
outer loop
vertex -5.5 -0.25 0.300000011920929
vertex -5.5 -0.25 0.400000005960464
vertex -5.5 -0.5 0.300000011920929
endloop
endfacet
facet normal -0 1 -0
outer loop
vertex -5.5 -0.5 0.400000005960464
vertex -4.25 -0.5 0.400000005960464
vertex -5.5 -0.5 0.300000011920929
endloop
endfacet
facet normal -0 1 -0
outer loop
vertex -5.5 -0.5 0.300000011920929
vertex -4.25 -0.5 0.400000005960464
vertex -4.25 -0.5 0.300000011920929
endloop
endfacet
facet normal 1 -0 -0
outer loop
vertex -5.5 0.75 0.300000011920929
vertex -5.5 1 0.400000005960464
vertex -5.5 0.75 0.400000005960464
endloop
endfacet
facet normal 1 -0 -0
outer loop
vertex -5.5 1 0.300000011920929
vertex -5.5 1 0.400000005960464
vertex -5.5 0.75 0.300000011920929
endloop
endfacet
facet normal 0 -1 0
outer loop
vertex -5.5 1 0.400000005960464
vertex -5.5 1 0.300000011920929
vertex -3.5 1 0.400000005960464
endloop
endfacet
facet normal 0 -1 0
outer loop
vertex -5.5 1 0.300000011920929
vertex -3.5 1 0.300000011920929
vertex -3.5 1 0.400000005960464
endloop
endfacet
facet normal 1 -0 -0
outer loop
vertex -5.5 1.5 0.300000011920929
vertex -5.5 2 0.400000005960464
vertex -5.5 1.5 0.400000005960464
endloop
endfacet
facet normal 1 -0 -0
outer loop
vertex -5.5 2 0.300000011920929
vertex -5.5 2 0.400000005960464
vertex -5.5 1.5 0.300000011920929
endloop
endfacet
facet normal -0 1 -0
outer loop
vertex -5.5 1.5 0.400000005960464
vertex -4 1.5 0.400000005960464
vertex -5.5 1.5 0.300000011920929
endloop
endfacet
facet normal -0 1 -0
outer loop
vertex -5.5 1.5 0.300000011920929
vertex -4 1.5 0.400000005960464
vertex -4 1.5 0.300000011920929
endloop
endfacet
facet normal -1 -0 -0
outer loop
vertex -4.25 -1.25 0.100000001490116
vertex -4.25 -0.25 0.100000001490116
vertex -4.25 -1.25 0
endloop
endfacet
facet normal -1 -0 -0
outer loop
vertex -4.25 -1.25 0
vertex -4.25 -0.25 0.100000001490116
vertex -4.25 -0.25 0
endloop
endfacet
facet normal -0 -1 0
outer loop
vertex -4.25 -1.25 0
vertex -3.25 -1.25 0.100000001490116
vertex -4.25 -1.25 0.100000001490116
endloop
endfacet
facet normal -0 -1 0
outer loop
vertex -3.25 -1.25 0
vertex -3.25 -1.25 0.100000001490116
vertex -4.25 -1.25 0
endloop
endfacet
facet normal -0 -0 -1
outer loop
vertex -4.25 -0.25 0
vertex -3.25 -0.5 0
vertex -4.25 -1.25 0
endloop
endfacet
facet normal -0 -0 -1
outer loop
vertex -4.25 -1.25 0
vertex -3.25 -1 0
vertex -3.25 -1.25 0
endloop
endfacet
facet normal -0 -0 -1
outer loop
vertex -4.25 -0.25 0
vertex -3.25 -0.25 0
vertex -3.25 -0.5 0
endloop
endfacet
facet normal -0 -0 -1
outer loop
vertex -4.25 -1.25 0
vertex -3.25 -0.5 0
vertex -3.25 -1 0
endloop
endfacet
facet normal -1 -0 -0
outer loop
vertex -4.25 -0.5 0.300000011920929
vertex -4.25 -0.25 0.300000011920929
vertex -4.25 -0.25 0.100000001490116
endloop
endfacet
facet normal -1 -0 -0
outer loop
vertex -4.25 -1.25 0.300000011920929
vertex -4.25 -1 0.300000011920929
vertex -4.25 -1.25 0.100000001490116
endloop
endfacet
facet normal -1 -0 -0
outer loop
vertex -4.25 -1 0.300000011920929
vertex -4.25 -0.25 0.100000001490116
vertex -4.25 -1.25 0.100000001490116
endloop
endfacet
facet normal -1 -0 -0
outer loop
vertex -4.25 -0.5 0.300000011920929
vertex -4.25 -0.25 0.100000001490116
vertex -4.25 -1 0.300000011920929
endloop
endfacet
facet normal -0 -1 0
outer loop
vertex -4.25 -1.25 0.100000001490116
vertex -3.25 -1.25 0.300000011920929
vertex -4.25 -1.25 0.300000011920929
endloop
endfacet
facet normal -0 -1 0
outer loop
vertex -3.25 -1.25 0.100000001490116
vertex -3.25 -1.25 0.300000011920929
vertex -4.25 -1.25 0.100000001490116
endloop
endfacet
facet normal -1 -0 -0
outer loop
vertex -4.25 -1.25 0.400000005960464
vertex -4.25 -1 0.400000005960464
vertex -4.25 -1.25 0.300000011920929
endloop
endfacet
facet normal -1 -0 -0
outer loop
vertex -4.25 -1.25 0.300000011920929
vertex -4.25 -1 0.400000005960464
vertex -4.25 -1 0.300000011920929
endloop
endfacet
facet normal -0 -1 0
outer loop
vertex -4.25 -1.25 0.300000011920929
vertex -3.25 -1.25 0.400000005960464
vertex -4.25 -1.25 0.400000005960464
endloop
endfacet
facet normal -0 -1 0
outer loop
vertex -3.25 -1.25 0.300000011920929
vertex -3.25 -1.25 0.400000005960464
vertex -4.25 -1.25 0.300000011920929
endloop
endfacet
facet normal 0 0 1
outer loop
vertex -4.25 -1 0.400000005960464
vertex -4.25 -1.25 0.400000005960464
vertex -3.25 -1.25 0.400000005960464
endloop
endfacet
facet normal 0 0 1
outer loop
vertex -4.25 -0.25 0.400000005960464
vertex -4.25 -0.5 0.400000005960464
vertex -3.25 -0.25 0.400000005960464
endloop
endfacet
facet normal 0 0 1
outer loop
vertex -4.25 -0.5 0.400000005960464
vertex -4.25 -1 0.400000005960464
vertex -3.25 -0.25 0.400000005960464
endloop
endfacet
facet normal 0 0 1
outer loop
vertex -4.25 -1 0.400000005960464
vertex -3.25 -1.25 0.400000005960464
vertex -3.25 -0.25 0.400000005960464
endloop
endfacet
facet normal -1 -0 -0
outer loop
vertex -4.25 -0.5 0.400000005960464
vertex -4.25 -0.25 0.400000005960464
vertex -4.25 -0.5 0.300000011920929
endloop
endfacet
facet normal -1 -0 -0
outer loop
vertex -4.25 -0.5 0.300000011920929
vertex -4.25 -0.25 0.400000005960464
vertex -4.25 -0.25 0.300000011920929
endloop
endfacet
facet normal -0 1 -0
outer loop
vertex -4.25 -0.25 0.100000001490116
vertex -3.25 -0.25 0.100000001490116
vertex -4.25 -0.25 0
endloop
endfacet
facet normal -0 1 -0
outer loop
vertex -4.25 -0.25 0
vertex -3.25 -0.25 0.100000001490116
vertex -3.25 -0.25 0
endloop
endfacet
facet normal -0 1 -0
outer loop
vertex -4.25 -0.25 0.300000011920929
vertex -3.25 -0.25 0.300000011920929
vertex -4.25 -0.25 0.100000001490116
endloop
endfacet
facet normal -0 1 -0
outer loop
vertex -4.25 -0.25 0.100000001490116
vertex -3.25 -0.25 0.300000011920929
vertex -3.25 -0.25 0.100000001490116
endloop
endfacet
facet normal -0 1 -0
outer loop
vertex -4.25 -0.25 0.400000005960464
vertex -3.25 -0.25 0.400000005960464
vertex -4.25 -0.25 0.300000011920929
endloop
endfacet
facet normal -0 1 -0
outer loop
vertex -4.25 -0.25 0.300000011920929
vertex -3.25 -0.25 0.400000005960464
vertex -3.25 -0.25 0.300000011920929
endloop
endfacet
facet normal -1 -0 -0
outer loop
vertex -4 1.5 0.400000005960464
vertex -4 2 0.400000005960464
vertex -4 1.5 0.300000011920929
endloop
endfacet
facet normal -1 -0 -0
outer loop
vertex -4 1.5 0.300000011920929
vertex -4 2 0.400000005960464
vertex -4 2 0.300000011920929
endloop
endfacet
facet normal -1 -0 -0
outer loop
vertex -4 2 0.400000005960464
vertex -4 3 0.400000005960464
vertex -4 2 0.300000011920929
endloop
endfacet
facet normal -1 -0 -0
outer loop
vertex -4 2 0.300000011920929
vertex -4 3 0.400000005960464
vertex -4 3 0.300000011920929
endloop
endfacet
facet normal -0 -0 -1
outer loop
vertex -4 3 0.300000011920929
vertex -3.5 3 0.300000011920929
vertex -4 2 0.300000011920929
endloop
endfacet
facet normal -0 -0 -1
outer loop
vertex -4 2 0.300000011920929
vertex -3.5 3 0.300000011920929
vertex -3.5 2 0.300000011920929
endloop
endfacet
facet normal 0 0 1
outer loop
vertex -4 3 0.400000005960464
vertex -4 2 0.400000005960464
vertex -3.5 3 0.400000005960464
endloop
endfacet
facet normal 0 0 1
outer loop
vertex -4 2 0.400000005960464
vertex -3.5 2 0.400000005960464
vertex -3.5 3 0.400000005960464
endloop
endfacet
facet normal -1 -0 -0
outer loop
vertex -4 3 0.400000005960464
vertex -4 3.5 0.400000005960464
vertex -4 3 0.300000011920929
endloop
endfacet
facet normal -1 -0 -0
outer loop
vertex -4 3 0.300000011920929
vertex -4 3.5 0.400000005960464
vertex -4 3.5 0.300000011920929
endloop
endfacet
facet normal -0 -0 -1
outer loop
vertex -4 3.5 0.300000011920929
vertex -3.5 3 0.300000011920929
vertex -4 3 0.300000011920929
endloop
endfacet
facet normal -0 -0 -1
outer loop
vertex -4 3.5 0.300000011920929
vertex -0.5 3.5 0.300000011920929
vertex -3.5 3 0.300000011920929
endloop
endfacet
facet normal -0 -0 -1
outer loop
vertex -3.5 3 0.300000011920929
vertex -0.5 3.5 0.300000011920929
vertex -0.5 3 0.300000011920929
endloop
endfacet
facet normal 0 0 1
outer loop
vertex -4 3.5 0.400000005960464
vertex -4 3 0.400000005960464
vertex -3.5 3 0.400000005960464
endloop
endfacet
facet normal 0 0 1
outer loop
vertex -4 3.5 0.400000005960464
vertex -3.5 3 0.400000005960464
vertex -0.5 3.5 0.400000005960464
endloop
endfacet
facet normal 0 0 1
outer loop
vertex -3.5 3 0.400000005960464
vertex -0.5 3 0.400000005960464
vertex -0.5 3.5 0.400000005960464
endloop
endfacet
facet normal -0 1 -0
outer loop
vertex -4 3.5 0.400000005960464
vertex -0.5 3.5 0.400000005960464
vertex -4 3.5 0.300000011920929
endloop
endfacet
facet normal -0 1 -0
outer loop
vertex -4 3.5 0.300000011920929
vertex -0.5 3.5 0.400000005960464
vertex -0.5 3.5 0.300000011920929
endloop
endfacet
facet normal 1 -0 -0
outer loop
vertex -3.5 1 0.300000011920929
vertex -3.5 2 0.400000005960464
vertex -3.5 1 0.400000005960464
endloop
endfacet
facet normal 1 -0 -0
outer loop
vertex -3.5 2 0.300000011920929
vertex -3.5 2 0.400000005960464
vertex -3.5 1 0.300000011920929
endloop
endfacet
facet normal 1 -0 -0
outer loop
vertex -3.5 2 0.300000011920929
vertex -3.5 3 0.400000005960464
vertex -3.5 2 0.400000005960464
endloop
endfacet
facet normal 1 -0 -0
outer loop
vertex -3.5 3 0.300000011920929
vertex -3.5 3 0.400000005960464
vertex -3.5 2 0.300000011920929
endloop
endfacet
facet normal 0 -1 0
outer loop
vertex -3.5 3 0.400000005960464
vertex -3.5 3 0.300000011920929
vertex -0.5 3 0.400000005960464
endloop
endfacet
facet normal 0 -1 0
outer loop
vertex -3.5 3 0.300000011920929
vertex -0.5 3 0.300000011920929
vertex -0.5 3 0.400000005960464
endloop
endfacet
facet normal 1 -0 -0
outer loop
vertex -3.25 -1.25 0
vertex -3.25 -1 0.100000001490116
vertex -3.25 -1.25 0.100000001490116
endloop
endfacet
facet normal 1 -0 -0
outer loop
vertex -3.25 -1 0
vertex -3.25 -1 0.100000001490116
vertex -3.25 -1.25 0
endloop
endfacet
facet normal 1 -0 -0
outer loop
vertex -3.25 -1.25 0.100000001490116
vertex -3.25 -1 0.300000011920929
vertex -3.25 -1.25 0.300000011920929
endloop
endfacet
facet normal 1 -0 -0
outer loop
vertex -3.25 -1 0.100000001490116
vertex -3.25 -1 0.300000011920929
vertex -3.25 -1.25 0.100000001490116
endloop
endfacet
facet normal 1 -0 -0
outer loop
vertex -3.25 -0.25 0.300000011920929
vertex -3.25 -0.25 0.400000005960464
vertex -3.25 -0.5 0.300000011920929
endloop
endfacet
facet normal 1 -0 -0
outer loop
vertex -3.25 -1.25 0.300000011920929
vertex -3.25 -1 0.300000011920929
vertex -3.25 -1.25 0.400000005960464
endloop
endfacet
facet normal 1 -0 -0
outer loop
vertex -3.25 -0.25 0.400000005960464
vertex -3.25 -1.25 0.400000005960464
vertex -3.25 -1 0.300000011920929
endloop
endfacet
facet normal 1 -0 -0
outer loop
vertex -3.25 -0.25 0.400000005960464
vertex -3.25 -1 0.300000011920929
vertex -3.25 -0.5 0.300000011920929
endloop
endfacet
facet normal -0 -1 0
outer loop
vertex -3.25 -1 0
vertex -1.25 -1 0.100000001490116
vertex -3.25 -1 0.100000001490116
endloop
endfacet
facet normal -0 -1 0
outer loop
vertex -1.25 -1 0
vertex -1.25 -1 0.100000001490116
vertex -3.25 -1 0
endloop
endfacet
facet normal -0 -0 -1
outer loop
vertex -3.25 -0.5 0
vertex -1.25 -0.5 0
vertex -3.25 -1 0
endloop
endfacet
facet normal -0 -0 -1
outer loop
vertex -3.25 -1 0
vertex -1.25 -0.5 0
vertex -1.25 -1 0
endloop
endfacet
facet normal 1 0 0
outer loop
vertex -3.25 -1 0.300000011920929
vertex -3.25 -1 0.100000001490116
vertex -3.25 -0.5 0.300000011920929
endloop
endfacet
facet normal 1 0 0
outer loop
vertex -3.25 -1 0.100000001490116
vertex -3.25 -0.5 0.100000001490116
vertex -3.25 -0.5 0.300000011920929
endloop
endfacet
facet normal 0 0 1
outer loop
vertex -3.25 -0.5 0.100000001490116
vertex -3.25 -1 0.100000001490116
vertex -1.25 -0.5 0.100000001490116
endloop
endfacet
facet normal 0 0 1
outer loop
vertex -3.25 -1 0.100000001490116
vertex -1.25 -1 0.100000001490116
vertex -1.25 -0.5 0.100000001490116
endloop
endfacet
facet normal 1 -0 -0
outer loop
vertex -3.25 -0.5 0
vertex -3.25 -0.25 0.100000001490116
vertex -3.25 -0.5 0.100000001490116
endloop
endfacet
facet normal 1 -0 -0
outer loop
vertex -3.25 -0.25 0
vertex -3.25 -0.25 0.100000001490116
vertex -3.25 -0.5 0
endloop
endfacet
facet normal -0 1 -0
outer loop
vertex -3.25 -0.5 0.100000001490116
vertex -1.25 -0.5 0.100000001490116
vertex -3.25 -0.5 0
endloop
endfacet
facet normal -0 1 -0
outer loop
vertex -3.25 -0.5 0
vertex -1.25 -0.5 0.100000001490116
vertex -1.25 -0.5 0
endloop
endfacet
facet normal 1 -0 -0
outer loop
vertex -3.25 -0.5 0.100000001490116
vertex -3.25 -0.25 0.300000011920929
vertex -3.25 -0.5 0.300000011920929
endloop
endfacet
facet normal 1 -0 -0
outer loop
vertex -3.25 -0.25 0.100000001490116
vertex -3.25 -0.25 0.300000011920929
vertex -3.25 -0.5 0.100000001490116
endloop
endfacet
facet normal -1 -0 -0
outer loop
vertex -3 -4 0.400000005960464
vertex -3 -3.5 0.400000005960464
vertex -3 -4 0.300000011920929
endloop
endfacet
facet normal -1 -0 -0
outer loop
vertex -3 -4 0.300000011920929
vertex -3 -3.5 0.400000005960464
vertex -3 -3.5 0.300000011920929
endloop
endfacet
facet normal -0 -1 0
outer loop
vertex -3 -4 0.300000011920929
vertex -0.5 -4 0.400000005960464
vertex -3 -4 0.400000005960464
endloop
endfacet
facet normal -0 -1 0
outer loop
vertex -0.5 -4 0.300000011920929
vertex -0.5 -4 0.400000005960464
vertex -3 -4 0.300000011920929
endloop
endfacet
facet normal -0 -0 -1
outer loop
vertex -2.5 -3.5 0.300000011920929
vertex -0.5 -4 0.300000011920929
vertex -3 -4 0.300000011920929
endloop
endfacet
facet normal -0 -0 -1
outer loop
vertex -2.5 -3.5 0.300000011920929
vertex -0.5 -3.5 0.300000011920929
vertex -0.5 -4 0.300000011920929
endloop
endfacet
facet normal -0 -0 -1
outer loop
vertex -3 -3.5 0.300000011920929
vertex -2.5 -3.5 0.300000011920929
vertex -3 -4 0.300000011920929
endloop
endfacet
facet normal 0 0 1
outer loop
vertex -2.5 -3.5 0.400000005960464
vertex -3 -4 0.400000005960464
vertex -0.5 -4 0.400000005960464
endloop
endfacet
facet normal 0 0 1
outer loop
vertex -2.5 -3.5 0.400000005960464
vertex -0.5 -4 0.400000005960464
vertex -0.5 -3.5 0.400000005960464
endloop
endfacet
facet normal 0 0 1
outer loop
vertex -3 -3.5 0.400000005960464
vertex -3 -4 0.400000005960464
vertex -2.5 -3.5 0.400000005960464
endloop
endfacet
facet normal -1 -0 -0
outer loop
vertex -3 -3.5 0.400000005960464
vertex -3 -2.5 0.400000005960464
vertex -3 -3.5 0.300000011920929
endloop
endfacet
facet normal -1 -0 -0
outer loop
vertex -3 -3.5 0.300000011920929
vertex -3 -2.5 0.400000005960464
vertex -3 -2.5 0.300000011920929
endloop
endfacet
facet normal -0 -0 -1
outer loop
vertex -3 -2.5 0.300000011920929
vertex -2.5 -2.5 0.300000011920929
vertex -3 -3.5 0.300000011920929
endloop
endfacet
facet normal -0 -0 -1
outer loop
vertex -3 -3.5 0.300000011920929
vertex -2.5 -2.5 0.300000011920929
vertex -2.5 -3.5 0.300000011920929
endloop
endfacet
facet normal 0 0 1
outer loop
vertex -3 -2.5 0.400000005960464
vertex -3 -3.5 0.400000005960464
vertex -2.5 -2.5 0.400000005960464
endloop
endfacet
facet normal 0 0 1
outer loop
vertex -3 -3.5 0.400000005960464
vertex -2.5 -3.5 0.400000005960464
vertex -2.5 -2.5 0.400000005960464
endloop
endfacet
facet normal -1 -0 -0
outer loop
vertex -3 -2.5 0.400000005960464
vertex -3 -1.5 0.400000005960464
vertex -3 -2.5 0.300000011920929
endloop
endfacet
facet normal -1 -0 -0
outer loop
vertex -3 -2.5 0.300000011920929
vertex -3 -1.5 0.400000005960464
vertex -3 -1.5 0.300000011920929
endloop
endfacet
facet normal -0 -0 -1
outer loop
vertex -3 -1.5 0.300000011920929
vertex -2.5 -1.5 0.300000011920929
vertex -3 -2.5 0.300000011920929
endloop
endfacet
facet normal -0 -0 -1
outer loop
vertex -3 -2.5 0.300000011920929
vertex -2.5 -1.5 0.300000011920929
vertex -2.5 -2.5 0.300000011920929
endloop
endfacet
facet normal 0 0 1
outer loop
vertex -3 -1.5 0.400000005960464
vertex -3 -2.5 0.400000005960464
vertex -2.5 -1.5 0.400000005960464
endloop
endfacet
facet normal 0 0 1
outer loop
vertex -3 -2.5 0.400000005960464
vertex -2.5 -2.5 0.400000005960464
vertex -2.5 -1.5 0.400000005960464
endloop
endfacet
facet normal -1 -0 -0
outer loop
vertex -3 -1.5 0.400000005960464
vertex -3 3.01841884819964e-16 0.400000005960464
vertex -3 -1.5 0.300000011920929
endloop
endfacet
facet normal -1 -0 -0
outer loop
vertex -3 -1.5 0.300000011920929
vertex -3 3.01841884819964e-16 0.400000005960464
vertex -3 3.01841884819964e-16 0.300000011920929
endloop
endfacet
facet normal -0 -0 -1
outer loop
vertex -3 3.01841884819964e-16 0.300000011920929
vertex -2.5 -3.01841884819964e-16 0.300000011920929
vertex -3 -1.5 0.300000011920929
endloop
endfacet
facet normal -0 -0 -1
outer loop
vertex -3 -1.5 0.300000011920929
vertex -2.5 -3.01841884819964e-16 0.300000011920929
vertex -2.5 -1.5 0.300000011920929
endloop
endfacet
facet normal 0 0 1
outer loop
vertex -3 3.01841884819964e-16 0.400000005960464
vertex -3 -1.5 0.400000005960464
vertex -2.5 -3.01841884819964e-16 0.400000005960464
endloop
endfacet
facet normal 0 0 1
outer loop
vertex -3 -1.5 0.400000005960464
vertex -2.5 -1.5 0.400000005960464
vertex -2.5 -3.01841884819964e-16 0.400000005960464
endloop
endfacet
facet normal -1 -0 -0
outer loop
vertex -3 3.01841884819964e-16 0.400000005960464
vertex -3 1 0.400000005960464
vertex -3 3.01841884819964e-16 0.300000011920929
endloop
endfacet
facet normal -1 -0 -0
outer loop
vertex -3 3.01841884819964e-16 0.300000011920929
vertex -3 1 0.400000005960464
vertex -3 1 0.300000011920929
endloop
endfacet
facet normal -0 -0 -1
outer loop
vertex -3 1 0.300000011920929
vertex -2.5 1 0.300000011920929
vertex -3 3.01841884819964e-16 0.300000011920929
endloop
endfacet
facet normal -0 -0 -1
outer loop
vertex -3 3.01841884819964e-16 0.300000011920929
vertex -2.5 1 0.300000011920929
vertex -2.5 -3.01841884819964e-16 0.300000011920929
endloop
endfacet
facet normal 0 0 1
outer loop
vertex -3 1 0.400000005960464
vertex -3 3.01841884819964e-16 0.400000005960464
vertex -2.5 1 0.400000005960464
endloop
endfacet
facet normal 0 0 1
outer loop
vertex -3 3.01841884819964e-16 0.400000005960464
vertex -2.5 -3.01841884819964e-16 0.400000005960464
vertex -2.5 1 0.400000005960464
endloop
endfacet
facet normal -1 -0 -0
outer loop
vertex -3 1 0.400000005960464
vertex -3 2 0.400000005960464
vertex -3 1 0.300000011920929
endloop
endfacet
facet normal -1 -0 -0
outer loop
vertex -3 1 0.300000011920929
vertex -3 2 0.400000005960464
vertex -3 2 0.300000011920929
endloop
endfacet
facet normal -0 -0 -1
outer loop
vertex -3 2 0.300000011920929
vertex -2.5 2 0.300000011920929
vertex -3 1 0.300000011920929
endloop
endfacet
facet normal -0 -0 -1
outer loop
vertex -3 1 0.300000011920929
vertex -2.5 2 0.300000011920929
vertex -2.5 1 0.300000011920929
endloop
endfacet
facet normal 0 0 1
outer loop
vertex -3 2 0.400000005960464
vertex -3 1 0.400000005960464
vertex -2.5 2 0.400000005960464
endloop
endfacet
facet normal 0 0 1
outer loop
vertex -3 1 0.400000005960464
vertex -2.5 1 0.400000005960464
vertex -2.5 2 0.400000005960464
endloop
endfacet
facet normal -1 -0 -0
outer loop
vertex -3 2 0.400000005960464
vertex -3 2.5 0.400000005960464
vertex -3 2 0.300000011920929
endloop
endfacet
facet normal -1 -0 -0
outer loop
vertex -3 2 0.300000011920929
vertex -3 2.5 0.400000005960464
vertex -3 2.5 0.300000011920929
endloop
endfacet
facet normal -0 -0 -1
outer loop
vertex -3 2.5 0.300000011920929
vertex -2.5 2 0.300000011920929
vertex -3 2 0.300000011920929
endloop
endfacet
facet normal -0 -0 -1
outer loop
vertex -3 2.5 0.300000011920929
vertex -0.5 2.5 0.300000011920929
vertex -2.5 2 0.300000011920929
endloop
endfacet
facet normal -0 -0 -1
outer loop
vertex -2.5 2 0.300000011920929
vertex -0.5 2.5 0.300000011920929
vertex -0.5 2 0.300000011920929
endloop
endfacet
facet normal 0 0 1
outer loop
vertex -3 2.5 0.400000005960464
vertex -3 2 0.400000005960464
vertex -2.5 2 0.400000005960464
endloop
endfacet
facet normal 0 0 1
outer loop
vertex -3 2.5 0.400000005960464
vertex -2.5 2 0.400000005960464
vertex -0.5 2.5 0.400000005960464
endloop
endfacet
facet normal 0 0 1
outer loop
vertex -2.5 2 0.400000005960464
vertex -0.5 2 0.400000005960464
vertex -0.5 2.5 0.400000005960464
endloop
endfacet
facet normal -0 1 -0
outer loop
vertex -3 2.5 0.400000005960464
vertex -0.5 2.5 0.400000005960464
vertex -3 2.5 0.300000011920929
endloop
endfacet
facet normal -0 1 -0
outer loop
vertex -3 2.5 0.300000011920929
vertex -0.5 2.5 0.400000005960464
vertex -0.5 2.5 0.300000011920929
endloop
endfacet
facet normal 1 -0 -0
outer loop
vertex -2.5 -3.5 0.300000011920929
vertex -2.5 -2.5 0.400000005960464
vertex -2.5 -3.5 0.400000005960464
endloop
endfacet
facet normal 1 -0 -0
outer loop
vertex -2.5 -2.5 0.300000011920929
vertex -2.5 -2.5 0.400000005960464
vertex -2.5 -3.5 0.300000011920929
endloop
endfacet
facet normal -0 1 -0
outer loop
vertex -2.5 -3.5 0.400000005960464
vertex -0.5 -3.5 0.400000005960464
vertex -2.5 -3.5 0.300000011920929
endloop
endfacet
facet normal -0 1 -0
outer loop
vertex -2.5 -3.5 0.300000011920929
vertex -0.5 -3.5 0.400000005960464
vertex -0.5 -3.5 0.300000011920929
endloop
endfacet
facet normal 1 -0 -0
outer loop
vertex -2.5 -2.5 0.300000011920929
vertex -2.5 -1.5 0.400000005960464
vertex -2.5 -2.5 0.400000005960464
endloop
endfacet
facet normal 1 -0 -0
outer loop
vertex -2.5 -1.5 0.300000011920929
vertex -2.5 -1.5 0.400000005960464
vertex -2.5 -2.5 0.300000011920929
endloop
endfacet
facet normal 1 -0 -0
outer loop
vertex -2.5 -1.5 0.300000011920929
vertex -2.5 -3.01841884819964e-16 0.400000005960464
vertex -2.5 -1.5 0.400000005960464
endloop
endfacet
facet normal 1 -0 -0
outer loop
vertex -2.5 -3.01841884819964e-16 0.300000011920929
vertex -2.5 -3.01841884819964e-16 0.400000005960464
vertex -2.5 -1.5 0.300000011920929
endloop
endfacet
facet normal 1 -0 -0
outer loop
vertex -2.5 -3.01841884819964e-16 0.300000011920929
vertex -2.5 1 0.400000005960464
vertex -2.5 -3.01841884819964e-16 0.400000005960464
endloop
endfacet
facet normal 1 -0 -0
outer loop
vertex -2.5 1 0.300000011920929
vertex -2.5 1 0.400000005960464
vertex -2.5 -3.01841884819964e-16 0.300000011920929
endloop
endfacet
facet normal 1 -0 -0
outer loop
vertex -2.5 1 0.300000011920929
vertex -2.5 2 0.400000005960464
vertex -2.5 1 0.400000005960464
endloop
endfacet
facet normal 1 -0 -0
outer loop
vertex -2.5 2 0.300000011920929
vertex -2.5 2 0.400000005960464
vertex -2.5 1 0.300000011920929
endloop
endfacet
facet normal 0 -1 0
outer loop
vertex -2.5 2 0.400000005960464
vertex -2.5 2 0.300000011920929
vertex -0.5 2 0.400000005960464
endloop
endfacet
facet normal 0 -1 0
outer loop
vertex -2.5 2 0.300000011920929
vertex -0.5 2 0.300000011920929
vertex -0.5 2 0.400000005960464
endloop
endfacet
facet normal -1 -0 -0
outer loop
vertex -2 -3 0.400000005960464
vertex -2 -2.5 0.400000005960464
vertex -2 -3 0.300000011920929
endloop
endfacet
facet normal -1 -0 -0
outer loop
vertex -2 -3 0.300000011920929
vertex -2 -2.5 0.400000005960464
vertex -2 -2.5 0.300000011920929
endloop
endfacet
facet normal -0 -1 0
outer loop
vertex -2 -3 0.300000011920929
vertex -0.5 -3 0.400000005960464
vertex -2 -3 0.400000005960464
endloop
endfacet
facet normal -0 -1 0
outer loop
vertex -0.5 -3 0.300000011920929
vertex -0.5 -3 0.400000005960464
vertex -2 -3 0.300000011920929
endloop
endfacet
facet normal -0 -0 -1
outer loop
vertex -1.5 -2.5 0.300000011920929
vertex -0.5 -3 0.300000011920929
vertex -2 -3 0.300000011920929
endloop
endfacet
facet normal -0 -0 -1
outer loop
vertex -1.5 -2.5 0.300000011920929
vertex -0.5 -2.5 0.300000011920929
vertex -0.5 -3 0.300000011920929
endloop
endfacet
facet normal -0 -0 -1
outer loop
vertex -2 -2.5 0.300000011920929
vertex -1.5 -2.5 0.300000011920929
vertex -2 -3 0.300000011920929
endloop
endfacet
facet normal 0 0 1
outer loop
vertex -1.5 -2.5 0.400000005960464
vertex -2 -3 0.400000005960464
vertex -0.5 -3 0.400000005960464
endloop
endfacet
facet normal 0 0 1
outer loop
vertex -1.5 -2.5 0.400000005960464
vertex -0.5 -3 0.400000005960464
vertex -0.5 -2.5 0.400000005960464
endloop
endfacet
facet normal 0 0 1
outer loop
vertex -2 -2.5 0.400000005960464
vertex -2 -3 0.400000005960464
vertex -1.5 -2.5 0.400000005960464
endloop
endfacet
facet normal -1 -0 -0
outer loop
vertex -2 -2.5 0.400000005960464
vertex -2 -2 0.400000005960464
vertex -2 -2.5 0.300000011920929
endloop
endfacet
facet normal -1 -0 -0
outer loop
vertex -2 -2.5 0.300000011920929
vertex -2 -2 0.400000005960464
vertex -2 -2 0.300000011920929
endloop
endfacet
facet normal -0 -0 -1
outer loop
vertex -2 -2 0.300000011920929
vertex -1.5 -2 0.300000011920929
vertex -2 -2.5 0.300000011920929
endloop
endfacet
facet normal -0 -0 -1
outer loop
vertex -2 -2.5 0.300000011920929
vertex -1.5 -2 0.300000011920929
vertex -1.5 -2.5 0.300000011920929
endloop
endfacet
facet normal -0 -0 -1
outer loop
vertex -2 -1.5 0.300000011920929
vertex -1.5 -1.5 0.300000011920929
vertex -2 -2 0.300000011920929
endloop
endfacet
facet normal -0 -0 -1
outer loop
vertex -2 -2 0.300000011920929
vertex -1.5 -1.5 0.300000011920929
vertex -1.5 -2 0.300000011920929
endloop
endfacet
facet normal 0 0 1
outer loop
vertex -2 -2 0.400000005960464
vertex -2 -2.5 0.400000005960464
vertex -1.5 -2 0.400000005960464
endloop
endfacet
facet normal 0 0 1
outer loop
vertex -2 -2.5 0.400000005960464
vertex -1.5 -2.5 0.400000005960464
vertex -1.5 -2 0.400000005960464
endloop
endfacet
facet normal 0 0 1
outer loop
vertex -2 -1.5 0.400000005960464
vertex -2 -2 0.400000005960464
vertex -1.5 -1.5 0.400000005960464
endloop
endfacet
facet normal 0 0 1
outer loop
vertex -2 -2 0.400000005960464
vertex -1.5 -2 0.400000005960464
vertex -1.5 -1.5 0.400000005960464
endloop
endfacet
facet normal -1 -0 -0
outer loop
vertex -2 -2 0.400000005960464
vertex -2 -1.5 0.400000005960464
vertex -2 -2 0.300000011920929
endloop
endfacet
facet normal -1 -0 -0
outer loop
vertex -2 -2 0.300000011920929
vertex -2 -1.5 0.400000005960464
vertex -2 -1.5 0.300000011920929
endloop
endfacet
facet normal -1 -0 -0
outer loop
vertex -2 -1.5 0.400000005960464
vertex -2 0 0.400000005960464
vertex -2 -1.5 0.300000011920929
endloop
endfacet
facet normal -1 -0 -0
outer loop
vertex -2 -1.5 0.300000011920929
vertex -2 0 0.400000005960464
vertex -2 0 0.300000011920929
endloop
endfacet
facet normal -0 -0 -1
outer loop
vertex -2 0 0.300000011920929
vertex -1.5 7.54604712049911e-17 0.300000011920929
vertex -2 -1.5 0.300000011920929
endloop
endfacet
facet normal -0 -0 -1
outer loop
vertex -2 -1.5 0.300000011920929
vertex -1.5 7.54604712049911e-17 0.300000011920929
vertex -1.5 -1.5 0.300000011920929
endloop
endfacet
facet normal 0 0 1
outer loop
vertex -2 0 0.400000005960464
vertex -2 -1.5 0.400000005960464
vertex -1.5 7.54604712049911e-17 0.400000005960464
endloop
endfacet
facet normal 0 0 1
outer loop
vertex -2 -1.5 0.400000005960464
vertex -1.5 -1.5 0.400000005960464
vertex -1.5 7.54604712049911e-17 0.400000005960464
endloop
endfacet
facet normal -1 -0 -0
outer loop
vertex -2 0 0.400000005960464
vertex -2 1 0.400000005960464
vertex -2 0 0.300000011920929
endloop
endfacet
facet normal -1 -0 -0
outer loop
vertex -2 0 0.300000011920929
vertex -2 1 0.400000005960464
vertex -2 1 0.300000011920929
endloop
endfacet
facet normal -0 -0 -1
outer loop
vertex -2 1 0.300000011920929
vertex -1.5 1 0.300000011920929
vertex -2 0 0.300000011920929
endloop
endfacet
facet normal -0 -0 -1
outer loop
vertex -2 0 0.300000011920929
vertex -1.5 1 0.300000011920929
vertex -1.5 7.54604712049911e-17 0.300000011920929
endloop
endfacet
facet normal 0 0 1
outer loop
vertex -2 1 0.400000005960464
vertex -2 0 0.400000005960464
vertex -1.5 1 0.400000005960464
endloop
endfacet
facet normal 0 0 1
outer loop
vertex -2 0 0.400000005960464
vertex -1.5 7.54604712049911e-17 0.400000005960464
vertex -1.5 1 0.400000005960464
endloop
endfacet
facet normal -1 -0 -0
outer loop
vertex -2 1 0.400000005960464
vertex -2 1.5 0.400000005960464
vertex -2 1 0.300000011920929
endloop
endfacet
facet normal -1 -0 -0
outer loop
vertex -2 1 0.300000011920929
vertex -2 1.5 0.400000005960464
vertex -2 1.5 0.300000011920929
endloop
endfacet
facet normal -0 -0 -1
outer loop
vertex -2 1.5 0.300000011920929
vertex -1.5 1 0.300000011920929
vertex -2 1 0.300000011920929
endloop
endfacet
facet normal -0 -0 -1
outer loop
vertex -2 1.5 0.300000011920929
vertex -0.5 1.5 0.300000011920929
vertex -1.5 1 0.300000011920929
endloop
endfacet
facet normal -0 -0 -1
outer loop
vertex -1.5 1 0.300000011920929
vertex -0.5 1.5 0.300000011920929
vertex -0.5 1 0.300000011920929
endloop
endfacet
facet normal 0 0 1
outer loop
vertex -2 1.5 0.400000005960464
vertex -2 1 0.400000005960464
vertex -1.5 1 0.400000005960464
endloop
endfacet
facet normal 0 0 1
outer loop
vertex -2 1.5 0.400000005960464
vertex -1.5 1 0.400000005960464
vertex -0.5 1.5 0.400000005960464
endloop
endfacet
facet normal 0 0 1
outer loop
vertex -1.5 1 0.400000005960464
vertex -0.5 1 0.400000005960464
vertex -0.5 1.5 0.400000005960464
endloop
endfacet
facet normal -0 1 -0
outer loop
vertex -2 1.5 0.400000005960464
vertex -0.5 1.5 0.400000005960464
vertex -2 1.5 0.300000011920929
endloop
endfacet
facet normal -0 1 -0
outer loop
vertex -2 1.5 0.300000011920929
vertex -0.5 1.5 0.400000005960464
vertex -0.5 1.5 0.300000011920929
endloop
endfacet
facet normal 1 -0 -0
outer loop
vertex -1.5 -2.5 0.300000011920929
vertex -1.5 -2 0.400000005960464
vertex -1.5 -2.5 0.400000005960464
endloop
endfacet
facet normal 1 -0 -0
outer loop
vertex -1.5 -2 0.300000011920929
vertex -1.5 -2 0.400000005960464
vertex -1.5 -2.5 0.300000011920929
endloop
endfacet
facet normal -0 1 -0
outer loop
vertex -1.5 -2.5 0.400000005960464
vertex -0.5 -2.5 0.400000005960464
vertex -1.5 -2.5 0.300000011920929
endloop
endfacet
facet normal -0 1 -0
outer loop
vertex -1.5 -2.5 0.300000011920929
vertex -0.5 -2.5 0.400000005960464
vertex -0.5 -2.5 0.300000011920929
endloop
endfacet
facet normal 1 -0 -0
outer loop
vertex -1.5 -2 0.300000011920929
vertex -1.5 -1.5 0.400000005960464
vertex -1.5 -2 0.400000005960464
endloop
endfacet
facet normal 1 -0 -0
outer loop
vertex -1.5 -1.5 0.300000011920929
vertex -1.5 -1.5 0.400000005960464
vertex -1.5 -2 0.300000011920929
endloop
endfacet
facet normal 1 -0 -0
outer loop
vertex -1.5 -1.5 0.300000011920929
vertex -1.5 7.54604712049911e-17 0.400000005960464
vertex -1.5 -1.5 0.400000005960464
endloop
endfacet
facet normal 1 -0 -0
outer loop
vertex -1.5 7.54604712049911e-17 0.300000011920929
vertex -1.5 7.54604712049911e-17 0.400000005960464
vertex -1.5 -1.5 0.300000011920929
endloop
endfacet
facet normal 1 -0 -0
outer loop
vertex -1.5 7.54604712049911e-17 0.300000011920929
vertex -1.5 1 0.400000005960464
vertex -1.5 7.54604712049911e-17 0.400000005960464
endloop
endfacet
facet normal 1 -0 -0
outer loop
vertex -1.5 1 0.300000011920929
vertex -1.5 1 0.400000005960464
vertex -1.5 7.54604712049911e-17 0.300000011920929
endloop
endfacet
facet normal 0 -1 0
outer loop
vertex -1.5 1 0.400000005960464
vertex -1.5 1 0.300000011920929
vertex -0.5 1 0.400000005960464
endloop
endfacet
facet normal 0 -1 0
outer loop
vertex -1.5 1 0.300000011920929
vertex -0.5 1 0.300000011920929
vertex -0.5 1 0.400000005960464
endloop
endfacet
facet normal -1 -0 -0
outer loop
vertex -1.25 -1.25 0.100000001490116
vertex -1.25 -1 0.100000001490116
vertex -1.25 -1.25 0
endloop
endfacet
facet normal -1 -0 -0
outer loop
vertex -1.25 -1.25 0
vertex -1.25 -1 0.100000001490116
vertex -1.25 -1 0
endloop
endfacet
facet normal -0 -1 0
outer loop
vertex -1.25 -1.25 0
vertex -0.25 -1.25 0.100000001490116
vertex -1.25 -1.25 0.100000001490116
endloop
endfacet
facet normal -0 -1 0
outer loop
vertex -0.25 -1.25 0
vertex -0.25 -1.25 0.100000001490116
vertex -1.25 -1.25 0
endloop
endfacet
facet normal -0 -0 -1
outer loop
vertex -1.25 -1 0
vertex -0.25 -1.25 0
vertex -1.25 -1.25 0
endloop
endfacet
facet normal -0 -0 -1
outer loop
vertex -1.25 -0.25 0
vertex -0.25 -0.25 0
vertex -1.25 -0.5 0
endloop
endfacet
facet normal -0 -0 -1
outer loop
vertex -1.25 -0.5 0
vertex -0.25 -0.25 0
vertex -1.25 -1 0
endloop
endfacet
facet normal -0 -0 -1
outer loop
vertex -1.25 -1 0
vertex -0.25 -0.25 0
vertex -0.25 -1.25 0
endloop
endfacet
facet normal -1 -0 -0
outer loop
vertex -1.25 -1.25 0.300000011920929
vertex -1.25 -1 0.300000011920929
vertex -1.25 -1.25 0.100000001490116
endloop
endfacet
facet normal -1 -0 -0
outer loop
vertex -1.25 -1.25 0.100000001490116
vertex -1.25 -1 0.300000011920929
vertex -1.25 -1 0.100000001490116
endloop
endfacet
facet normal -0 -1 0
outer loop
vertex -1.25 -1.25 0.100000001490116
vertex -1 -1.25 0.300000011920929
vertex -1.25 -1.25 0.300000011920929
endloop
endfacet
facet normal -0 -1 0
outer loop
vertex -0.25 -1.25 0.100000001490116
vertex -0.25 -1.25 0.300000011920929
vertex -0.5 -1.25 0.300000011920929
endloop
endfacet
facet normal -0 -1 0
outer loop
vertex -1.25 -1.25 0.100000001490116
vertex -0.25 -1.25 0.100000001490116
vertex -1 -1.25 0.300000011920929
endloop
endfacet
facet normal -0 -1 0
outer loop
vertex -1 -1.25 0.300000011920929
vertex -0.25 -1.25 0.100000001490116
vertex -0.5 -1.25 0.300000011920929
endloop
endfacet
facet normal -1 -0 -0
outer loop
vertex -1.25 -1.25 0.400000005960464
vertex -1.25 -0.25 0.400000005960464
vertex -1.25 -0.5 0.300000011920929
endloop
endfacet
facet normal -1 -0 -0
outer loop
vertex -1.25 -0.5 0.300000011920929
vertex -1.25 -0.25 0.400000005960464
vertex -1.25 -0.25 0.300000011920929
endloop
endfacet
facet normal -1 -0 -0
outer loop
vertex -1.25 -1.25 0.400000005960464
vertex -1.25 -1 0.300000011920929
vertex -1.25 -1.25 0.300000011920929
endloop
endfacet
facet normal -1 -0 -0
outer loop
vertex -1.25 -1.25 0.400000005960464
vertex -1.25 -0.5 0.300000011920929
vertex -1.25 -1 0.300000011920929
endloop
endfacet
facet normal -0 -1 0
outer loop
vertex -1.25 -1.25 0.300000011920929
vertex -1 -1.25 0.400000005960464
vertex -1.25 -1.25 0.400000005960464
endloop
endfacet
facet normal -0 -1 0
outer loop
vertex -1 -1.25 0.300000011920929
vertex -1 -1.25 0.400000005960464
vertex -1.25 -1.25 0.300000011920929
endloop
endfacet
facet normal 0 0 1
outer loop
vertex -1.25 -0.25 0.400000005960464
vertex -1.25 -1.25 0.400000005960464
vertex -1 -1.25 0.400000005960464
endloop
endfacet
facet normal 0 0 1
outer loop
vertex -1 -1.25 0.400000005960464
vertex -0.5 -1.25 0.400000005960464
vertex -0.5 -0.25 0.400000005960464
endloop
endfacet
facet normal 0 0 1
outer loop
vertex -1.25 -0.25 0.400000005960464
vertex -1 -1.25 0.400000005960464
vertex -0.5 -0.25 0.400000005960464
endloop
endfacet
facet normal -1 0 0
outer loop
vertex -1.25 -1 0.100000001490116
vertex -1.25 -1 0.300000011920929
vertex -1.25 -0.5 0.300000011920929
endloop
endfacet
facet normal -1 0 0
outer loop
vertex -1.25 -0.5 0.100000001490116
vertex -1.25 -1 0.100000001490116
vertex -1.25 -0.5 0.300000011920929
endloop
endfacet
facet normal -1 -0 -0
outer loop
vertex -1.25 -0.5 0.100000001490116
vertex -1.25 -0.25 0.100000001490116
vertex -1.25 -0.5 0
endloop
endfacet
facet normal -1 -0 -0
outer loop
vertex -1.25 -0.5 0
vertex -1.25 -0.25 0.100000001490116
vertex -1.25 -0.25 0
endloop
endfacet
facet normal -1 -0 -0
outer loop
vertex -1.25 -0.5 0.300000011920929
vertex -1.25 -0.25 0.300000011920929
vertex -1.25 -0.5 0.100000001490116
endloop
endfacet
facet normal -1 -0 -0
outer loop
vertex -1.25 -0.5 0.100000001490116
vertex -1.25 -0.25 0.300000011920929
vertex -1.25 -0.25 0.100000001490116
endloop
endfacet
facet normal -0 1 -0
outer loop
vertex -1.25 -0.25 0.100000001490116
vertex -0.25 -0.25 0.100000001490116
vertex -1.25 -0.25 0
endloop
endfacet
facet normal -0 1 -0
outer loop
vertex -1.25 -0.25 0
vertex -0.25 -0.25 0.100000001490116
vertex -0.25 -0.25 0
endloop
endfacet
facet normal -0 1 -0
outer loop
vertex -0.5 -0.25 0.300000011920929
vertex -0.25 -0.25 0.100000001490116
vertex -1.25 -0.25 0.100000001490116
endloop
endfacet
facet normal -0 1 -0
outer loop
vertex -0.5 -0.25 0.300000011920929
vertex -0.25 -0.25 0.300000011920929
vertex -0.25 -0.25 0.100000001490116
endloop
endfacet
facet normal -0 1 -0
outer loop
vertex -1.25 -0.25 0.300000011920929
vertex -0.5 -0.25 0.300000011920929
vertex -1.25 -0.25 0.100000001490116
endloop
endfacet
facet normal -0 1 -0
outer loop
vertex -1.25 -0.25 0.400000005960464
vertex -0.5 -0.25 0.400000005960464
vertex -1.25 -0.25 0.300000011920929
endloop
endfacet
facet normal -0 1 -0
outer loop
vertex -1.25 -0.25 0.300000011920929
vertex -0.5 -0.25 0.400000005960464
vertex -0.5 -0.25 0.300000011920929
endloop
endfacet
facet normal -1 -0 -0
outer loop
vertex -1 -2 0.400000005960464
vertex -1 -1.5 0.400000005960464
vertex -1 -2 0.300000011920929
endloop
endfacet
facet normal -1 -0 -0
outer loop
vertex -1 -2 0.300000011920929
vertex -1 -1.5 0.400000005960464
vertex -1 -1.5 0.300000011920929
endloop
endfacet
facet normal -0 -1 0
outer loop
vertex -1 -2 0.300000011920929
vertex -0.5 -2 0.400000005960464
vertex -1 -2 0.400000005960464
endloop
endfacet
facet normal -0 -1 0
outer loop
vertex -0.5 -2 0.300000011920929
vertex -0.5 -2 0.400000005960464
vertex -1 -2 0.300000011920929
endloop
endfacet
facet normal -0 -0 -1
outer loop
vertex -1 -1.5 0.300000011920929
vertex -0.5 -1.5 0.300000011920929
vertex -1 -2 0.300000011920929
endloop
endfacet
facet normal -0 -0 -1
outer loop
vertex -1 -2 0.300000011920929
vertex -0.5 -1.5 0.300000011920929
vertex -0.5 -2 0.300000011920929
endloop
endfacet
facet normal 0 0 1
outer loop
vertex -1 -1.5 0.400000005960464
vertex -1 -2 0.400000005960464
vertex -0.5 -1.5 0.400000005960464
endloop
endfacet
facet normal 0 0 1
outer loop
vertex -1 -2 0.400000005960464
vertex -0.5 -2 0.400000005960464
vertex -0.5 -1.5 0.400000005960464
endloop
endfacet
facet normal -1 -0 -0
outer loop
vertex -1 -1.5 0.400000005960464
vertex -1 -1.25 0.400000005960464
vertex -1 -1.5 0.300000011920929
endloop
endfacet
facet normal -1 -0 -0
outer loop
vertex -1 -1.5 0.300000011920929
vertex -1 -1.25 0.400000005960464
vertex -1 -1.25 0.300000011920929
endloop
endfacet
facet normal -0 -0 -1
outer loop
vertex -1 -1.25 0.300000011920929
vertex -0.5 -1.25 0.300000011920929
vertex -1 -1.5 0.300000011920929
endloop
endfacet
facet normal -0 -0 -1
outer loop
vertex -1 -1.5 0.300000011920929
vertex -0.5 -1.25 0.300000011920929
vertex -0.5 -1.5 0.300000011920929
endloop
endfacet
facet normal 0 0 1
outer loop
vertex -1 -1.25 0.400000005960464
vertex -1 -1.5 0.400000005960464
vertex -0.5 -1.25 0.400000005960464
endloop
endfacet
facet normal 0 0 1
outer loop
vertex -1 -1.5 0.400000005960464
vertex -0.5 -1.5 0.400000005960464
vertex -0.5 -1.25 0.400000005960464
endloop
endfacet
facet normal -0 -1 0
outer loop
vertex -0.5 -4 0.300000011920929
vertex 2 -4 0.400000005960464
vertex -0.5 -4 0.400000005960464
endloop
endfacet
facet normal -0 -1 0
outer loop
vertex 2 -4 0.300000011920929
vertex 2 -4 0.400000005960464
vertex -0.5 -4 0.300000011920929
endloop
endfacet
facet normal -0 -0 -1
outer loop
vertex -0.5 -3.5 0.300000011920929
vertex 2 -3.5 0.300000011920929
vertex -0.5 -4 0.300000011920929
endloop
endfacet
facet normal -0 -0 -1
outer loop
vertex -0.5 -4 0.300000011920929
vertex 2 -3.5 0.300000011920929
vertex 2 -4 0.300000011920929
endloop
endfacet
facet normal 0 0 1
outer loop
vertex -0.5 -3.5 0.400000005960464
vertex -0.5 -4 0.400000005960464
vertex 2 -3.5 0.400000005960464
endloop
endfacet
facet normal 0 0 1
outer loop
vertex -0.5 -4 0.400000005960464
vertex 2 -4 0.400000005960464
vertex 2 -3.5 0.400000005960464
endloop
endfacet
facet normal -0 1 -0
outer loop
vertex -0.5 -3.5 0.400000005960464
vertex 2 -3.5 0.400000005960464
vertex -0.5 -3.5 0.300000011920929
endloop
endfacet
facet normal -0 1 -0
outer loop
vertex -0.5 -3.5 0.300000011920929
vertex 2 -3.5 0.400000005960464
vertex 2 -3.5 0.300000011920929
endloop
endfacet
facet normal -0 -1 0
outer loop
vertex -0.5 -3 0.300000011920929
vertex 2 -3 0.400000005960464
vertex -0.5 -3 0.400000005960464
endloop
endfacet
facet normal -0 -1 0
outer loop
vertex 2 -3 0.300000011920929
vertex 2 -3 0.400000005960464
vertex -0.5 -3 0.300000011920929
endloop
endfacet
facet normal -0 -0 -1
outer loop
vertex -0.5 -2.5 0.300000011920929
vertex 2 -2.5 0.300000011920929
vertex -0.5 -3 0.300000011920929
endloop
endfacet
facet normal -0 -0 -1
outer loop
vertex -0.5 -3 0.300000011920929
vertex 2 -2.5 0.300000011920929
vertex 2 -3 0.300000011920929
endloop
endfacet
facet normal 0 0 1
outer loop
vertex -0.5 -2.5 0.400000005960464
vertex -0.5 -3 0.400000005960464
vertex 2 -2.5 0.400000005960464
endloop
endfacet
facet normal 0 0 1
outer loop
vertex -0.5 -3 0.400000005960464
vertex 2 -3 0.400000005960464
vertex 2 -2.5 0.400000005960464
endloop
endfacet
facet normal -0 1 -0
outer loop
vertex -0.5 -2.5 0.400000005960464
vertex 2 -2.5 0.400000005960464
vertex -0.5 -2.5 0.300000011920929
endloop
endfacet
facet normal -0 1 -0
outer loop
vertex -0.5 -2.5 0.300000011920929
vertex 2 -2.5 0.400000005960464
vertex 2 -2.5 0.300000011920929
endloop
endfacet
facet normal -0 -1 0
outer loop
vertex -0.5 -2 0.300000011920929
vertex 2 -2 0.400000005960464
vertex -0.5 -2 0.400000005960464
endloop
endfacet
facet normal -0 -1 0
outer loop
vertex 2 -2 0.300000011920929
vertex 2 -2 0.400000005960464
vertex -0.5 -2 0.300000011920929
endloop
endfacet
facet normal -0 -0 -1
outer loop
vertex -0.5 -1.5 0.300000011920929
vertex 2 -1.5 0.300000011920929
vertex -0.5 -2 0.300000011920929
endloop
endfacet
facet normal -0 -0 -1
outer loop
vertex -0.5 -2 0.300000011920929
vertex 2 -1.5 0.300000011920929
vertex 2 -2 0.300000011920929
endloop
endfacet
facet normal 0 0 1
outer loop
vertex -0.5 -1.5 0.400000005960464
vertex -0.5 -2 0.400000005960464
vertex 2 -1.5 0.400000005960464
endloop
endfacet
facet normal 0 0 1
outer loop
vertex -0.5 -2 0.400000005960464
vertex 2 -2 0.400000005960464
vertex 2 -1.5 0.400000005960464
endloop
endfacet
facet normal 1 -0 -0
outer loop
vertex -0.5 -1.5 0.300000011920929
vertex -0.5 -1.25 0.400000005960464
vertex -0.5 -1.5 0.400000005960464
endloop
endfacet
facet normal 1 -0 -0
outer loop
vertex -0.5 -1.25 0.300000011920929
vertex -0.5 -1.25 0.400000005960464
vertex -0.5 -1.5 0.300000011920929
endloop
endfacet
facet normal -0 1 -0
outer loop
vertex -0.5 -1.5 0.400000005960464
vertex 2 -1.5 0.400000005960464
vertex -0.5 -1.5 0.300000011920929
endloop
endfacet
facet normal -0 1 -0
outer loop
vertex -0.5 -1.5 0.300000011920929
vertex 2 -1.5 0.400000005960464
vertex 2 -1.5 0.300000011920929
endloop
endfacet
facet normal -0 -1 0
outer loop
vertex -0.5 -1.25 0.300000011920929
vertex -0.25 -1.25 0.400000005960464
vertex -0.5 -1.25 0.400000005960464
endloop
endfacet
facet normal -0 -1 0
outer loop
vertex -0.25 -1.25 0.300000011920929
vertex -0.25 -1.25 0.400000005960464
vertex -0.5 -1.25 0.300000011920929
endloop
endfacet
facet normal 0 0 1
outer loop
vertex -0.5 -0.25 0.400000005960464
vertex -0.5 -1.25 0.400000005960464
vertex -0.25 -0.25 0.400000005960464
endloop
endfacet
facet normal 0 0 1
outer loop
vertex -0.5 -1.25 0.400000005960464
vertex -0.25 -1.25 0.400000005960464
vertex -0.25 -0.25 0.400000005960464
endloop
endfacet
facet normal -0 1 -0
outer loop
vertex -0.5 -0.25 0.400000005960464
vertex -0.25 -0.25 0.400000005960464
vertex -0.5 -0.25 0.300000011920929
endloop
endfacet
facet normal -0 1 -0
outer loop
vertex -0.5 -0.25 0.300000011920929
vertex -0.25 -0.25 0.400000005960464
vertex -0.25 -0.25 0.300000011920929
endloop
endfacet
facet normal 0 -1 0
outer loop
vertex -0.5 1 0.400000005960464
vertex -0.5 1 0.300000011920929
vertex 2 1 0.400000005960464
endloop
endfacet
facet normal 0 -1 0
outer loop
vertex -0.5 1 0.300000011920929
vertex 2 1 0.300000011920929
vertex 2 1 0.400000005960464
endloop
endfacet
facet normal -0 -0 -1
outer loop
vertex -0.5 1.5 0.300000011920929
vertex 2 1.5 0.300000011920929
vertex -0.5 1 0.300000011920929
endloop
endfacet
facet normal -0 -0 -1
outer loop
vertex -0.5 1 0.300000011920929
vertex 2 1.5 0.300000011920929
vertex 2 1 0.300000011920929
endloop
endfacet
facet normal 0 0 1
outer loop
vertex -0.5 1.5 0.400000005960464
vertex -0.5 1 0.400000005960464
vertex 2 1.5 0.400000005960464
endloop
endfacet
facet normal 0 0 1
outer loop
vertex -0.5 1 0.400000005960464
vertex 2 1 0.400000005960464
vertex 2 1.5 0.400000005960464
endloop
endfacet
facet normal -0 1 -0
outer loop
vertex -0.5 1.5 0.400000005960464
vertex 2 1.5 0.400000005960464
vertex -0.5 1.5 0.300000011920929
endloop
endfacet
facet normal -0 1 -0
outer loop
vertex -0.5 1.5 0.300000011920929
vertex 2 1.5 0.400000005960464
vertex 2 1.5 0.300000011920929
endloop
endfacet
facet normal 0 -1 0
outer loop
vertex -0.5 2 0.400000005960464
vertex -0.5 2 0.300000011920929
vertex 2 2 0.400000005960464
endloop
endfacet
facet normal 0 -1 0
outer loop
vertex -0.5 2 0.300000011920929
vertex 2 2 0.300000011920929
vertex 2 2 0.400000005960464
endloop
endfacet
facet normal -0 -0 -1
outer loop
vertex -0.5 2.5 0.300000011920929
vertex 2 2.5 0.300000011920929
vertex -0.5 2 0.300000011920929
endloop
endfacet
facet normal -0 -0 -1
outer loop
vertex -0.5 2 0.300000011920929
vertex 2 2.5 0.300000011920929
vertex 2 2 0.300000011920929
endloop
endfacet
facet normal 0 0 1
outer loop
vertex -0.5 2.5 0.400000005960464
vertex -0.5 2 0.400000005960464
vertex 2 2.5 0.400000005960464
endloop
endfacet
facet normal 0 0 1
outer loop
vertex -0.5 2 0.400000005960464
vertex 2 2 0.400000005960464
vertex 2 2.5 0.400000005960464
endloop
endfacet
facet normal -0 1 -0
outer loop
vertex -0.5 2.5 0.400000005960464
vertex 2 2.5 0.400000005960464
vertex -0.5 2.5 0.300000011920929
endloop
endfacet
facet normal -0 1 -0
outer loop
vertex -0.5 2.5 0.300000011920929
vertex 2 2.5 0.400000005960464
vertex 2 2.5 0.300000011920929
endloop
endfacet
facet normal 0 -1 0
outer loop
vertex -0.5 3 0.400000005960464
vertex -0.5 3 0.300000011920929
vertex 2 3 0.400000005960464
endloop
endfacet
facet normal 0 -1 0
outer loop
vertex -0.5 3 0.300000011920929
vertex 2 3 0.300000011920929
vertex 2 3 0.400000005960464
endloop
endfacet
facet normal -0 -0 -1
outer loop
vertex -0.5 3.5 0.300000011920929
vertex 2 3.5 0.300000011920929
vertex -0.5 3 0.300000011920929
endloop
endfacet
facet normal -0 -0 -1
outer loop
vertex -0.5 3 0.300000011920929
vertex 2 3.5 0.300000011920929
vertex 2 3 0.300000011920929
endloop
endfacet
facet normal 0 0 1
outer loop
vertex -0.5 3.5 0.400000005960464
vertex -0.5 3 0.400000005960464
vertex 2 3.5 0.400000005960464
endloop
endfacet
facet normal 0 0 1
outer loop
vertex -0.5 3 0.400000005960464
vertex 2 3 0.400000005960464
vertex 2 3.5 0.400000005960464
endloop
endfacet
facet normal -0 1 -0
outer loop
vertex -0.5 3.5 0.400000005960464
vertex 2 3.5 0.400000005960464
vertex -0.5 3.5 0.300000011920929
endloop
endfacet
facet normal -0 1 -0
outer loop
vertex -0.5 3.5 0.300000011920929
vertex 2 3.5 0.400000005960464
vertex 2 3.5 0.300000011920929
endloop
endfacet
facet normal 1 -0 -0
outer loop
vertex -0.25 -1.25 0
vertex -0.25 -0.25 0.100000001490116
vertex -0.25 -1.25 0.100000001490116
endloop
endfacet
facet normal 1 -0 -0
outer loop
vertex -0.25 -0.25 0
vertex -0.25 -0.25 0.100000001490116
vertex -0.25 -1.25 0
endloop
endfacet
facet normal 1 -0 -0
outer loop
vertex -0.25 -1.25 0.100000001490116
vertex -0.25 -0.25 0.300000011920929
vertex -0.25 -1.25 0.300000011920929
endloop
endfacet
facet normal 1 -0 -0
outer loop
vertex -0.25 -0.25 0.100000001490116
vertex -0.25 -0.25 0.300000011920929
vertex -0.25 -1.25 0.100000001490116
endloop
endfacet
facet normal 1 -0 -0
outer loop
vertex -0.25 -1.25 0.300000011920929
vertex -0.25 -0.25 0.400000005960464
vertex -0.25 -1.25 0.400000005960464
endloop
endfacet
facet normal 1 -0 -0
outer loop
vertex -0.25 -0.25 0.300000011920929
vertex -0.25 -0.25 0.400000005960464
vertex -0.25 -1.25 0.300000011920929
endloop
endfacet
facet normal -0 -1 0
outer loop
vertex 2 -4 0.300000011920929
vertex 3 -4 0.400000005960464
vertex 2 -4 0.400000005960464
endloop
endfacet
facet normal -0 -1 0
outer loop
vertex 3 -4 0.300000011920929
vertex 3 -4 0.400000005960464
vertex 2 -4 0.300000011920929
endloop
endfacet
facet normal -0 -0 -1
outer loop
vertex 2 -3.5 0.300000011920929
vertex 3 -3.5 0.300000011920929
vertex 2 -4 0.300000011920929
endloop
endfacet
facet normal -0 -0 -1
outer loop
vertex 2 -4 0.300000011920929
vertex 3 -3.5 0.300000011920929
vertex 3 -4 0.300000011920929
endloop
endfacet
facet normal 0 0 1
outer loop
vertex 2 -3.5 0.400000005960464
vertex 2 -4 0.400000005960464
vertex 3 -3.5 0.400000005960464
endloop
endfacet
facet normal 0 0 1
outer loop
vertex 2 -4 0.400000005960464
vertex 3 -4 0.400000005960464
vertex 3 -3.5 0.400000005960464
endloop
endfacet
facet normal -0 1 -0
outer loop
vertex 2 -3.5 0.400000005960464
vertex 3 -3.5 0.400000005960464
vertex 2 -3.5 0.300000011920929
endloop
endfacet
facet normal -0 1 -0
outer loop
vertex 2 -3.5 0.300000011920929
vertex 3 -3.5 0.400000005960464
vertex 3 -3.5 0.300000011920929
endloop
endfacet
facet normal -0 -1 0
outer loop
vertex 2 -3 0.300000011920929
vertex 3 -3 0.400000005960464
vertex 2 -3 0.400000005960464
endloop
endfacet
facet normal -0 -1 0
outer loop
vertex 3 -3 0.300000011920929
vertex 3 -3 0.400000005960464
vertex 2 -3 0.300000011920929
endloop
endfacet
facet normal -0 -0 -1
outer loop
vertex 2 -2.5 0.300000011920929
vertex 3 -2.5 0.300000011920929
vertex 2 -3 0.300000011920929
endloop
endfacet
facet normal -0 -0 -1
outer loop
vertex 2 -3 0.300000011920929
vertex 3 -2.5 0.300000011920929
vertex 3 -3 0.300000011920929
endloop
endfacet
facet normal 0 0 1
outer loop
vertex 2 -2.5 0.400000005960464
vertex 2 -3 0.400000005960464
vertex 3 -2.5 0.400000005960464
endloop
endfacet
facet normal 0 0 1
outer loop
vertex 2 -3 0.400000005960464
vertex 3 -3 0.400000005960464
vertex 3 -2.5 0.400000005960464
endloop
endfacet
facet normal -0 1 -0
outer loop
vertex 2 -2.5 0.400000005960464
vertex 3 -2.5 0.400000005960464
vertex 2 -2.5 0.300000011920929
endloop
endfacet
facet normal -0 1 -0
outer loop
vertex 2 -2.5 0.300000011920929
vertex 3 -2.5 0.400000005960464
vertex 3 -2.5 0.300000011920929
endloop
endfacet
facet normal -0 -1 0
outer loop
vertex 2 -2 0.300000011920929
vertex 2.5 -2 0.400000005960464
vertex 2 -2 0.400000005960464
endloop
endfacet
facet normal -0 -1 0
outer loop
vertex 2.5 -2 0.300000011920929
vertex 2.5 -2 0.400000005960464
vertex 2 -2 0.300000011920929
endloop
endfacet
facet normal -0 -0 -1
outer loop
vertex 2 -1.5 0.300000011920929
vertex 2.5 -1.5 0.300000011920929
vertex 2 -2 0.300000011920929
endloop
endfacet
facet normal -0 -0 -1
outer loop
vertex 2 -2 0.300000011920929
vertex 2.5 -1.5 0.300000011920929
vertex 2.5 -2 0.300000011920929
endloop
endfacet
facet normal 0 0 1
outer loop
vertex 2 -1.5 0.400000005960464
vertex 2 -2 0.400000005960464
vertex 2.5 -1.5 0.400000005960464
endloop
endfacet
facet normal 0 0 1
outer loop
vertex 2 -2 0.400000005960464
vertex 2.5 -2 0.400000005960464
vertex 2.5 -1.5 0.400000005960464
endloop
endfacet
facet normal -1 0 0
outer loop
vertex 2 -1.5 0.300000011920929
vertex 2 -1.5 0.400000005960464
vertex 2 0 0.400000005960464
endloop
endfacet
facet normal -1 0 0
outer loop
vertex 2 0 0.300000011920929
vertex 2 -1.5 0.300000011920929
vertex 2 0 0.400000005960464
endloop
endfacet
facet normal -0 -0 -1
outer loop
vertex 2 0 0.300000011920929
vertex 2.5 0 0.300000011920929
vertex 2 -1.5 0.300000011920929
endloop
endfacet
facet normal -0 -0 -1
outer loop
vertex 2 -1.5 0.300000011920929
vertex 2.5 0 0.300000011920929
vertex 2.5 -1.5 0.300000011920929
endloop
endfacet
facet normal 0 0 1
outer loop
vertex 2 0 0.400000005960464
vertex 2 -1.5 0.400000005960464
vertex 2.5 0 0.400000005960464
endloop
endfacet
facet normal 0 0 1
outer loop
vertex 2 -1.5 0.400000005960464
vertex 2.5 -1.5 0.400000005960464
vertex 2.5 0 0.400000005960464
endloop
endfacet
facet normal -1 0 0
outer loop
vertex 2 0 0.300000011920929
vertex 2 0 0.400000005960464
vertex 2 1 0.400000005960464
endloop
endfacet
facet normal -1 0 0
outer loop
vertex 2 1 0.300000011920929
vertex 2 0 0.300000011920929
vertex 2 1 0.400000005960464
endloop
endfacet
facet normal -0 -0 -1
outer loop
vertex 2 1 0.300000011920929
vertex 2.5 1 0.300000011920929
vertex 2 0 0.300000011920929
endloop
endfacet
facet normal -0 -0 -1
outer loop
vertex 2 0 0.300000011920929
vertex 2.5 1 0.300000011920929
vertex 2.5 0 0.300000011920929
endloop
endfacet
facet normal 0 0 1
outer loop
vertex 2 1 0.400000005960464
vertex 2 0 0.400000005960464
vertex 2.5 1 0.400000005960464
endloop
endfacet
facet normal 0 0 1
outer loop
vertex 2 0 0.400000005960464
vertex 2.5 0 0.400000005960464
vertex 2.5 1 0.400000005960464
endloop
endfacet
facet normal -0 -0 -1
outer loop
vertex 2 1.5 0.300000011920929
vertex 2.5 1.5 0.300000011920929
vertex 2 1 0.300000011920929
endloop
endfacet
facet normal -0 -0 -1
outer loop
vertex 2 1 0.300000011920929
vertex 2.5 1.5 0.300000011920929
vertex 2.5 1 0.300000011920929
endloop
endfacet
facet normal 0 0 1
outer loop
vertex 2 1.5 0.400000005960464
vertex 2 1 0.400000005960464
vertex 2.5 1.5 0.400000005960464
endloop
endfacet
facet normal 0 0 1
outer loop
vertex 2 1 0.400000005960464
vertex 2.5 1 0.400000005960464
vertex 2.5 1.5 0.400000005960464
endloop
endfacet
facet normal -0 1 -0
outer loop
vertex 2 1.5 0.400000005960464
vertex 2.5 1.5 0.400000005960464
vertex 2 1.5 0.300000011920929
endloop
endfacet
facet normal -0 1 -0
outer loop
vertex 2 1.5 0.300000011920929
vertex 2.5 1.5 0.400000005960464
vertex 2.5 1.5 0.300000011920929
endloop
endfacet
facet normal 0 -1 0
outer loop
vertex 2 2 0.400000005960464
vertex 2 2 0.300000011920929
vertex 3 2 0.400000005960464
endloop
endfacet
facet normal 0 -1 0
outer loop
vertex 2 2 0.300000011920929
vertex 3 2 0.300000011920929
vertex 3 2 0.400000005960464
endloop
endfacet
facet normal -0 -0 -1
outer loop
vertex 2 2.5 0.300000011920929
vertex 3 2.5 0.300000011920929
vertex 2 2 0.300000011920929
endloop
endfacet
facet normal -0 -0 -1
outer loop
vertex 2 2 0.300000011920929
vertex 3 2.5 0.300000011920929
vertex 3 2 0.300000011920929
endloop
endfacet
facet normal 0 0 1
outer loop
vertex 2 2.5 0.400000005960464
vertex 2 2 0.400000005960464
vertex 3 2.5 0.400000005960464
endloop
endfacet
facet normal 0 0 1
outer loop
vertex 2 2 0.400000005960464
vertex 3 2 0.400000005960464
vertex 3 2.5 0.400000005960464
endloop
endfacet
facet normal -0 1 -0
outer loop
vertex 2 2.5 0.400000005960464
vertex 3 2.5 0.400000005960464
vertex 2 2.5 0.300000011920929
endloop
endfacet
facet normal -0 1 -0
outer loop
vertex 2 2.5 0.300000011920929
vertex 3 2.5 0.400000005960464
vertex 3 2.5 0.300000011920929
endloop
endfacet
facet normal 0 -1 0
outer loop
vertex 2 3 0.400000005960464
vertex 2 3 0.300000011920929
vertex 3 3 0.400000005960464
endloop
endfacet
facet normal 0 -1 0
outer loop
vertex 2 3 0.300000011920929
vertex 3 3 0.300000011920929
vertex 3 3 0.400000005960464
endloop
endfacet
facet normal -0 -0 -1
outer loop
vertex 2 3.5 0.300000011920929
vertex 3 3.5 0.300000011920929
vertex 2 3 0.300000011920929
endloop
endfacet
facet normal -0 -0 -1
outer loop
vertex 2 3 0.300000011920929
vertex 3 3.5 0.300000011920929
vertex 3 3 0.300000011920929
endloop
endfacet
facet normal 0 0 1
outer loop
vertex 2 3.5 0.400000005960464
vertex 2 3 0.400000005960464
vertex 3 3.5 0.400000005960464
endloop
endfacet
facet normal 0 0 1
outer loop
vertex 2 3 0.400000005960464
vertex 3 3 0.400000005960464
vertex 3 3.5 0.400000005960464
endloop
endfacet
facet normal -0 1 -0
outer loop
vertex 2 3.5 0.400000005960464
vertex 3 3.5 0.400000005960464
vertex 2 3.5 0.300000011920929
endloop
endfacet
facet normal -0 1 -0
outer loop
vertex 2 3.5 0.300000011920929
vertex 3 3.5 0.400000005960464
vertex 3 3.5 0.300000011920929
endloop
endfacet
facet normal 1 -0 -0
outer loop
vertex 2.5 -2 0.300000011920929
vertex 2.5 -1.5 0.400000005960464
vertex 2.5 -2 0.400000005960464
endloop
endfacet
facet normal 1 -0 -0
outer loop
vertex 2.5 -1.5 0.300000011920929
vertex 2.5 -1.5 0.400000005960464
vertex 2.5 -2 0.300000011920929
endloop
endfacet
facet normal 1 -0 -0
outer loop
vertex 2.5 -1.5 0.300000011920929
vertex 2.5 0 0.400000005960464
vertex 2.5 -1.5 0.400000005960464
endloop
endfacet
facet normal 1 -0 -0
outer loop
vertex 2.5 0 0.300000011920929
vertex 2.5 0 0.400000005960464
vertex 2.5 -1.5 0.300000011920929
endloop
endfacet
facet normal 1 -0 -0
outer loop
vertex 2.5 0 0.300000011920929
vertex 2.5 1 0.400000005960464
vertex 2.5 0 0.400000005960464
endloop
endfacet
facet normal 1 -0 -0
outer loop
vertex 2.5 1 0.300000011920929
vertex 2.5 1 0.400000005960464
vertex 2.5 0 0.300000011920929
endloop
endfacet
facet normal 1 -0 -0
outer loop
vertex 2.5 1 0.300000011920929
vertex 2.5 1.5 0.400000005960464
vertex 2.5 1 0.400000005960464
endloop
endfacet
facet normal 1 -0 -0
outer loop
vertex 2.5 1.5 0.300000011920929
vertex 2.5 1.5 0.400000005960464
vertex 2.5 1 0.300000011920929
endloop
endfacet
facet normal -0 -1 0
outer loop
vertex 3 -4 0.300000011920929
vertex 4 -4 0.400000005960464
vertex 3 -4 0.400000005960464
endloop
endfacet
facet normal -0 -1 0
outer loop
vertex 4 -4 0.300000011920929
vertex 4 -4 0.400000005960464
vertex 3 -4 0.300000011920929
endloop
endfacet
facet normal -0 -0 -1
outer loop
vertex 3 -3.5 0.300000011920929
vertex 4 -3.5 0.300000011920929
vertex 3 -4 0.300000011920929
endloop
endfacet
facet normal -0 -0 -1
outer loop
vertex 3 -4 0.300000011920929
vertex 4 -3.5 0.300000011920929
vertex 4 -4 0.300000011920929
endloop
endfacet
facet normal 0 0 1
outer loop
vertex 3 -3.5 0.400000005960464
vertex 3 -4 0.400000005960464
vertex 4 -3.5 0.400000005960464
endloop
endfacet
facet normal 0 0 1
outer loop
vertex 3 -4 0.400000005960464
vertex 4 -4 0.400000005960464
vertex 4 -3.5 0.400000005960464
endloop
endfacet
facet normal -0 1 -0
outer loop
vertex 3 -3.5 0.400000005960464
vertex 4 -3.5 0.400000005960464
vertex 3 -3.5 0.300000011920929
endloop
endfacet
facet normal -0 1 -0
outer loop
vertex 3 -3.5 0.300000011920929
vertex 4 -3.5 0.400000005960464
vertex 4 -3.5 0.300000011920929
endloop
endfacet
facet normal -0 -1 0
outer loop
vertex 3 -3 0.300000011920929
vertex 3.5 -3 0.400000005960464
vertex 3 -3 0.400000005960464
endloop
endfacet
facet normal -0 -1 0
outer loop
vertex 3.5 -3 0.300000011920929
vertex 3.5 -3 0.400000005960464
vertex 3 -3 0.300000011920929
endloop
endfacet
facet normal -0 -0 -1
outer loop
vertex 3 -2.5 0.300000011920929
vertex 3.5 -2.5 0.300000011920929
vertex 3 -3 0.300000011920929
endloop
endfacet
facet normal -0 -0 -1
outer loop
vertex 3 -3 0.300000011920929
vertex 3.5 -2.5 0.300000011920929
vertex 3.5 -3 0.300000011920929
endloop
endfacet
facet normal 0 0 1
outer loop
vertex 3 -2.5 0.400000005960464
vertex 3 -3 0.400000005960464
vertex 3.5 -2.5 0.400000005960464
endloop
endfacet
facet normal 0 0 1
outer loop
vertex 3 -3 0.400000005960464
vertex 3.5 -3 0.400000005960464
vertex 3.5 -2.5 0.400000005960464
endloop
endfacet
facet normal -1 0 0
outer loop
vertex 3 -2.5 0.300000011920929
vertex 3 -2.5 0.400000005960464
vertex 3 -1.5 0.400000005960464
endloop
endfacet
facet normal -1 0 0
outer loop
vertex 3 -1.5 0.300000011920929
vertex 3 -2.5 0.300000011920929
vertex 3 -1.5 0.400000005960464
endloop
endfacet
facet normal -0 -0 -1
outer loop
vertex 3 -1.5 0.300000011920929
vertex 3.5 -1.5 0.300000011920929
vertex 3 -2.5 0.300000011920929
endloop
endfacet
facet normal -0 -0 -1
outer loop
vertex 3 -2.5 0.300000011920929
vertex 3.5 -1.5 0.300000011920929
vertex 3.5 -2.5 0.300000011920929
endloop
endfacet
facet normal 0 0 1
outer loop
vertex 3 -1.5 0.400000005960464
vertex 3 -2.5 0.400000005960464
vertex 3.5 -1.5 0.400000005960464
endloop
endfacet
facet normal 0 0 1
outer loop
vertex 3 -2.5 0.400000005960464
vertex 3.5 -2.5 0.400000005960464
vertex 3.5 -1.5 0.400000005960464
endloop
endfacet
facet normal -1 0 0
outer loop
vertex 3 -1.5 0.300000011920929
vertex 3 -1.5 0.400000005960464
vertex 3 1.50920942409982e-16 0.400000005960464
endloop
endfacet
facet normal -1 0 0
outer loop
vertex 3 1.50920942409982e-16 0.300000011920929
vertex 3 -1.5 0.300000011920929
vertex 3 1.50920942409982e-16 0.400000005960464
endloop
endfacet
facet normal -0 -0 -1
outer loop
vertex 3 1.50920942409982e-16 0.300000011920929
vertex 3.5 3.01841884819964e-16 0.300000011920929
vertex 3 -1.5 0.300000011920929
endloop
endfacet
facet normal -0 -0 -1
outer loop
vertex 3 -1.5 0.300000011920929
vertex 3.5 3.01841884819964e-16 0.300000011920929
vertex 3.5 -1.5 0.300000011920929
endloop
endfacet
facet normal 0 0 1
outer loop
vertex 3 1.50920942409982e-16 0.400000005960464
vertex 3 -1.5 0.400000005960464
vertex 3.5 3.01841884819964e-16 0.400000005960464
endloop
endfacet
facet normal 0 0 1
outer loop
vertex 3 -1.5 0.400000005960464
vertex 3.5 -1.5 0.400000005960464
vertex 3.5 3.01841884819964e-16 0.400000005960464
endloop
endfacet
facet normal -1 0 0
outer loop
vertex 3 1.50920942409982e-16 0.300000011920929
vertex 3 1.50920942409982e-16 0.400000005960464
vertex 3 1 0.400000005960464
endloop
endfacet
facet normal -1 0 0
outer loop
vertex 3 1 0.300000011920929
vertex 3 1.50920942409982e-16 0.300000011920929
vertex 3 1 0.400000005960464
endloop
endfacet
facet normal -0 -0 -1
outer loop
vertex 3 1 0.300000011920929
vertex 3.5 1 0.300000011920929
vertex 3 1.50920942409982e-16 0.300000011920929
endloop
endfacet
facet normal -0 -0 -1
outer loop
vertex 3 1.50920942409982e-16 0.300000011920929
vertex 3.5 1 0.300000011920929
vertex 3.5 3.01841884819964e-16 0.300000011920929
endloop
endfacet
facet normal 0 0 1
outer loop
vertex 3 1 0.400000005960464
vertex 3 1.50920942409982e-16 0.400000005960464
vertex 3.5 1 0.400000005960464
endloop
endfacet
facet normal 0 0 1
outer loop
vertex 3 1.50920942409982e-16 0.400000005960464
vertex 3.5 3.01841884819964e-16 0.400000005960464
vertex 3.5 1 0.400000005960464
endloop
endfacet
facet normal -1 0 0
outer loop
vertex 3 1 0.300000011920929
vertex 3 1 0.400000005960464
vertex 3 2 0.400000005960464
endloop
endfacet
facet normal -1 0 0
outer loop
vertex 3 2 0.300000011920929
vertex 3 1 0.300000011920929
vertex 3 2 0.400000005960464
endloop
endfacet
facet normal -0 -0 -1
outer loop
vertex 3 2 0.300000011920929
vertex 3.5 2 0.300000011920929
vertex 3 1 0.300000011920929
endloop
endfacet
facet normal -0 -0 -1
outer loop
vertex 3 1 0.300000011920929
vertex 3.5 2 0.300000011920929
vertex 3.5 1 0.300000011920929
endloop
endfacet
facet normal 0 0 1
outer loop
vertex 3 2 0.400000005960464
vertex 3 1 0.400000005960464
vertex 3.5 2 0.400000005960464
endloop
endfacet
facet normal 0 0 1
outer loop
vertex 3 1 0.400000005960464
vertex 3.5 1 0.400000005960464
vertex 3.5 2 0.400000005960464
endloop
endfacet
facet normal -0 -0 -1
outer loop
vertex 3 2.5 0.300000011920929
vertex 3.5 2.5 0.300000011920929
vertex 3 2 0.300000011920929
endloop
endfacet
facet normal -0 -0 -1
outer loop
vertex 3 2 0.300000011920929
vertex 3.5 2.5 0.300000011920929
vertex 3.5 2 0.300000011920929
endloop
endfacet
facet normal 0 0 1
outer loop
vertex 3 2.5 0.400000005960464
vertex 3 2 0.400000005960464
vertex 3.5 2.5 0.400000005960464
endloop
endfacet
facet normal 0 0 1
outer loop
vertex 3 2 0.400000005960464
vertex 3.5 2 0.400000005960464
vertex 3.5 2.5 0.400000005960464
endloop
endfacet
facet normal -0 1 -0
outer loop
vertex 3 2.5 0.400000005960464
vertex 3.5 2.5 0.400000005960464
vertex 3 2.5 0.300000011920929
endloop
endfacet
facet normal -0 1 -0
outer loop
vertex 3 2.5 0.300000011920929
vertex 3.5 2.5 0.400000005960464
vertex 3.5 2.5 0.300000011920929
endloop
endfacet
facet normal 0 -1 0
outer loop
vertex 3 3 0.400000005960464
vertex 3 3 0.300000011920929
vertex 4 3 0.400000005960464
endloop
endfacet
facet normal 0 -1 0
outer loop
vertex 3 3 0.300000011920929
vertex 4 3 0.300000011920929
vertex 4 3 0.400000005960464
endloop
endfacet
facet normal -0 -0 -1
outer loop
vertex 3 3.5 0.300000011920929
vertex 4 3.5 0.300000011920929
vertex 3 3 0.300000011920929
endloop
endfacet
facet normal -0 -0 -1
outer loop
vertex 3 3 0.300000011920929
vertex 4 3.5 0.300000011920929
vertex 4 3 0.300000011920929
endloop
endfacet
facet normal 0 0 1
outer loop
vertex 3 3.5 0.400000005960464
vertex 3 3 0.400000005960464
vertex 4 3.5 0.400000005960464
endloop
endfacet
facet normal 0 0 1
outer loop
vertex 3 3 0.400000005960464
vertex 4 3 0.400000005960464
vertex 4 3.5 0.400000005960464
endloop
endfacet
facet normal -0 1 -0
outer loop
vertex 3 3.5 0.400000005960464
vertex 4 3.5 0.400000005960464
vertex 3 3.5 0.300000011920929
endloop
endfacet
facet normal -0 1 -0
outer loop
vertex 3 3.5 0.300000011920929
vertex 4 3.5 0.400000005960464
vertex 4 3.5 0.300000011920929
endloop
endfacet
facet normal 1 -0 -0
outer loop
vertex 3.5 -3 0.300000011920929
vertex 3.5 -2.5 0.400000005960464
vertex 3.5 -3 0.400000005960464
endloop
endfacet
facet normal 1 -0 -0
outer loop
vertex 3.5 -2.5 0.300000011920929
vertex 3.5 -2.5 0.400000005960464
vertex 3.5 -3 0.300000011920929
endloop
endfacet
facet normal 1 -0 -0
outer loop
vertex 3.5 -2.5 0.300000011920929
vertex 3.5 -1.5 0.400000005960464
vertex 3.5 -2.5 0.400000005960464
endloop
endfacet
facet normal 1 -0 -0
outer loop
vertex 3.5 -1.5 0.300000011920929
vertex 3.5 -1.5 0.400000005960464
vertex 3.5 -2.5 0.300000011920929
endloop
endfacet
facet normal 1 -0 -0
outer loop
vertex 3.5 -1.5 0.300000011920929
vertex 3.5 3.01841884819964e-16 0.400000005960464
vertex 3.5 -1.5 0.400000005960464
endloop
endfacet
facet normal 1 -0 -0
outer loop
vertex 3.5 3.01841884819964e-16 0.300000011920929
vertex 3.5 3.01841884819964e-16 0.400000005960464
vertex 3.5 -1.5 0.300000011920929
endloop
endfacet
facet normal 1 -0 -0
outer loop
vertex 3.5 3.01841884819964e-16 0.300000011920929
vertex 3.5 1 0.400000005960464
vertex 3.5 3.01841884819964e-16 0.400000005960464
endloop
endfacet
facet normal 1 -0 -0
outer loop
vertex 3.5 1 0.300000011920929
vertex 3.5 1 0.400000005960464
vertex 3.5 3.01841884819964e-16 0.300000011920929
endloop
endfacet
facet normal 1 -0 -0
outer loop
vertex 3.5 1 0.300000011920929
vertex 3.5 2 0.400000005960464
vertex 3.5 1 0.400000005960464
endloop
endfacet
facet normal 1 -0 -0
outer loop
vertex 3.5 2 0.300000011920929
vertex 3.5 2 0.400000005960464
vertex 3.5 1 0.300000011920929
endloop
endfacet
facet normal 1 -0 -0
outer loop
vertex 3.5 2 0.300000011920929
vertex 3.5 2.5 0.400000005960464
vertex 3.5 2 0.400000005960464
endloop
endfacet
facet normal 1 -0 -0
outer loop
vertex 3.5 2.5 0.300000011920929
vertex 3.5 2.5 0.400000005960464
vertex 3.5 2 0.300000011920929
endloop
endfacet
facet normal -0 -1 0
outer loop
vertex 4 -4 0.300000011920929
vertex 4.5 -4 0.400000005960464
vertex 4 -4 0.400000005960464
endloop
endfacet
facet normal -0 -1 0
outer loop
vertex 4.5 -4 0.300000011920929
vertex 4.5 -4 0.400000005960464
vertex 4 -4 0.300000011920929
endloop
endfacet
facet normal -0 -0 -1
outer loop
vertex 4 -3.5 0.300000011920929
vertex 4.5 -3.5 0.300000011920929
vertex 4 -4 0.300000011920929
endloop
endfacet
facet normal -0 -0 -1
outer loop
vertex 4 -4 0.300000011920929
vertex 4.5 -3.5 0.300000011920929
vertex 4.5 -4 0.300000011920929
endloop
endfacet
facet normal 0 0 1
outer loop
vertex 4 -3.5 0.400000005960464
vertex 4 -4 0.400000005960464
vertex 4.5 -3.5 0.400000005960464
endloop
endfacet
facet normal 0 0 1
outer loop
vertex 4 -4 0.400000005960464
vertex 4.5 -4 0.400000005960464
vertex 4.5 -3.5 0.400000005960464
endloop
endfacet
facet normal -1 0 0
outer loop
vertex 4 -3.5 0.300000011920929
vertex 4 -3.5 0.400000005960464
vertex 4 -2.5 0.400000005960464
endloop
endfacet
facet normal -1 0 0
outer loop
vertex 4 -2.5 0.300000011920929
vertex 4 -3.5 0.300000011920929
vertex 4 -2.5 0.400000005960464
endloop
endfacet
facet normal -0 -0 -1
outer loop
vertex 4 -2.5 0.300000011920929
vertex 4.5 -2.5 0.300000011920929
vertex 4 -3.5 0.300000011920929
endloop
endfacet
facet normal -0 -0 -1
outer loop
vertex 4 -3.5 0.300000011920929
vertex 4.5 -2.5 0.300000011920929
vertex 4.5 -3.5 0.300000011920929
endloop
endfacet
facet normal 0 0 1
outer loop
vertex 4 -2.5 0.400000005960464
vertex 4 -3.5 0.400000005960464
vertex 4.5 -2.5 0.400000005960464
endloop
endfacet
facet normal 0 0 1
outer loop
vertex 4 -3.5 0.400000005960464
vertex 4.5 -3.5 0.400000005960464
vertex 4.5 -2.5 0.400000005960464
endloop
endfacet
facet normal -1 0 0
outer loop
vertex 4 -2.5 0.300000011920929
vertex 4 -2.5 0.400000005960464
vertex 4 -1.5 0.400000005960464
endloop
endfacet
facet normal -1 0 0
outer loop
vertex 4 -1.5 0.300000011920929
vertex 4 -2.5 0.300000011920929
vertex 4 -1.5 0.400000005960464
endloop
endfacet
facet normal -0 -0 -1
outer loop
vertex 4 -1.5 0.300000011920929
vertex 4.5 -1.5 0.300000011920929
vertex 4 -2.5 0.300000011920929
endloop
endfacet
facet normal -0 -0 -1
outer loop
vertex 4 -2.5 0.300000011920929
vertex 4.5 -1.5 0.300000011920929
vertex 4.5 -2.5 0.300000011920929
endloop
endfacet
facet normal 0 0 1
outer loop
vertex 4 -1.5 0.400000005960464
vertex 4 -2.5 0.400000005960464
vertex 4.5 -1.5 0.400000005960464
endloop
endfacet
facet normal 0 0 1
outer loop
vertex 4 -2.5 0.400000005960464
vertex 4.5 -2.5 0.400000005960464
vertex 4.5 -1.5 0.400000005960464
endloop
endfacet
facet normal -1 0 0
outer loop
vertex 4 -1.5 0.300000011920929
vertex 4 -1.5 0.400000005960464
vertex 4 3.01841884819964e-16 0.400000005960464
endloop
endfacet
facet normal -1 0 0
outer loop
vertex 4 3.01841884819964e-16 0.300000011920929
vertex 4 -1.5 0.300000011920929
vertex 4 3.01841884819964e-16 0.400000005960464
endloop
endfacet
facet normal -0 -0 -1
outer loop
vertex 4 3.01841884819964e-16 0.300000011920929
vertex 4.5 0 0.300000011920929
vertex 4 -1.5 0.300000011920929
endloop
endfacet
facet normal -0 -0 -1
outer loop
vertex 4 -1.5 0.300000011920929
vertex 4.5 0 0.300000011920929
vertex 4.5 -1.5 0.300000011920929
endloop
endfacet
facet normal 0 0 1
outer loop
vertex 4 3.01841884819964e-16 0.400000005960464
vertex 4 -1.5 0.400000005960464
vertex 4.5 0 0.400000005960464
endloop
endfacet
facet normal 0 0 1
outer loop
vertex 4 -1.5 0.400000005960464
vertex 4.5 -1.5 0.400000005960464
vertex 4.5 0 0.400000005960464
endloop
endfacet
facet normal -1 0 0
outer loop
vertex 4 3.01841884819964e-16 0.300000011920929
vertex 4 3.01841884819964e-16 0.400000005960464
vertex 4 1 0.400000005960464
endloop
endfacet
facet normal -1 0 0
outer loop
vertex 4 1 0.300000011920929
vertex 4 3.01841884819964e-16 0.300000011920929
vertex 4 1 0.400000005960464
endloop
endfacet
facet normal -0 -0 -1
outer loop
vertex 4 1 0.300000011920929
vertex 4.5 1 0.300000011920929
vertex 4 3.01841884819964e-16 0.300000011920929
endloop
endfacet
facet normal -0 -0 -1
outer loop
vertex 4 3.01841884819964e-16 0.300000011920929
vertex 4.5 1 0.300000011920929
vertex 4.5 0 0.300000011920929
endloop
endfacet
facet normal 0 0 1
outer loop
vertex 4 1 0.400000005960464
vertex 4 3.01841884819964e-16 0.400000005960464
vertex 4.5 1 0.400000005960464
endloop
endfacet
facet normal 0 0 1
outer loop
vertex 4 3.01841884819964e-16 0.400000005960464
vertex 4.5 0 0.400000005960464
vertex 4.5 1 0.400000005960464
endloop
endfacet
facet normal -1 0 0
outer loop
vertex 4 1 0.300000011920929
vertex 4 1 0.400000005960464
vertex 4 2 0.400000005960464
endloop
endfacet
facet normal -1 0 0
outer loop
vertex 4 2 0.300000011920929
vertex 4 1 0.300000011920929
vertex 4 2 0.400000005960464
endloop
endfacet
facet normal -0 -0 -1
outer loop
vertex 4 2 0.300000011920929
vertex 4.5 2 0.300000011920929
vertex 4 1 0.300000011920929
endloop
endfacet
facet normal -0 -0 -1
outer loop
vertex 4 1 0.300000011920929
vertex 4.5 2 0.300000011920929
vertex 4.5 1 0.300000011920929
endloop
endfacet
facet normal 0 0 1
outer loop
vertex 4 2 0.400000005960464
vertex 4 1 0.400000005960464
vertex 4.5 2 0.400000005960464
endloop
endfacet
facet normal 0 0 1
outer loop
vertex 4 1 0.400000005960464
vertex 4.5 1 0.400000005960464
vertex 4.5 2 0.400000005960464
endloop
endfacet
facet normal -1 0 0
outer loop
vertex 4 2 0.300000011920929
vertex 4 2 0.400000005960464
vertex 4 3 0.400000005960464
endloop
endfacet
facet normal -1 0 0
outer loop
vertex 4 3 0.300000011920929
vertex 4 2 0.300000011920929
vertex 4 3 0.400000005960464
endloop
endfacet
facet normal -0 -0 -1
outer loop
vertex 4 3 0.300000011920929
vertex 4.5 3 0.300000011920929
vertex 4 2 0.300000011920929
endloop
endfacet
facet normal -0 -0 -1
outer loop
vertex 4 2 0.300000011920929
vertex 4.5 3 0.300000011920929
vertex 4.5 2 0.300000011920929
endloop
endfacet
facet normal 0 0 1
outer loop
vertex 4 3 0.400000005960464
vertex 4 2 0.400000005960464
vertex 4.5 3 0.400000005960464
endloop
endfacet
facet normal 0 0 1
outer loop
vertex 4 2 0.400000005960464
vertex 4.5 2 0.400000005960464
vertex 4.5 3 0.400000005960464
endloop
endfacet
facet normal -0 -0 -1
outer loop
vertex 4 3.5 0.300000011920929
vertex 4.5 3.5 0.300000011920929
vertex 4 3 0.300000011920929
endloop
endfacet
facet normal -0 -0 -1
outer loop
vertex 4 3 0.300000011920929
vertex 4.5 3.5 0.300000011920929
vertex 4.5 3 0.300000011920929
endloop
endfacet
facet normal 0 0 1
outer loop
vertex 4 3.5 0.400000005960464
vertex 4 3 0.400000005960464
vertex 4.5 3.5 0.400000005960464
endloop
endfacet
facet normal 0 0 1
outer loop
vertex 4 3 0.400000005960464
vertex 4.5 3 0.400000005960464
vertex 4.5 3.5 0.400000005960464
endloop
endfacet
facet normal -0 1 -0
outer loop
vertex 4 3.5 0.400000005960464
vertex 4.5 3.5 0.400000005960464
vertex 4 3.5 0.300000011920929
endloop
endfacet
facet normal -0 1 -0
outer loop
vertex 4 3.5 0.300000011920929
vertex 4.5 3.5 0.400000005960464
vertex 4.5 3.5 0.300000011920929
endloop
endfacet
facet normal 1 -0 -0
outer loop
vertex 4.5 -4 0.300000011920929
vertex 4.5 -3.5 0.400000005960464
vertex 4.5 -4 0.400000005960464
endloop
endfacet
facet normal 1 -0 -0
outer loop
vertex 4.5 -3.5 0.300000011920929
vertex 4.5 -3.5 0.400000005960464
vertex 4.5 -4 0.300000011920929
endloop
endfacet
facet normal 1 -0 -0
outer loop
vertex 4.5 -3.5 0.300000011920929
vertex 4.5 -2.5 0.400000005960464
vertex 4.5 -3.5 0.400000005960464
endloop
endfacet
facet normal 1 -0 -0
outer loop
vertex 4.5 -2.5 0.300000011920929
vertex 4.5 -2.5 0.400000005960464
vertex 4.5 -3.5 0.300000011920929
endloop
endfacet
facet normal 1 -0 -0
outer loop
vertex 4.5 -2.5 0.300000011920929
vertex 4.5 -1.5 0.400000005960464
vertex 4.5 -2.5 0.400000005960464
endloop
endfacet
facet normal 1 -0 -0
outer loop
vertex 4.5 -1.5 0.300000011920929
vertex 4.5 -1.5 0.400000005960464
vertex 4.5 -2.5 0.300000011920929
endloop
endfacet
facet normal 1 -0 -0
outer loop
vertex 4.5 -1.5 0.300000011920929
vertex 4.5 0 0.400000005960464
vertex 4.5 -1.5 0.400000005960464
endloop
endfacet
facet normal 1 -0 -0
outer loop
vertex 4.5 0 0.300000011920929
vertex 4.5 0 0.400000005960464
vertex 4.5 -1.5 0.300000011920929
endloop
endfacet
facet normal 1 -0 -0
outer loop
vertex 4.5 0 0.300000011920929
vertex 4.5 1 0.400000005960464
vertex 4.5 0 0.400000005960464
endloop
endfacet
facet normal 1 -0 -0
outer loop
vertex 4.5 1 0.300000011920929
vertex 4.5 1 0.400000005960464
vertex 4.5 0 0.300000011920929
endloop
endfacet
facet normal 1 -0 -0
outer loop
vertex 4.5 1 0.300000011920929
vertex 4.5 2 0.400000005960464
vertex 4.5 1 0.400000005960464
endloop
endfacet
facet normal 1 -0 -0
outer loop
vertex 4.5 2 0.300000011920929
vertex 4.5 2 0.400000005960464
vertex 4.5 1 0.300000011920929
endloop
endfacet
facet normal 1 -0 -0
outer loop
vertex 4.5 2 0.300000011920929
vertex 4.5 3 0.400000005960464
vertex 4.5 2 0.400000005960464
endloop
endfacet
facet normal 1 -0 -0
outer loop
vertex 4.5 3 0.300000011920929
vertex 4.5 3 0.400000005960464
vertex 4.5 2 0.300000011920929
endloop
endfacet
facet normal 1 -0 -0
outer loop
vertex 4.5 3 0.300000011920929
vertex 4.5 3.5 0.400000005960464
vertex 4.5 3 0.400000005960464
endloop
endfacet
facet normal 1 -0 -0
outer loop
vertex 4.5 3.5 0.300000011920929
vertex 4.5 3.5 0.400000005960464
vertex 4.5 3 0.300000011920929
endloop
endfacet
endsolid COMSOL rendering object int1
