solid COMSOL rendering object ext4
facet normal -1 -0 -0
outer loop
vertex -6 0.5 0.400000005960464
vertex -6 0.75 0.400000005960464
vertex -6 0.5 0.300000011920929
endloop
endfacet
facet normal -1 -0 -0
outer loop
vertex -6 0.5 0.300000011920929
vertex -6 0.75 0.400000005960464
vertex -6 0.75 0.300000011920929
endloop
endfacet
facet normal -0 -1 0
outer loop
vertex -6 0.5 0.300000011920929
vertex -5.5 0.5 0.400000005960464
vertex -6 0.5 0.400000005960464
endloop
endfacet
facet normal -0 -1 0
outer loop
vertex -5.5 0.5 0.300000011920929
vertex -5.5 0.5 0.400000005960464
vertex -6 0.5 0.300000011920929
endloop
endfacet
facet normal -0 -0 -1
outer loop
vertex -6 0.75 0.300000011920929
vertex -5.5 0.75 0.300000011920929
vertex -6 0.5 0.300000011920929
endloop
endfacet
facet normal -0 -0 -1
outer loop
vertex -6 0.5 0.300000011920929
vertex -5.5 0.75 0.300000011920929
vertex -5.5 0.5 0.300000011920929
endloop
endfacet
facet normal 0 0 1
outer loop
vertex -6 0.75 0.400000005960464
vertex -6 0.5 0.400000005960464
vertex -5.5 0.75 0.400000005960464
endloop
endfacet
facet normal 0 0 1
outer loop
vertex -6 0.5 0.400000005960464
vertex -5.5 0.5 0.400000005960464
vertex -5.5 0.75 0.400000005960464
endloop
endfacet
facet normal -0 -1 0
outer loop
vertex -6 0.75 0.300000011920929
vertex -5.5 0.75 0.400000005960464
vertex -6 0.75 0.400000005960464
endloop
endfacet
facet normal -0 -1 0
outer loop
vertex -5.5 0.75 0.300000011920929
vertex -5.5 0.75 0.400000005960464
vertex -6 0.75 0.300000011920929
endloop
endfacet
facet normal 1 -0 -0
outer loop
vertex -5.5 0.5 0.300000011920929
vertex -5.5 0.75 0.400000005960464
vertex -5.5 0.5 0.400000005960464
endloop
endfacet
facet normal 1 -0 -0
outer loop
vertex -5.5 0.75 0.300000011920929
vertex -5.5 0.75 0.400000005960464
vertex -5.5 0.5 0.300000011920929
endloop
endfacet
endsolid COMSOL rendering object ext4
