solid COMSOL rendering object par2
facet normal -1 0 0
outer loop
vertex -2.65412693323716e-21 9.89999971352518e-05 1.22514849416739e-21
vertex -2.65412693323716e-21 9.89999971352518e-05 1.99999994947575e-05
vertex 0 0.000120999997307081 1.99999994947575e-05
endloop
endfacet
facet normal -1 0 0
outer loop
vertex 0 0.000120999997307081 1.22514849416739e-21
vertex -2.65412693323716e-21 9.89999971352518e-05 1.22514849416739e-21
vertex 0 0.000120999997307081 1.99999994947575e-05
endloop
endfacet
facet normal 0 -1 0
outer loop
vertex -2.65412693323716e-21 9.89999971352518e-05 1.22514849416739e-21
vertex 3.0999999580672e-05 9.89999971352518e-05 1.99999994947575e-05
vertex -2.65412693323716e-21 9.89999971352518e-05 1.99999994947575e-05
endloop
endfacet
facet normal 0 -1 0
outer loop
vertex 3.0999999580672e-05 9.89999971352518e-05 3.12412849351941e-21
vertex 3.0999999580672e-05 9.89999971352518e-05 1.99999994947575e-05
vertex -2.65412693323716e-21 9.89999971352518e-05 1.22514849416739e-21
endloop
endfacet
facet normal 6.1257422745431e-17 0 -1
outer loop
vertex 9.0000003183377e-06 0.000120999997307081 0
vertex 3.0999999580672e-05 9.89999971352518e-05 3.12412849351941e-21
vertex -2.65412693323716e-21 9.89999971352518e-05 1.22514849416739e-21
endloop
endfacet
facet normal 6.1257422745431e-17 0 -1
outer loop
vertex 0 0.000120999997307081 1.22514849416739e-21
vertex 9.0000003183377e-06 0.000120999997307081 0
vertex -2.65412693323716e-21 9.89999971352518e-05 1.22514849416739e-21
endloop
endfacet
facet normal 6.1257422745431e-17 0 -1
outer loop
vertex 9.0000003183377e-06 0.000120999997307081 0
vertex 3.0999999580672e-05 0.000120999997307081 2.23589585291854e-21
vertex 3.0999999580672e-05 9.89999971352518e-05 3.12412849351941e-21
endloop
endfacet
facet normal -3.32169793617286e-17 0 1
outer loop
vertex 9.0000003183377e-06 0.000120999997307081 1.99999994947575e-05
vertex -2.65412693323716e-21 9.89999971352518e-05 1.99999994947575e-05
vertex 3.0999999580672e-05 9.89999971352518e-05 1.99999994947575e-05
endloop
endfacet
facet normal -3.32169793617286e-17 0 1
outer loop
vertex 0 0.000120999997307081 1.99999994947575e-05
vertex -2.65412693323716e-21 9.89999971352518e-05 1.99999994947575e-05
vertex 9.0000003183377e-06 0.000120999997307081 1.99999994947575e-05
endloop
endfacet
facet normal -3.32169793617286e-17 0 1
outer loop
vertex 9.0000003183377e-06 0.000120999997307081 1.99999994947575e-05
vertex 3.0999999580672e-05 9.89999971352518e-05 1.99999994947575e-05
vertex 3.0999999580672e-05 0.000120999997307081 1.99999994947575e-05
endloop
endfacet
facet normal 0 1 0
outer loop
vertex 0 0.000120999997307081 1.22514849416739e-21
vertex 0 0.000120999997307081 1.99999994947575e-05
vertex 9.0000003183377e-06 0.000120999997307081 1.99999994947575e-05
endloop
endfacet
facet normal 0 1 0
outer loop
vertex 9.0000003183377e-06 0.000120999997307081 0
vertex 0 0.000120999997307081 1.22514849416739e-21
vertex 9.0000003183377e-06 0.000120999997307081 1.99999994947575e-05
endloop
endfacet
facet normal -1 0 -4.2351647362715e-17
outer loop
vertex 9.0000003183377e-06 0.000120999997307081 1.99999994947575e-05
vertex 9.0000003183377e-06 0.000218999994103797 1.99999994947575e-05
vertex 9.0000003183377e-06 0.000120999997307081 0
endloop
endfacet
facet normal -1 0 -4.2351647362715e-17
outer loop
vertex 9.0000003183377e-06 0.000120999997307081 0
vertex 9.0000003183377e-06 0.000218999994103797 1.99999994947575e-05
vertex 9.0000003183377e-06 0.000218999994103797 0
endloop
endfacet
facet normal 6.1257422745431e-17 0 -1
outer loop
vertex 9.0000003183377e-06 0.000218999994103797 0
vertex 3.0999999580672e-05 0.000218999994103797 1.34766331329187e-21
vertex 9.0000003183377e-06 0.000120999997307081 0
endloop
endfacet
facet normal 6.1257422745431e-17 0 -1
outer loop
vertex 9.0000003183377e-06 0.000120999997307081 0
vertex 3.0999999580672e-05 0.000218999994103797 1.34766331329187e-21
vertex 3.0999999580672e-05 0.000120999997307081 2.23589585291854e-21
endloop
endfacet
facet normal 0 0 1
outer loop
vertex 9.0000003183377e-06 0.000218999994103797 1.99999994947575e-05
vertex 9.0000003183377e-06 0.000120999997307081 1.99999994947575e-05
vertex 3.0999999580672e-05 0.000218999994103797 1.99999994947575e-05
endloop
endfacet
facet normal 0 0 1
outer loop
vertex 9.0000003183377e-06 0.000120999997307081 1.99999994947575e-05
vertex 3.0999999580672e-05 0.000120999997307081 1.99999994947575e-05
vertex 3.0999999580672e-05 0.000218999994103797 1.99999994947575e-05
endloop
endfacet
facet normal -1 -0 -4.2351647362715e-17
outer loop
vertex 9.0000003183377e-06 0.000218999994103797 1.99999994947575e-05
vertex 9.0000003183377e-06 0.000241000001551583 1.99999994947575e-05
vertex 9.0000003183377e-06 0.000218999994103797 0
endloop
endfacet
facet normal -1 -0 -4.2351647362715e-17
outer loop
vertex 9.0000003183377e-06 0.000218999994103797 0
vertex 9.0000003183377e-06 0.000241000001551583 1.99999994947575e-05
vertex 9.0000003183377e-06 0.000241000001551583 0
endloop
endfacet
facet normal 6.1257422745431e-17 -0 -1
outer loop
vertex 9.0000003183377e-06 0.000241000001551583 0
vertex 3.0999999580672e-05 0.000218999994103797 1.34766331329187e-21
vertex 9.0000003183377e-06 0.000218999994103797 0
endloop
endfacet
facet normal 6.1257422745431e-17 -0 -1
outer loop
vertex 0.000218999994103797 0.000218999994103797 0
vertex 0.000241000001551583 0.000241000001551583 1.42117222496139e-20
vertex 0.000241000001551583 0.000218999994103797 7.77969262999161e-21
endloop
endfacet
facet normal 6.1257422745431e-17 -0 -1
outer loop
vertex 9.0000003183377e-06 0.000241000001551583 0
vertex 0.000241000001551583 0.000241000001551583 1.42117222496139e-20
vertex 3.0999999580672e-05 0.000218999994103797 1.34766331329187e-21
endloop
endfacet
facet normal 6.1257422745431e-17 -0 -1
outer loop
vertex 3.0999999580672e-05 0.000218999994103797 1.34766331329187e-21
vertex 0.000241000001551583 0.000241000001551583 1.42117222496139e-20
vertex 0.000218999994103797 0.000218999994103797 0
endloop
endfacet
facet normal -5.84160639587563e-17 -0 1
outer loop
vertex 9.0000003183377e-06 0.000241000001551583 1.99999994947575e-05
vertex 9.0000003183377e-06 0.000218999994103797 1.99999994947575e-05
vertex 3.0999999580672e-05 0.000218999994103797 1.99999994947575e-05
endloop
endfacet
facet normal -5.84160639587563e-17 -0 1
outer loop
vertex 0.000218999994103797 0.000218999994103797 1.99999994947575e-05
vertex 0.000241000001551583 0.000218999994103797 1.99999994947575e-05
vertex 0.000241000001551583 0.000241000001551583 1.99999994947575e-05
endloop
endfacet
facet normal -5.84160639587563e-17 -0 1
outer loop
vertex 9.0000003183377e-06 0.000241000001551583 1.99999994947575e-05
vertex 3.0999999580672e-05 0.000218999994103797 1.99999994947575e-05
vertex 0.000241000001551583 0.000241000001551583 1.99999994947575e-05
endloop
endfacet
facet normal -5.84160639587563e-17 -0 1
outer loop
vertex 3.0999999580672e-05 0.000218999994103797 1.99999994947575e-05
vertex 0.000218999994103797 0.000218999994103797 1.99999994947575e-05
vertex 0.000241000001551583 0.000241000001551583 1.99999994947575e-05
endloop
endfacet
facet normal -0 1 -0
outer loop
vertex 9.0000003183377e-06 0.000241000001551583 0
vertex 9.0000003183377e-06 0.000241000001551583 1.99999994947575e-05
vertex 0.000241000001551583 0.000241000001551583 1.99999994947575e-05
endloop
endfacet
facet normal -0 1 -0
outer loop
vertex 0.000241000001551583 0.000241000001551583 1.42117222496139e-20
vertex 9.0000003183377e-06 0.000241000001551583 0
vertex 0.000241000001551583 0.000241000001551583 1.99999994947575e-05
endloop
endfacet
facet normal 1 0 0
outer loop
vertex 3.0999999580672e-05 9.89999971352518e-05 1.99999994947575e-05
vertex 3.0999999580672e-05 9.89999971352518e-05 3.12412849351941e-21
vertex 3.0999999580672e-05 0.000120999997307081 1.99999994947575e-05
endloop
endfacet
facet normal 1 0 0
outer loop
vertex 3.0999999580672e-05 9.89999971352518e-05 3.12412849351941e-21
vertex 3.0999999580672e-05 0.000120999997307081 2.23589585291854e-21
vertex 3.0999999580672e-05 0.000120999997307081 1.99999994947575e-05
endloop
endfacet
facet normal 1 -0 -0
outer loop
vertex 3.0999999580672e-05 0.000120999997307081 1.99999994947575e-05
vertex 3.0999999580672e-05 0.000120999997307081 2.23589585291854e-21
vertex 3.0999999580672e-05 0.000218999994103797 1.99999994947575e-05
endloop
endfacet
facet normal 1 -0 -0
outer loop
vertex 3.0999999580672e-05 0.000120999997307081 2.23589585291854e-21
vertex 3.0999999580672e-05 0.000218999994103797 1.34766331329187e-21
vertex 3.0999999580672e-05 0.000218999994103797 1.99999994947575e-05
endloop
endfacet
facet normal -0 -1 -0
outer loop
vertex 3.0999999580672e-05 0.000218999994103797 1.34766331329187e-21
vertex 0.000218999994103797 0.000218999994103797 1.99999994947575e-05
vertex 3.0999999580672e-05 0.000218999994103797 1.99999994947575e-05
endloop
endfacet
facet normal -0 -1 -0
outer loop
vertex 0.000218999994103797 0.000218999994103797 0
vertex 0.000218999994103797 0.000218999994103797 1.99999994947575e-05
vertex 3.0999999580672e-05 0.000218999994103797 1.34766331329187e-21
endloop
endfacet
facet normal -1 -0 -0
outer loop
vertex 4.8999998398358e-05 9.0000003183377e-06 1.99999994947575e-05
vertex 4.8999998398358e-05 3.0999999580672e-05 1.99999994947575e-05
vertex 4.8999998398358e-05 9.0000003183377e-06 0
endloop
endfacet
facet normal -1 -0 -0
outer loop
vertex 4.8999998398358e-05 9.0000003183377e-06 0
vertex 4.8999998398358e-05 3.0999999580672e-05 1.99999994947575e-05
vertex 4.8999998398358e-05 3.0999999580672e-05 0
endloop
endfacet
facet normal -0 -1 -0
outer loop
vertex 4.8999998398358e-05 9.0000003183377e-06 0
vertex 0.000241000001551583 9.0000003183377e-06 1.99999994947575e-05
vertex 4.8999998398358e-05 9.0000003183377e-06 1.99999994947575e-05
endloop
endfacet
facet normal -0 -1 -0
outer loop
vertex 0.000241000001551583 9.0000003183377e-06 1.17614250593308e-20
vertex 0.000241000001551583 9.0000003183377e-06 1.99999994947575e-05
vertex 4.8999998398358e-05 9.0000003183377e-06 0
endloop
endfacet
facet normal 6.1257422745431e-17 -0 -1
outer loop
vertex 0.000218999994103797 3.0999999580672e-05 0
vertex 0.000241000001551583 3.0999999580672e-05 6.55454403485003e-21
vertex 0.000241000001551583 9.0000003183377e-06 1.17614250593308e-20
endloop
endfacet
facet normal 6.1257422745431e-17 -0 -1
outer loop
vertex 4.8999998398358e-05 3.0999999580672e-05 0
vertex 7.10000022081658e-05 3.0999999580672e-05 1.34766331329187e-21
vertex 4.8999998398358e-05 9.0000003183377e-06 0
endloop
endfacet
facet normal 6.1257422745431e-17 -0 -1
outer loop
vertex 7.10000022081658e-05 3.0999999580672e-05 1.34766331329187e-21
vertex 0.000241000001551583 9.0000003183377e-06 1.17614250593308e-20
vertex 4.8999998398358e-05 9.0000003183377e-06 0
endloop
endfacet
facet normal 6.1257422745431e-17 -0 -1
outer loop
vertex 0.000218999994103797 3.0999999580672e-05 0
vertex 0.000241000001551583 9.0000003183377e-06 1.17614250593308e-20
vertex 7.10000022081658e-05 3.0999999580672e-05 1.34766331329187e-21
endloop
endfacet
facet normal -4.4116298233254e-17 -0 1
outer loop
vertex 0.000218999994103797 3.0999999580672e-05 1.99999994947575e-05
vertex 0.000241000001551583 9.0000003183377e-06 1.99999994947575e-05
vertex 0.000241000001551583 3.0999999580672e-05 1.99999994947575e-05
endloop
endfacet
facet normal -4.4116298233254e-17 -0 1
outer loop
vertex 4.8999998398358e-05 3.0999999580672e-05 1.99999994947575e-05
vertex 4.8999998398358e-05 9.0000003183377e-06 1.99999994947575e-05
vertex 7.10000022081658e-05 3.0999999580672e-05 1.99999994947575e-05
endloop
endfacet
facet normal -4.4116298233254e-17 -0 1
outer loop
vertex 7.10000022081658e-05 3.0999999580672e-05 1.99999994947575e-05
vertex 4.8999998398358e-05 9.0000003183377e-06 1.99999994947575e-05
vertex 0.000241000001551583 9.0000003183377e-06 1.99999994947575e-05
endloop
endfacet
facet normal -4.4116298233254e-17 -0 1
outer loop
vertex 0.000218999994103797 3.0999999580672e-05 1.99999994947575e-05
vertex 7.10000022081658e-05 3.0999999580672e-05 1.99999994947575e-05
vertex 0.000241000001551583 9.0000003183377e-06 1.99999994947575e-05
endloop
endfacet
facet normal -1 -0 -0
outer loop
vertex 4.8999998398358e-05 3.0999999580672e-05 1.99999994947575e-05
vertex 4.8999998398358e-05 0.000178999995114282 1.99999994947575e-05
vertex 4.8999998398358e-05 3.0999999580672e-05 0
endloop
endfacet
facet normal -1 -0 -0
outer loop
vertex 4.8999998398358e-05 3.0999999580672e-05 0
vertex 4.8999998398358e-05 0.000178999995114282 1.99999994947575e-05
vertex 4.8999998398358e-05 0.000178999995114282 0
endloop
endfacet
facet normal 6.1257422745431e-17 -0 -1
outer loop
vertex 4.8999998398358e-05 0.000178999995114282 0
vertex 7.10000022081658e-05 0.000178999995114282 1.34766331329187e-21
vertex 4.8999998398358e-05 3.0999999580672e-05 0
endloop
endfacet
facet normal 6.1257422745431e-17 -0 -1
outer loop
vertex 4.8999998398358e-05 3.0999999580672e-05 0
vertex 7.10000022081658e-05 0.000178999995114282 1.34766331329187e-21
vertex 7.10000022081658e-05 3.0999999580672e-05 1.34766331329187e-21
endloop
endfacet
facet normal -0 -0 1
outer loop
vertex 4.8999998398358e-05 0.000178999995114282 1.99999994947575e-05
vertex 4.8999998398358e-05 3.0999999580672e-05 1.99999994947575e-05
vertex 7.10000022081658e-05 0.000178999995114282 1.99999994947575e-05
endloop
endfacet
facet normal -0 -0 1
outer loop
vertex 4.8999998398358e-05 3.0999999580672e-05 1.99999994947575e-05
vertex 7.10000022081658e-05 3.0999999580672e-05 1.99999994947575e-05
vertex 7.10000022081658e-05 0.000178999995114282 1.99999994947575e-05
endloop
endfacet
facet normal -1 -0 -0
outer loop
vertex 4.8999998398358e-05 0.000178999995114282 1.99999994947575e-05
vertex 4.8999998398358e-05 0.000201000002562068 1.99999994947575e-05
vertex 4.8999998398358e-05 0.000178999995114282 0
endloop
endfacet
facet normal -1 -0 -0
outer loop
vertex 4.8999998398358e-05 0.000178999995114282 0
vertex 4.8999998398358e-05 0.000201000002562068 1.99999994947575e-05
vertex 4.8999998398358e-05 0.000201000002562068 0
endloop
endfacet
facet normal 6.1257422745431e-17 -0 -1
outer loop
vertex 4.8999998398358e-05 0.000201000002562068 0
vertex 7.10000022081658e-05 0.000178999995114282 1.34766331329187e-21
vertex 4.8999998398358e-05 0.000178999995114282 0
endloop
endfacet
facet normal 6.1257422745431e-17 -0 -1
outer loop
vertex 0.000178999995114282 0.000178999995114282 0
vertex 0.000201000002562068 0.000201000002562068 9.31112786904761e-21
vertex 0.000201000002562068 0.000178999995114282 5.32939584360523e-21
endloop
endfacet
facet normal 6.1257422745431e-17 -0 -1
outer loop
vertex 4.8999998398358e-05 0.000201000002562068 0
vertex 0.000201000002562068 0.000201000002562068 9.31112786904761e-21
vertex 7.10000022081658e-05 0.000178999995114282 1.34766331329187e-21
endloop
endfacet
facet normal 6.1257422745431e-17 -0 -1
outer loop
vertex 7.10000022081658e-05 0.000178999995114282 1.34766331329187e-21
vertex 0.000201000002562068 0.000201000002562068 9.31112786904761e-21
vertex 0.000178999995114282 0.000178999995114282 0
endloop
endfacet
facet normal -5.57258542310521e-17 -0 1
outer loop
vertex 4.8999998398358e-05 0.000201000002562068 1.99999994947575e-05
vertex 4.8999998398358e-05 0.000178999995114282 1.99999994947575e-05
vertex 7.10000022081658e-05 0.000178999995114282 1.99999994947575e-05
endloop
endfacet
facet normal -5.57258542310521e-17 -0 1
outer loop
vertex 0.000178999995114282 0.000178999995114282 1.99999994947575e-05
vertex 0.000201000002562068 0.000178999995114282 1.99999994947575e-05
vertex 0.000201000002562068 0.000201000002562068 1.99999994947575e-05
endloop
endfacet
facet normal -5.57258542310521e-17 -0 1
outer loop
vertex 4.8999998398358e-05 0.000201000002562068 1.99999994947575e-05
vertex 7.10000022081658e-05 0.000178999995114282 1.99999994947575e-05
vertex 0.000201000002562068 0.000201000002562068 1.99999994947575e-05
endloop
endfacet
facet normal -5.57258542310521e-17 -0 1
outer loop
vertex 7.10000022081658e-05 0.000178999995114282 1.99999994947575e-05
vertex 0.000178999995114282 0.000178999995114282 1.99999994947575e-05
vertex 0.000201000002562068 0.000201000002562068 1.99999994947575e-05
endloop
endfacet
facet normal -0 1 -0
outer loop
vertex 4.8999998398358e-05 0.000201000002562068 0
vertex 4.8999998398358e-05 0.000201000002562068 1.99999994947575e-05
vertex 0.000201000002562068 0.000201000002562068 1.99999994947575e-05
endloop
endfacet
facet normal -0 1 -0
outer loop
vertex 0.000201000002562068 0.000201000002562068 9.31112786904761e-21
vertex 4.8999998398358e-05 0.000201000002562068 0
vertex 0.000201000002562068 0.000201000002562068 1.99999994947575e-05
endloop
endfacet
facet normal 1 -0 -0
outer loop
vertex 7.10000022081658e-05 3.0999999580672e-05 1.99999994947575e-05
vertex 7.10000022081658e-05 3.0999999580672e-05 1.34766331329187e-21
vertex 7.10000022081658e-05 0.000178999995114282 1.99999994947575e-05
endloop
endfacet
facet normal 1 -0 -0
outer loop
vertex 7.10000022081658e-05 3.0999999580672e-05 1.34766331329187e-21
vertex 7.10000022081658e-05 0.000178999995114282 1.34766331329187e-21
vertex 7.10000022081658e-05 0.000178999995114282 1.99999994947575e-05
endloop
endfacet
facet normal -0 1 -0
outer loop
vertex 7.10000022081658e-05 3.0999999580672e-05 1.34766331329187e-21
vertex 7.10000022081658e-05 3.0999999580672e-05 1.99999994947575e-05
vertex 0.000218999994103797 3.0999999580672e-05 1.99999994947575e-05
endloop
endfacet
facet normal -0 1 -0
outer loop
vertex 0.000218999994103797 3.0999999580672e-05 0
vertex 7.10000022081658e-05 3.0999999580672e-05 1.34766331329187e-21
vertex 0.000218999994103797 3.0999999580672e-05 1.99999994947575e-05
endloop
endfacet
facet normal -0 -1 -0
outer loop
vertex 7.10000022081658e-05 0.000178999995114282 1.34766331329187e-21
vertex 0.000178999995114282 0.000178999995114282 1.99999994947575e-05
vertex 7.10000022081658e-05 0.000178999995114282 1.99999994947575e-05
endloop
endfacet
facet normal -0 -1 -0
outer loop
vertex 0.000178999995114282 0.000178999995114282 0
vertex 0.000178999995114282 0.000178999995114282 1.99999994947575e-05
vertex 7.10000022081658e-05 0.000178999995114282 1.34766331329187e-21
endloop
endfacet
facet normal -1 -0 -0
outer loop
vertex 8.90000010258518e-05 4.8999998398358e-05 1.99999994947575e-05
vertex 8.90000010258518e-05 7.10000022081658e-05 1.99999994947575e-05
vertex 8.90000010258518e-05 4.8999998398358e-05 0
endloop
endfacet
facet normal -1 -0 -0
outer loop
vertex 8.90000010258518e-05 4.8999998398358e-05 0
vertex 8.90000010258518e-05 7.10000022081658e-05 1.99999994947575e-05
vertex 8.90000010258518e-05 7.10000022081658e-05 0
endloop
endfacet
facet normal -0 -1 -0
outer loop
vertex 8.90000010258518e-05 4.8999998398358e-05 0
vertex 0.000201000002562068 4.8999998398358e-05 1.99999994947575e-05
vertex 8.90000010258518e-05 4.8999998398358e-05 1.99999994947575e-05
endloop
endfacet
facet normal -0 -1 -0
outer loop
vertex 0.000201000002562068 4.8999998398358e-05 6.86083148655801e-21
vertex 0.000201000002562068 4.8999998398358e-05 1.99999994947575e-05
vertex 8.90000010258518e-05 4.8999998398358e-05 0
endloop
endfacet
facet normal 6.1257422745431e-17 -0 -1
outer loop
vertex 0.000178999995114282 7.10000022081658e-05 0
vertex 0.000201000002562068 7.10000022081658e-05 4.10424724846365e-21
vertex 0.000201000002562068 4.8999998398358e-05 6.86083148655801e-21
endloop
endfacet
facet normal 6.1257422745431e-17 -0 -1
outer loop
vertex 8.90000010258518e-05 7.10000022081658e-05 0
vertex 0.000111000001197681 7.10000022081658e-05 1.34766331329187e-21
vertex 8.90000010258518e-05 4.8999998398358e-05 0
endloop
endfacet
facet normal 6.1257422745431e-17 -0 -1
outer loop
vertex 0.000111000001197681 7.10000022081658e-05 1.34766331329187e-21
vertex 0.000201000002562068 4.8999998398358e-05 6.86083148655801e-21
vertex 8.90000010258518e-05 4.8999998398358e-05 0
endloop
endfacet
facet normal 6.1257422745431e-17 -0 -1
outer loop
vertex 0.000178999995114282 7.10000022081658e-05 0
vertex 0.000201000002562068 4.8999998398358e-05 6.86083148655801e-21
vertex 0.000111000001197681 7.10000022081658e-05 1.34766331329187e-21
endloop
endfacet
facet normal -3.02511762149789e-17 -0 1
outer loop
vertex 0.000178999995114282 7.10000022081658e-05 1.99999994947575e-05
vertex 0.000201000002562068 4.8999998398358e-05 1.99999994947575e-05
vertex 0.000201000002562068 7.10000022081658e-05 1.99999994947575e-05
endloop
endfacet
facet normal -3.02511762149789e-17 -0 1
outer loop
vertex 8.90000010258518e-05 7.10000022081658e-05 1.99999994947575e-05
vertex 8.90000010258518e-05 4.8999998398358e-05 1.99999994947575e-05
vertex 0.000111000001197681 7.10000022081658e-05 1.99999994947575e-05
endloop
endfacet
facet normal -3.02511762149789e-17 -0 1
outer loop
vertex 0.000111000001197681 7.10000022081658e-05 1.99999994947575e-05
vertex 8.90000010258518e-05 4.8999998398358e-05 1.99999994947575e-05
vertex 0.000201000002562068 4.8999998398358e-05 1.99999994947575e-05
endloop
endfacet
facet normal -3.02511762149789e-17 -0 1
outer loop
vertex 0.000178999995114282 7.10000022081658e-05 1.99999994947575e-05
vertex 0.000111000001197681 7.10000022081658e-05 1.99999994947575e-05
vertex 0.000201000002562068 4.8999998398358e-05 1.99999994947575e-05
endloop
endfacet
facet normal -1 -0 -0
outer loop
vertex 8.90000010258518e-05 7.10000022081658e-05 1.99999994947575e-05
vertex 8.90000010258518e-05 0.000138999996124767 1.99999994947575e-05
vertex 8.90000010258518e-05 7.10000022081658e-05 0
endloop
endfacet
facet normal -1 -0 -0
outer loop
vertex 8.90000010258518e-05 7.10000022081658e-05 0
vertex 8.90000010258518e-05 0.000138999996124767 1.99999994947575e-05
vertex 8.90000010258518e-05 0.000138999996124767 0
endloop
endfacet
facet normal 6.1257422745431e-17 -0 -1
outer loop
vertex 8.90000010258518e-05 0.000138999996124767 0
vertex 0.000111000001197681 0.000138999996124767 1.34766331329187e-21
vertex 8.90000010258518e-05 7.10000022081658e-05 0
endloop
endfacet
facet normal 6.1257422745431e-17 -0 -1
outer loop
vertex 8.90000010258518e-05 7.10000022081658e-05 0
vertex 0.000111000001197681 0.000138999996124767 1.34766331329187e-21
vertex 0.000111000001197681 7.10000022081658e-05 1.34766331329187e-21
endloop
endfacet
facet normal -0 -0 1
outer loop
vertex 8.90000010258518e-05 0.000138999996124767 1.99999994947575e-05
vertex 8.90000010258518e-05 7.10000022081658e-05 1.99999994947575e-05
vertex 0.000111000001197681 0.000138999996124767 1.99999994947575e-05
endloop
endfacet
facet normal -0 -0 1
outer loop
vertex 8.90000010258518e-05 7.10000022081658e-05 1.99999994947575e-05
vertex 0.000111000001197681 7.10000022081658e-05 1.99999994947575e-05
vertex 0.000111000001197681 0.000138999996124767 1.99999994947575e-05
endloop
endfacet
facet normal -1 -0 -0
outer loop
vertex 8.90000010258518e-05 0.000138999996124767 1.99999994947575e-05
vertex 8.90000010258518e-05 0.000161000003572553 1.99999994947575e-05
vertex 8.90000010258518e-05 0.000138999996124767 0
endloop
endfacet
facet normal -1 -0 -0
outer loop
vertex 8.90000010258518e-05 0.000138999996124767 0
vertex 8.90000010258518e-05 0.000161000003572553 1.99999994947575e-05
vertex 8.90000010258518e-05 0.000161000003572553 0
endloop
endfacet
facet normal 6.1257422745431e-17 -0 -1
outer loop
vertex 8.90000010258518e-05 0.000161000003572553 0
vertex 0.000111000001197681 0.000138999996124767 1.34766331329187e-21
vertex 8.90000010258518e-05 0.000138999996124767 0
endloop
endfacet
facet normal 6.1257422745431e-17 -0 -1
outer loop
vertex 0.000111000001197681 0.000138999996124767 1.34766331329187e-21
vertex 0.000128999992739409 0.000161000003572553 0
vertex 0.000128999992739409 0.000138999996124767 0
endloop
endfacet
facet normal 6.1257422745431e-17 -0 -1
outer loop
vertex 8.90000010258518e-05 0.000161000003572553 0
vertex 0.000128999992739409 0.000161000003572553 0
vertex 0.000111000001197681 0.000138999996124767 1.34766331329187e-21
endloop
endfacet
facet normal -2.73236434064496e-17 -0 1
outer loop
vertex 8.90000010258518e-05 0.000161000003572553 1.99999994947575e-05
vertex 8.90000010258518e-05 0.000138999996124767 1.99999994947575e-05
vertex 0.000111000001197681 0.000138999996124767 1.99999994947575e-05
endloop
endfacet
facet normal -2.73236434064496e-17 -0 1
outer loop
vertex 8.90000010258518e-05 0.000161000003572553 1.99999994947575e-05
vertex 0.000111000001197681 0.000138999996124767 1.99999994947575e-05
vertex 0.000151000000187196 0.000161000003572553 1.99999994947575e-05
endloop
endfacet
facet normal -2.73236434064496e-17 -0 1
outer loop
vertex 0.000111000001197681 0.000138999996124767 1.99999994947575e-05
vertex 0.000151000000187196 0.000138999996124767 1.99999994947575e-05
vertex 0.000151000000187196 0.000161000003572553 1.99999994947575e-05
endloop
endfacet
facet normal -0 1 -0
outer loop
vertex 8.90000010258518e-05 0.000161000003572553 0
vertex 8.90000010258518e-05 0.000161000003572553 1.99999994947575e-05
vertex 0.000128999992739409 0.000161000003572553 0
endloop
endfacet
facet normal -0 1 -0
outer loop
vertex 0.000128999992739409 0.000161000003572553 0
vertex 8.90000010258518e-05 0.000161000003572553 1.99999994947575e-05
vertex 0.000151000000187196 0.000161000003572553 1.99999994947575e-05
endloop
endfacet
facet normal -0 1 -0
outer loop
vertex 0.000151000000187196 0.000161000003572553 3.79796020065245e-21
vertex 0.000128999992739409 0.000161000003572553 0
vertex 0.000151000000187196 0.000161000003572553 1.99999994947575e-05
endloop
endfacet
facet normal 1 -0 -0
outer loop
vertex 0.000111000001197681 7.10000022081658e-05 1.99999994947575e-05
vertex 0.000111000001197681 7.10000022081658e-05 1.34766331329187e-21
vertex 0.000111000001197681 0.000138999996124767 1.99999994947575e-05
endloop
endfacet
facet normal 1 -0 -0
outer loop
vertex 0.000111000001197681 7.10000022081658e-05 1.34766331329187e-21
vertex 0.000111000001197681 0.000138999996124767 1.34766331329187e-21
vertex 0.000111000001197681 0.000138999996124767 1.99999994947575e-05
endloop
endfacet
facet normal -0 1 -0
outer loop
vertex 0.000111000001197681 7.10000022081658e-05 1.34766331329187e-21
vertex 0.000111000001197681 7.10000022081658e-05 1.99999994947575e-05
vertex 0.000178999995114282 7.10000022081658e-05 1.99999994947575e-05
endloop
endfacet
facet normal -0 1 -0
outer loop
vertex 0.000178999995114282 7.10000022081658e-05 0
vertex 0.000111000001197681 7.10000022081658e-05 1.34766331329187e-21
vertex 0.000178999995114282 7.10000022081658e-05 1.99999994947575e-05
endloop
endfacet
facet normal -0 -1 -0
outer loop
vertex 0.000111000001197681 0.000138999996124767 1.34766331329187e-21
vertex 0.000128999992739409 0.000138999996124767 0
vertex 0.000111000001197681 0.000138999996124767 1.99999994947575e-05
endloop
endfacet
facet normal -0 -1 -0
outer loop
vertex 0.000128999992739409 0.000138999996124767 0
vertex 0.000151000000187196 0.000138999996124767 1.99999994947575e-05
vertex 0.000111000001197681 0.000138999996124767 1.99999994947575e-05
endloop
endfacet
facet normal -0 -1 -0
outer loop
vertex 0.000151000000187196 0.000138999996124767 3.79796020065245e-21
vertex 0.000151000000187196 0.000138999996124767 1.99999994947575e-05
vertex 0.000128999992739409 0.000138999996124767 0
endloop
endfacet
facet normal -1 -0 -0
outer loop
vertex 0.000128999992739409 0.000138999996124767 -2.70000000455184e-05
vertex 0.000128999992739409 0.000138999996124767 0
vertex 0.000128999992739409 0.000161000003572553 0
endloop
endfacet
facet normal -1 -0 -0
outer loop
vertex 0.000128999992739409 0.000161000003572553 -2.70000000455184e-05
vertex 0.000128999992739409 0.000138999996124767 -2.70000000455184e-05
vertex 0.000128999992739409 0.000161000003572553 0
endloop
endfacet
facet normal -0 -1 -0
outer loop
vertex 0.000128999992739409 0.000138999996124767 -2.70000000455184e-05
vertex 0.000151000000187196 0.000138999996124767 -4.99999987368938e-06
vertex 0.000128999992739409 0.000138999996124767 0
endloop
endfacet
facet normal -0 -1 -0
outer loop
vertex 0.000151000000187196 0.000138999996124767 -4.99999987368938e-06
vertex 0.000270999997155741 0.000138999996124767 -2.70000000455184e-05
vertex 0.000249000004259869 0.000138999996124767 -4.99999987368938e-06
endloop
endfacet
facet normal -0 -1 -0
outer loop
vertex 0.000128999992739409 0.000138999996124767 -2.70000000455184e-05
vertex 0.000270999997155741 0.000138999996124767 -2.70000000455184e-05
vertex 0.000151000000187196 0.000138999996124767 -4.99999987368938e-06
endloop
endfacet
facet normal -0 -1 -0
outer loop
vertex 0.000151000000187196 0.000138999996124767 -4.99999987368938e-06
vertex 0.000151000000187196 0.000138999996124767 3.79796020065245e-21
vertex 0.000128999992739409 0.000138999996124767 0
endloop
endfacet
facet normal -0 -1 -0
outer loop
vertex 0.000249000004259869 0.000138999996124767 -4.99999987368938e-06
vertex 0.000270999997155741 0.000138999996124767 0
vertex 0.000249000004259869 0.000138999996124767 0
endloop
endfacet
facet normal -0 -1 -0
outer loop
vertex 0.000270999997155741 0.000138999996124767 -2.70000000455184e-05
vertex 0.000270999997155741 0.000138999996124767 0
vertex 0.000249000004259869 0.000138999996124767 -4.99999987368938e-06
endloop
endfacet
facet normal -0 -0 -1
outer loop
vertex 0.000128999992739409 0.000161000003572553 -2.70000000455184e-05
vertex 0.000270999997155741 0.000161000003572553 -2.70000000455184e-05
vertex 0.000128999992739409 0.000138999996124767 -2.70000000455184e-05
endloop
endfacet
facet normal -0 -0 -1
outer loop
vertex 0.000128999992739409 0.000138999996124767 -2.70000000455184e-05
vertex 0.000270999997155741 0.000161000003572553 -2.70000000455184e-05
vertex 0.000270999997155741 0.000138999996124767 -2.70000000455184e-05
endloop
endfacet
facet normal 0 1 0
outer loop
vertex 0.000128999992739409 0.000161000003572553 -2.70000000455184e-05
vertex 0.000128999992739409 0.000161000003572553 0
vertex 0.000151000000187196 0.000161000003572553 -4.99999987368938e-06
endloop
endfacet
facet normal 0 1 0
outer loop
vertex 0.000151000000187196 0.000161000003572553 -4.99999987368938e-06
vertex 0.000249000004259869 0.000161000003572553 -4.99999987368938e-06
vertex 0.000270999997155741 0.000161000003572553 -2.70000000455184e-05
endloop
endfacet
facet normal 0 1 0
outer loop
vertex 0.000128999992739409 0.000161000003572553 -2.70000000455184e-05
vertex 0.000151000000187196 0.000161000003572553 -4.99999987368938e-06
vertex 0.000270999997155741 0.000161000003572553 -2.70000000455184e-05
endloop
endfacet
facet normal 0 1 0
outer loop
vertex 0.000151000000187196 0.000161000003572553 -4.99999987368938e-06
vertex 0.000128999992739409 0.000161000003572553 0
vertex 0.000151000000187196 0.000161000003572553 3.79796020065245e-21
endloop
endfacet
facet normal 0 1 0
outer loop
vertex 0.000249000004259869 0.000161000003572553 -4.99999987368938e-06
vertex 0.000249000004259869 0.000161000003572553 0
vertex 0.000270999997155741 0.000161000003572553 0
endloop
endfacet
facet normal 0 1 0
outer loop
vertex 0.000270999997155741 0.000161000003572553 -2.70000000455184e-05
vertex 0.000249000004259869 0.000161000003572553 -4.99999987368938e-06
vertex 0.000270999997155741 0.000161000003572553 0
endloop
endfacet
facet normal 1 -0 -0
outer loop
vertex 0.000151000000187196 0.000138999996124767 -4.99999987368938e-06
vertex 0.000151000000187196 0.000161000003572553 3.79796020065245e-21
vertex 0.000151000000187196 0.000138999996124767 3.79796020065245e-21
endloop
endfacet
facet normal 1 -0 -0
outer loop
vertex 0.000151000000187196 0.000161000003572553 -4.99999987368938e-06
vertex 0.000151000000187196 0.000161000003572553 3.79796020065245e-21
vertex 0.000151000000187196 0.000138999996124767 -4.99999987368938e-06
endloop
endfacet
facet normal -0 -0 1
outer loop
vertex 0.000151000000187196 0.000161000003572553 -4.99999987368938e-06
vertex 0.000151000000187196 0.000138999996124767 -4.99999987368938e-06
vertex 0.000249000004259869 0.000161000003572553 -4.99999987368938e-06
endloop
endfacet
facet normal -0 -0 1
outer loop
vertex 0.000151000000187196 0.000138999996124767 -4.99999987368938e-06
vertex 0.000249000004259869 0.000138999996124767 -4.99999987368938e-06
vertex 0.000249000004259869 0.000161000003572553 -4.99999987368938e-06
endloop
endfacet
facet normal 1 -0 -0
outer loop
vertex 0.000151000000187196 0.000138999996124767 1.99999994947575e-05
vertex 0.000151000000187196 0.000138999996124767 3.79796020065245e-21
vertex 0.000151000000187196 0.000161000003572553 1.99999994947575e-05
endloop
endfacet
facet normal 1 -0 -0
outer loop
vertex 0.000151000000187196 0.000138999996124767 3.79796020065245e-21
vertex 0.000151000000187196 0.000161000003572553 3.79796020065245e-21
vertex 0.000151000000187196 0.000161000003572553 1.99999994947575e-05
endloop
endfacet
facet normal -1 -0 -0
outer loop
vertex 0.000178999995114282 7.10000022081658e-05 1.99999994947575e-05
vertex 0.000178999995114282 0.000178999995114282 1.99999994947575e-05
vertex 0.000178999995114282 7.10000022081658e-05 0
endloop
endfacet
facet normal -1 -0 -0
outer loop
vertex 0.000178999995114282 7.10000022081658e-05 0
vertex 0.000178999995114282 0.000178999995114282 1.99999994947575e-05
vertex 0.000178999995114282 0.000178999995114282 0
endloop
endfacet
facet normal 6.1257422745431e-17 -0 -1
outer loop
vertex 0.000178999995114282 0.000178999995114282 0
vertex 0.000201000002562068 0.000178999995114282 5.32939584360523e-21
vertex 0.000178999995114282 7.10000022081658e-05 0
endloop
endfacet
facet normal 6.1257422745431e-17 -0 -1
outer loop
vertex 0.000178999995114282 7.10000022081658e-05 0
vertex 0.000201000002562068 0.000178999995114282 5.32939584360523e-21
vertex 0.000201000002562068 7.10000022081658e-05 4.10424724846365e-21
endloop
endfacet
facet normal -0 -0 1
outer loop
vertex 0.000178999995114282 0.000178999995114282 1.99999994947575e-05
vertex 0.000178999995114282 7.10000022081658e-05 1.99999994947575e-05
vertex 0.000201000002562068 0.000178999995114282 1.99999994947575e-05
endloop
endfacet
facet normal -0 -0 1
outer loop
vertex 0.000178999995114282 7.10000022081658e-05 1.99999994947575e-05
vertex 0.000201000002562068 7.10000022081658e-05 1.99999994947575e-05
vertex 0.000201000002562068 0.000178999995114282 1.99999994947575e-05
endloop
endfacet
facet normal 1 -0 -0
outer loop
vertex 0.000201000002562068 4.8999998398358e-05 1.99999994947575e-05
vertex 0.000201000002562068 4.8999998398358e-05 6.86083148655801e-21
vertex 0.000201000002562068 7.10000022081658e-05 1.99999994947575e-05
endloop
endfacet
facet normal 1 -0 -0
outer loop
vertex 0.000201000002562068 4.8999998398358e-05 6.86083148655801e-21
vertex 0.000201000002562068 7.10000022081658e-05 4.10424724846365e-21
vertex 0.000201000002562068 7.10000022081658e-05 1.99999994947575e-05
endloop
endfacet
facet normal 1 -0 -0
outer loop
vertex 0.000201000002562068 7.10000022081658e-05 1.99999994947575e-05
vertex 0.000201000002562068 7.10000022081658e-05 4.10424724846365e-21
vertex 0.000201000002562068 0.000178999995114282 1.99999994947575e-05
endloop
endfacet
facet normal 1 -0 -0
outer loop
vertex 0.000201000002562068 7.10000022081658e-05 4.10424724846365e-21
vertex 0.000201000002562068 0.000178999995114282 5.32939584360523e-21
vertex 0.000201000002562068 0.000178999995114282 1.99999994947575e-05
endloop
endfacet
facet normal 1 -0 -0
outer loop
vertex 0.000201000002562068 0.000178999995114282 1.99999994947575e-05
vertex 0.000201000002562068 0.000178999995114282 5.32939584360523e-21
vertex 0.000201000002562068 0.000201000002562068 1.99999994947575e-05
endloop
endfacet
facet normal 1 -0 -0
outer loop
vertex 0.000201000002562068 0.000178999995114282 5.32939584360523e-21
vertex 0.000201000002562068 0.000201000002562068 9.31112786904761e-21
vertex 0.000201000002562068 0.000201000002562068 1.99999994947575e-05
endloop
endfacet
facet normal -1 -0 -0
outer loop
vertex 0.000218999994103797 3.0999999580672e-05 1.99999994947575e-05
vertex 0.000218999994103797 0.000218999994103797 1.99999994947575e-05
vertex 0.000218999994103797 3.0999999580672e-05 0
endloop
endfacet
facet normal -1 -0 -0
outer loop
vertex 0.000218999994103797 3.0999999580672e-05 0
vertex 0.000218999994103797 0.000218999994103797 1.99999994947575e-05
vertex 0.000218999994103797 0.000218999994103797 0
endloop
endfacet
facet normal 6.1257422745431e-17 -0 -1
outer loop
vertex 0.000218999994103797 0.000218999994103797 0
vertex 0.000241000001551583 0.000218999994103797 7.77969262999161e-21
vertex 0.000218999994103797 3.0999999580672e-05 0
endloop
endfacet
facet normal 6.1257422745431e-17 -0 -1
outer loop
vertex 0.000218999994103797 3.0999999580672e-05 0
vertex 0.000241000001551583 0.000218999994103797 7.77969262999161e-21
vertex 0.000241000001551583 3.0999999580672e-05 6.55454403485003e-21
endloop
endfacet
facet normal -0 -0 1
outer loop
vertex 0.000218999994103797 0.000218999994103797 1.99999994947575e-05
vertex 0.000218999994103797 3.0999999580672e-05 1.99999994947575e-05
vertex 0.000241000001551583 0.000218999994103797 1.99999994947575e-05
endloop
endfacet
facet normal -0 -0 1
outer loop
vertex 0.000218999994103797 3.0999999580672e-05 1.99999994947575e-05
vertex 0.000241000001551583 3.0999999580672e-05 1.99999994947575e-05
vertex 0.000241000001551583 0.000218999994103797 1.99999994947575e-05
endloop
endfacet
facet normal 1 -0 -0
outer loop
vertex 0.000241000001551583 9.0000003183377e-06 1.99999994947575e-05
vertex 0.000241000001551583 9.0000003183377e-06 1.17614250593308e-20
vertex 0.000241000001551583 3.0999999580672e-05 1.99999994947575e-05
endloop
endfacet
facet normal 1 -0 -0
outer loop
vertex 0.000241000001551583 9.0000003183377e-06 1.17614250593308e-20
vertex 0.000241000001551583 3.0999999580672e-05 6.55454403485003e-21
vertex 0.000241000001551583 3.0999999580672e-05 1.99999994947575e-05
endloop
endfacet
facet normal 1 -0 -0
outer loop
vertex 0.000241000001551583 3.0999999580672e-05 1.99999994947575e-05
vertex 0.000241000001551583 3.0999999580672e-05 6.55454403485003e-21
vertex 0.000241000001551583 0.000218999994103797 1.99999994947575e-05
endloop
endfacet
facet normal 1 -0 -0
outer loop
vertex 0.000241000001551583 3.0999999580672e-05 6.55454403485003e-21
vertex 0.000241000001551583 0.000218999994103797 7.77969262999161e-21
vertex 0.000241000001551583 0.000218999994103797 1.99999994947575e-05
endloop
endfacet
facet normal 1 -0 -0
outer loop
vertex 0.000241000001551583 0.000218999994103797 1.99999994947575e-05
vertex 0.000241000001551583 0.000218999994103797 7.77969262999161e-21
vertex 0.000241000001551583 0.000241000001551583 1.99999994947575e-05
endloop
endfacet
facet normal 1 -0 -0
outer loop
vertex 0.000241000001551583 0.000218999994103797 7.77969262999161e-21
vertex 0.000241000001551583 0.000241000001551583 1.42117222496139e-20
vertex 0.000241000001551583 0.000241000001551583 1.99999994947575e-05
endloop
endfacet
facet normal -1 -0 -0
outer loop
vertex 0.000249000004259869 0.000138999996124767 -4.99999987368938e-06
vertex 0.000249000004259869 0.000138999996124767 0
vertex 0.000249000004259869 0.000161000003572553 0
endloop
endfacet
facet normal -1 -0 -0
outer loop
vertex 0.000249000004259869 0.000161000003572553 -4.99999987368938e-06
vertex 0.000249000004259869 0.000138999996124767 -4.99999987368938e-06
vertex 0.000249000004259869 0.000161000003572553 0
endloop
endfacet
facet normal -1 -0 -0
outer loop
vertex 0.000249000004259869 0.000138999996124767 1.99999994947575e-05
vertex 0.000249000004259869 0.000161000003572553 1.99999994947575e-05
vertex 0.000249000004259869 0.000138999996124767 0
endloop
endfacet
facet normal -1 -0 -0
outer loop
vertex 0.000249000004259869 0.000138999996124767 0
vertex 0.000249000004259869 0.000161000003572553 1.99999994947575e-05
vertex 0.000249000004259869 0.000161000003572553 0
endloop
endfacet
facet normal -0 -1 -0
outer loop
vertex 0.000249000004259869 0.000138999996124767 0
vertex 0.000270999997155741 0.000138999996124767 0
vertex 0.000249000004259869 0.000138999996124767 1.99999994947575e-05
endloop
endfacet
facet normal -0 -1 -0
outer loop
vertex 0.000270999997155741 0.000138999996124767 0
vertex 0.00028000000747852 0.000138999996124767 1.99999994947575e-05
vertex 0.000249000004259869 0.000138999996124767 1.99999994947575e-05
endloop
endfacet
facet normal -0 -1 -0
outer loop
vertex 0.00028000000747852 0.000138999996124767 1.89898010032622e-21
vertex 0.00028000000747852 0.000138999996124767 1.99999994947575e-05
vertex 0.000270999997155741 0.000138999996124767 0
endloop
endfacet
facet normal -3.32169793617286e-17 0 1
outer loop
vertex 0.000249000004259869 0.000161000003572553 1.99999994947575e-05
vertex 0.000249000004259869 0.000138999996124767 1.99999994947575e-05
vertex 0.00028000000747852 0.000161000003572553 1.99999994947575e-05
endloop
endfacet
facet normal -3.32169793617286e-17 0 1
outer loop
vertex 0.000249000004259869 0.000138999996124767 1.99999994947575e-05
vertex 0.00028000000747852 0.000138999996124767 1.99999994947575e-05
vertex 0.00028000000747852 0.000161000003572553 1.99999994947575e-05
endloop
endfacet
facet normal 0 1 0
outer loop
vertex 0.000249000004259869 0.000161000003572553 0
vertex 0.000249000004259869 0.000161000003572553 1.99999994947575e-05
vertex 0.000270999997155741 0.000161000003572553 0
endloop
endfacet
facet normal 0 1 0
outer loop
vertex 0.000270999997155741 0.000161000003572553 0
vertex 0.000249000004259869 0.000161000003572553 1.99999994947575e-05
vertex 0.00028000000747852 0.000161000003572553 1.99999994947575e-05
endloop
endfacet
facet normal 0 1 0
outer loop
vertex 0.00028000000747852 0.000161000003572553 1.89898010032622e-21
vertex 0.000270999997155741 0.000161000003572553 0
vertex 0.00028000000747852 0.000161000003572553 1.99999994947575e-05
endloop
endfacet
facet normal 1 -0 -0
outer loop
vertex 0.000270999997155741 0.000138999996124767 -2.70000000455184e-05
vertex 0.000270999997155741 0.000161000003572553 0
vertex 0.000270999997155741 0.000138999996124767 0
endloop
endfacet
facet normal 1 -0 -0
outer loop
vertex 0.000270999997155741 0.000161000003572553 -2.70000000455184e-05
vertex 0.000270999997155741 0.000161000003572553 0
vertex 0.000270999997155741 0.000138999996124767 -2.70000000455184e-05
endloop
endfacet
facet normal 6.1257422745431e-17 -0 -1
outer loop
vertex 0.000270999997155741 0.000161000003572553 0
vertex 0.00028000000747852 0.000161000003572553 1.89898010032622e-21
vertex 0.000270999997155741 0.000138999996124767 0
endloop
endfacet
facet normal 6.1257422745431e-17 -0 -1
outer loop
vertex 0.000270999997155741 0.000138999996124767 0
vertex 0.00028000000747852 0.000161000003572553 1.89898010032622e-21
vertex 0.00028000000747852 0.000138999996124767 1.89898010032622e-21
endloop
endfacet
facet normal -1 0 0
outer loop
vertex 0.00028000000747852 0.000138999996124767 1.89898010032622e-21
vertex 0.00028000000747852 0.000138999996124767 1.99999994947575e-05
vertex 0.00028000000747852 0.000161000003572553 1.99999994947575e-05
endloop
endfacet
facet normal -1 0 0
outer loop
vertex 0.00028000000747852 0.000161000003572553 1.89898010032622e-21
vertex 0.00028000000747852 0.000138999996124767 1.89898010032622e-21
vertex 0.00028000000747852 0.000161000003572553 1.99999994947575e-05
endloop
endfacet
endsolid COMSOL rendering object par2
