solid COMSOL rendering object par2
facet normal -1 0 -6.7762635780344e-17
outer loop
vertex -1.99999994947575e-05 9.89999971352518e-05 1.99999994947575e-05
vertex -1.99999994947575e-05 0.000120999997307081 1.99999994947575e-05
vertex -1.99999994947575e-05 9.89999971352518e-05 0
endloop
endfacet
facet normal -1 0 -6.7762635780344e-17
outer loop
vertex -1.99999994947575e-05 9.89999971352518e-05 0
vertex -1.99999994947575e-05 0.000120999997307081 1.99999994947575e-05
vertex -1.99999994947575e-05 0.000120999997307081 0
endloop
endfacet
facet normal 0 -1 0
outer loop
vertex -1.99999994947575e-05 9.89999971352518e-05 0
vertex -2.65412693323716e-21 9.89999971352518e-05 1.99999994947575e-05
vertex -1.99999994947575e-05 9.89999971352518e-05 1.99999994947575e-05
endloop
endfacet
facet normal 0 -1 0
outer loop
vertex -2.65412693323716e-21 9.89999971352518e-05 1.22514849416739e-21
vertex -2.65412693323716e-21 9.89999971352518e-05 1.99999994947575e-05
vertex -1.99999994947575e-05 9.89999971352518e-05 0
endloop
endfacet
facet normal 6.1257422745431e-17 0 -1
outer loop
vertex -1.99999994947575e-05 0.000120999997307081 0
vertex 0 0.000120999997307081 1.22514849416739e-21
vertex -1.99999994947575e-05 9.89999971352518e-05 0
endloop
endfacet
facet normal 6.1257422745431e-17 0 -1
outer loop
vertex -1.99999994947575e-05 9.89999971352518e-05 0
vertex 0 0.000120999997307081 1.22514849416739e-21
vertex -2.65412693323716e-21 9.89999971352518e-05 1.22514849416739e-21
endloop
endfacet
facet normal -3.32169793617286e-17 0 1
outer loop
vertex -1.99999994947575e-05 0.000120999997307081 1.99999994947575e-05
vertex -1.99999994947575e-05 9.89999971352518e-05 1.99999994947575e-05
vertex 0 0.000120999997307081 1.99999994947575e-05
endloop
endfacet
facet normal -3.32169793617286e-17 0 1
outer loop
vertex -1.99999994947575e-05 9.89999971352518e-05 1.99999994947575e-05
vertex -2.65412693323716e-21 9.89999971352518e-05 1.99999994947575e-05
vertex 0 0.000120999997307081 1.99999994947575e-05
endloop
endfacet
facet normal 0 1 0
outer loop
vertex -1.99999994947575e-05 0.000120999997307081 0
vertex -1.99999994947575e-05 0.000120999997307081 1.99999994947575e-05
vertex 0 0.000120999997307081 1.99999994947575e-05
endloop
endfacet
facet normal 0 1 0
outer loop
vertex 0 0.000120999997307081 1.22514849416739e-21
vertex -1.99999994947575e-05 0.000120999997307081 0
vertex 0 0.000120999997307081 1.99999994947575e-05
endloop
endfacet
facet normal -1 0 0
outer loop
vertex -2.65412693323716e-21 9.89999971352518e-05 1.22514849416739e-21
vertex -2.65412693323716e-21 9.89999971352518e-05 1.99999994947575e-05
vertex 0 0.000120999997307081 1.99999994947575e-05
endloop
endfacet
facet normal -1 0 0
outer loop
vertex 0 0.000120999997307081 1.22514849416739e-21
vertex -2.65412693323716e-21 9.89999971352518e-05 1.22514849416739e-21
vertex 0 0.000120999997307081 1.99999994947575e-05
endloop
endfacet
endsolid COMSOL rendering object par2
