solid COMSOL rendering object par2
facet normal -1 0 0
outer loop
vertex 0.00028000000747852 0.000138999996124767 1.89898010032622e-21
vertex 0.00028000000747852 0.000138999996124767 1.99999994947575e-05
vertex 0.00028000000747852 0.000161000003572553 1.99999994947575e-05
endloop
endfacet
facet normal -1 0 0
outer loop
vertex 0.00028000000747852 0.000161000003572553 1.89898010032622e-21
vertex 0.00028000000747852 0.000138999996124767 1.89898010032622e-21
vertex 0.00028000000747852 0.000161000003572553 1.99999994947575e-05
endloop
endfacet
facet normal -0 -1 -0
outer loop
vertex 0.00028000000747852 0.000138999996124767 1.89898010032622e-21
vertex 0.000300000014249235 0.000138999996124767 1.99999994947575e-05
vertex 0.00028000000747852 0.000138999996124767 1.99999994947575e-05
endloop
endfacet
facet normal -0 -1 -0
outer loop
vertex 0.000300000014249235 0.000138999996124767 3.12412849351941e-21
vertex 0.000300000014249235 0.000138999996124767 1.99999994947575e-05
vertex 0.00028000000747852 0.000138999996124767 1.89898010032622e-21
endloop
endfacet
facet normal 6.1257422745431e-17 -0 -1
outer loop
vertex 0.00028000000747852 0.000161000003572553 1.89898010032622e-21
vertex 0.000300000014249235 0.000161000003572553 3.12412849351941e-21
vertex 0.00028000000747852 0.000138999996124767 1.89898010032622e-21
endloop
endfacet
facet normal 6.1257422745431e-17 -0 -1
outer loop
vertex 0.00028000000747852 0.000138999996124767 1.89898010032622e-21
vertex 0.000300000014249235 0.000161000003572553 3.12412849351941e-21
vertex 0.000300000014249235 0.000138999996124767 3.12412849351941e-21
endloop
endfacet
facet normal -3.32169793617286e-17 0 1
outer loop
vertex 0.00028000000747852 0.000161000003572553 1.99999994947575e-05
vertex 0.00028000000747852 0.000138999996124767 1.99999994947575e-05
vertex 0.000300000014249235 0.000161000003572553 1.99999994947575e-05
endloop
endfacet
facet normal -3.32169793617286e-17 0 1
outer loop
vertex 0.00028000000747852 0.000138999996124767 1.99999994947575e-05
vertex 0.000300000014249235 0.000138999996124767 1.99999994947575e-05
vertex 0.000300000014249235 0.000161000003572553 1.99999994947575e-05
endloop
endfacet
facet normal 0 1 0
outer loop
vertex 0.00028000000747852 0.000161000003572553 1.89898010032622e-21
vertex 0.00028000000747852 0.000161000003572553 1.99999994947575e-05
vertex 0.000300000014249235 0.000161000003572553 1.99999994947575e-05
endloop
endfacet
facet normal 0 1 0
outer loop
vertex 0.000300000014249235 0.000161000003572553 3.12412849351941e-21
vertex 0.00028000000747852 0.000161000003572553 1.89898010032622e-21
vertex 0.000300000014249235 0.000161000003572553 1.99999994947575e-05
endloop
endfacet
facet normal 1 0 0
outer loop
vertex 0.000300000014249235 0.000138999996124767 1.99999994947575e-05
vertex 0.000300000014249235 0.000138999996124767 3.12412849351941e-21
vertex 0.000300000014249235 0.000161000003572553 1.99999994947575e-05
endloop
endfacet
facet normal 1 0 0
outer loop
vertex 0.000300000014249235 0.000138999996124767 3.12412849351941e-21
vertex 0.000300000014249235 0.000161000003572553 3.12412849351941e-21
vertex 0.000300000014249235 0.000161000003572553 1.99999994947575e-05
endloop
endfacet
endsolid COMSOL rendering object par2
