solid COMSOL rendering object uni1
facet normal -1 0 0
outer loop
vertex -0.5 1 0.00999999977648258
vertex -0.5 -1 0.00999999977648258
vertex -0.5 0 0.0199999995529652
endloop
endfacet
facet normal -1 0 0
outer loop
vertex -0.5 -1 0.00999999977648258
vertex -0.5 -1 0.0199999995529652
vertex -0.5 0 0.0199999995529652
endloop
endfacet
facet normal -1 0 0
outer loop
vertex -0.5 -1 0.00999999977648258
vertex -0.5 1 0.00999999977648258
vertex -0.5 -2.77555756156289e-16 0
endloop
endfacet
facet normal -1 0 0
outer loop
vertex -0.5 1 0.00999999977648258
vertex -0.5 1 0
vertex -0.5 -2.77555756156289e-16 0
endloop
endfacet
facet normal -1 0 0
outer loop
vertex -0.5 -2.77555756156289e-16 0
vertex -0.5 -1 0
vertex -0.5 -1 0.00999999977648258
endloop
endfacet
facet normal -1 0 0
outer loop
vertex -0.5 0 0.0199999995529652
vertex -0.5 1 0.0199999995529652
vertex -0.5 1 0.00999999977648258
endloop
endfacet
facet normal 0 -1 0
outer loop
vertex -0.400000005960464 -1 0.0199999995529652
vertex -0.5 -1 0.0199999995529652
vertex -0.5 -1 0.00999999977648258
endloop
endfacet
facet normal 0 -1 0
outer loop
vertex -0.400000005960464 -1 0.00999999977648258
vertex -0.5 -1 0.00999999977648258
vertex -0.5 -1 0
endloop
endfacet
facet normal 0 -1 0
outer loop
vertex -0.5 -1 0
vertex -0.400000005960464 -1 0
vertex -0.400000005960464 -1 0.00999999977648258
endloop
endfacet
facet normal 0 -1 0
outer loop
vertex -0.5 -1 0.00999999977648258
vertex -0.400000005960464 -1 0.00999999977648258
vertex -0.400000005960464 -1 0.0199999995529652
endloop
endfacet
facet normal 0 0 -1
outer loop
vertex -0.5 -2.77555756156289e-16 0
vertex -0.5 1 0
vertex -0.400000005960464 0.899999976158142 0
endloop
endfacet
facet normal 0 0 -1
outer loop
vertex -0.5 1 0
vertex -0.400000005960464 0.949999988079071 0
vertex -0.400000005960464 0.899999976158142 0
endloop
endfacet
facet normal 0 0 -1
outer loop
vertex -0.5 1 0
vertex -0.400000005960464 1 0
vertex -0.400000005960464 0.949999988079071 0
endloop
endfacet
facet normal 0 0 -1
outer loop
vertex -0.5 -2.77555756156289e-16 0
vertex -0.400000005960464 2.77555756156289e-16 0
vertex -0.400000005960464 -0.899999976158142 0
endloop
endfacet
facet normal 0 0 -1
outer loop
vertex -0.400000005960464 -0.899999976158142 0
vertex -0.5 -1 0
vertex -0.5 -2.77555756156289e-16 0
endloop
endfacet
facet normal 0 0 -1
outer loop
vertex -0.400000005960464 -0.899999976158142 0
vertex -0.400000005960464 -0.949999988079071 0
vertex -0.5 -1 0
endloop
endfacet
facet normal 0 0 -1
outer loop
vertex -0.400000005960464 -0.949999988079071 0
vertex -0.400000005960464 -1 0
vertex -0.5 -1 0
endloop
endfacet
facet normal 0 0 -1
outer loop
vertex -0.400000005960464 0.899999976158142 0
vertex -0.400000005960464 2.77555756156289e-16 0
vertex -0.5 -2.77555756156289e-16 0
endloop
endfacet
facet normal 0 0 1
outer loop
vertex -0.5 0 0.0199999995529652
vertex -0.5 -1 0.0199999995529652
vertex -0.400000005960464 -0.899999976158142 0.0199999995529652
endloop
endfacet
facet normal 0 0 1
outer loop
vertex -0.5 -1 0.0199999995529652
vertex -0.400000005960464 -0.949999988079071 0.0199999995529652
vertex -0.400000005960464 -0.899999976158142 0.0199999995529652
endloop
endfacet
facet normal 0 0 1
outer loop
vertex -0.5 -1 0.0199999995529652
vertex -0.400000005960464 -1 0.0199999995529652
vertex -0.400000005960464 -0.949999988079071 0.0199999995529652
endloop
endfacet
facet normal 0 0 1
outer loop
vertex -0.5 1 0.0199999995529652
vertex -0.400000005960464 0.899999976158142 0.0199999995529652
vertex -0.400000005960464 0.949999988079071 0.0199999995529652
endloop
endfacet
facet normal 0 0 1
outer loop
vertex -0.5 0 0.0199999995529652
vertex -0.400000005960464 0 0.0199999995529652
vertex -0.400000005960464 0.899999976158142 0.0199999995529652
endloop
endfacet
facet normal 0 0 1
outer loop
vertex -0.400000005960464 0.899999976158142 0.0199999995529652
vertex -0.5 1 0.0199999995529652
vertex -0.5 0 0.0199999995529652
endloop
endfacet
facet normal 0 0 1
outer loop
vertex -0.400000005960464 0.949999988079071 0.0199999995529652
vertex -0.400000005960464 1 0.0199999995529652
vertex -0.5 1 0.0199999995529652
endloop
endfacet
facet normal 0 0 1
outer loop
vertex -0.400000005960464 -0.899999976158142 0.0199999995529652
vertex -0.400000005960464 0 0.0199999995529652
vertex -0.5 0 0.0199999995529652
endloop
endfacet
facet normal -1 0 0
outer loop
vertex -0.5 1 0.0500000007450581
vertex -0.5 -1 0.0500000007450581
vertex -0.5 0 0.0599999986588955
endloop
endfacet
facet normal -1 0 0
outer loop
vertex -0.5 -1 0.0500000007450581
vertex -0.5 -1 0.0599999986588955
vertex -0.5 0 0.0599999986588955
endloop
endfacet
facet normal -1 0 0
outer loop
vertex -0.5 -1 0.0500000007450581
vertex -0.5 1 0.0500000007450581
vertex -0.5 -2.77555756156289e-16 0.0399999991059303
endloop
endfacet
facet normal -1 0 0
outer loop
vertex -0.5 1 0.0500000007450581
vertex -0.5 1 0.0399999991059303
vertex -0.5 -2.77555756156289e-16 0.0399999991059303
endloop
endfacet
facet normal -1 0 0
outer loop
vertex -0.5 -2.77555756156289e-16 0.0399999991059303
vertex -0.5 -1 0.0399999991059303
vertex -0.5 -1 0.0500000007450581
endloop
endfacet
facet normal -1 0 0
outer loop
vertex -0.5 0 0.0599999986588955
vertex -0.5 1 0.0599999986588955
vertex -0.5 1 0.0500000007450581
endloop
endfacet
facet normal 0 -1 0
outer loop
vertex -0.400000005960464 -1 0.0599999986588955
vertex -0.5 -1 0.0599999986588955
vertex -0.5 -1 0.0500000007450581
endloop
endfacet
facet normal 0 -1 0
outer loop
vertex -0.400000005960464 -1 0.0500000007450581
vertex -0.5 -1 0.0500000007450581
vertex -0.5 -1 0.0399999991059303
endloop
endfacet
facet normal 0 -1 0
outer loop
vertex -0.5 -1 0.0399999991059303
vertex -0.400000005960464 -1 0.0399999991059303
vertex -0.400000005960464 -1 0.0500000007450581
endloop
endfacet
facet normal 0 -1 0
outer loop
vertex -0.5 -1 0.0500000007450581
vertex -0.400000005960464 -1 0.0500000007450581
vertex -0.400000005960464 -1 0.0599999986588955
endloop
endfacet
facet normal 0 0 -1
outer loop
vertex -0.5 -2.77555756156289e-16 0.0399999991059303
vertex -0.5 1 0.0399999991059303
vertex -0.400000005960464 0.899999976158142 0.0399999991059303
endloop
endfacet
facet normal 0 0 -1
outer loop
vertex -0.5 1 0.0399999991059303
vertex -0.400000005960464 0.949999988079071 0.0399999991059303
vertex -0.400000005960464 0.899999976158142 0.0399999991059303
endloop
endfacet
facet normal 0 0 -1
outer loop
vertex -0.5 1 0.0399999991059303
vertex -0.400000005960464 1 0.0399999991059303
vertex -0.400000005960464 0.949999988079071 0.0399999991059303
endloop
endfacet
facet normal 0 0 -1
outer loop
vertex -0.5 -2.77555756156289e-16 0.0399999991059303
vertex -0.400000005960464 2.77555756156289e-16 0.0399999991059303
vertex -0.400000005960464 -0.899999976158142 0.0399999991059303
endloop
endfacet
facet normal 0 0 -1
outer loop
vertex -0.400000005960464 -0.899999976158142 0.0399999991059303
vertex -0.5 -1 0.0399999991059303
vertex -0.5 -2.77555756156289e-16 0.0399999991059303
endloop
endfacet
facet normal 0 0 -1
outer loop
vertex -0.400000005960464 -0.899999976158142 0.0399999991059303
vertex -0.400000005960464 -0.949999988079071 0.0399999991059303
vertex -0.5 -1 0.0399999991059303
endloop
endfacet
facet normal 0 0 -1
outer loop
vertex -0.400000005960464 -0.949999988079071 0.0399999991059303
vertex -0.400000005960464 -1 0.0399999991059303
vertex -0.5 -1 0.0399999991059303
endloop
endfacet
facet normal 0 0 -1
outer loop
vertex -0.400000005960464 0.899999976158142 0.0399999991059303
vertex -0.400000005960464 2.77555756156289e-16 0.0399999991059303
vertex -0.5 -2.77555756156289e-16 0.0399999991059303
endloop
endfacet
facet normal 0 0 1
outer loop
vertex -0.5 0 0.0599999986588955
vertex -0.5 -1 0.0599999986588955
vertex -0.400000005960464 -0.899999976158142 0.0599999986588955
endloop
endfacet
facet normal 0 0 1
outer loop
vertex -0.5 -1 0.0599999986588955
vertex -0.400000005960464 -0.949999988079071 0.0599999986588955
vertex -0.400000005960464 -0.899999976158142 0.0599999986588955
endloop
endfacet
facet normal 0 0 1
outer loop
vertex -0.5 -1 0.0599999986588955
vertex -0.400000005960464 -1 0.0599999986588955
vertex -0.400000005960464 -0.949999988079071 0.0599999986588955
endloop
endfacet
facet normal 0 0 1
outer loop
vertex -0.5 1 0.0599999986588955
vertex -0.400000005960464 0.899999976158142 0.0599999986588955
vertex -0.400000005960464 0.949999988079071 0.0599999986588955
endloop
endfacet
facet normal 0 0 1
outer loop
vertex -0.5 0 0.0599999986588955
vertex -0.400000005960464 0 0.0599999986588955
vertex -0.400000005960464 0.899999976158142 0.0599999986588955
endloop
endfacet
facet normal 0 0 1
outer loop
vertex -0.400000005960464 0.899999976158142 0.0599999986588955
vertex -0.5 1 0.0599999986588955
vertex -0.5 0 0.0599999986588955
endloop
endfacet
facet normal 0 0 1
outer loop
vertex -0.400000005960464 0.949999988079071 0.0599999986588955
vertex -0.400000005960464 1 0.0599999986588955
vertex -0.5 1 0.0599999986588955
endloop
endfacet
facet normal 0 0 1
outer loop
vertex -0.400000005960464 -0.899999976158142 0.0599999986588955
vertex -0.400000005960464 0 0.0599999986588955
vertex -0.5 0 0.0599999986588955
endloop
endfacet
facet normal 0 1 0
outer loop
vertex -0.5 1 0.0199999995529652
vertex -0.400000005960464 1 0.0199999995529652
vertex -0.400000005960464 1 0.00999999977648258
endloop
endfacet
facet normal 0 1 0
outer loop
vertex -0.5 1 0.00999999977648258
vertex -0.400000005960464 1 0.00999999977648258
vertex -0.400000005960464 1 0
endloop
endfacet
facet normal 0 1 0
outer loop
vertex -0.400000005960464 1 0
vertex -0.5 1 0
vertex -0.5 1 0.00999999977648258
endloop
endfacet
facet normal 0 1 0
outer loop
vertex -0.400000005960464 1 0.00999999977648258
vertex -0.5 1 0.00999999977648258
vertex -0.5 1 0.0199999995529652
endloop
endfacet
facet normal 0 1 0
outer loop
vertex -0.5 1 0.0599999986588955
vertex -0.400000005960464 1 0.0599999986588955
vertex -0.400000005960464 1 0.0500000007450581
endloop
endfacet
facet normal 0 1 0
outer loop
vertex -0.5 1 0.0500000007450581
vertex -0.400000005960464 1 0.0500000007450581
vertex -0.400000005960464 1 0.0399999991059303
endloop
endfacet
facet normal 0 1 0
outer loop
vertex -0.400000005960464 1 0.0399999991059303
vertex -0.5 1 0.0399999991059303
vertex -0.5 1 0.0500000007450581
endloop
endfacet
facet normal 0 1 0
outer loop
vertex -0.400000005960464 1 0.0500000007450581
vertex -0.5 1 0.0500000007450581
vertex -0.5 1 0.0599999986588955
endloop
endfacet
facet normal 0 -1 0
outer loop
vertex -0.150000005960464 -1 0.0199999995529652
vertex -0.400000005960464 -1 0.0199999995529652
vertex -0.400000005960464 -1 0.00999999977648258
endloop
endfacet
facet normal 0 -1 0
outer loop
vertex -0.150000005960464 -1 0.00999999977648258
vertex -0.400000005960464 -1 0.00999999977648258
vertex -0.400000005960464 -1 0
endloop
endfacet
facet normal 0 -1 0
outer loop
vertex -0.400000005960464 -1 0
vertex -0.150000005960464 -1 0
vertex -0.150000005960464 -1 0.00999999977648258
endloop
endfacet
facet normal 0 -1 0
outer loop
vertex -0.400000005960464 -1 0.00999999977648258
vertex -0.150000005960464 -1 0.00999999977648258
vertex -0.150000005960464 -1 0.0199999995529652
endloop
endfacet
facet normal 0 0 -1
outer loop
vertex -0.400000005960464 -0.899999976158142 0
vertex -0.150000005960464 -0.899999976158142 0
vertex -0.150000005960464 -0.949999988079071 0
endloop
endfacet
facet normal 0 0 -1
outer loop
vertex -0.400000005960464 -1 0
vertex -0.400000005960464 -0.949999988079071 0
vertex -0.150000005960464 -0.949999988079071 0
endloop
endfacet
facet normal 0 0 -1
outer loop
vertex -0.150000005960464 -0.949999988079071 0
vertex -0.150000005960464 -1 0
vertex -0.400000005960464 -1 0
endloop
endfacet
facet normal 0 0 -1
outer loop
vertex -0.150000005960464 -0.949999988079071 0
vertex -0.400000005960464 -0.949999988079071 0
vertex -0.400000005960464 -0.899999976158142 0
endloop
endfacet
facet normal 0 0 1
outer loop
vertex -0.400000005960464 -1 0.0199999995529652
vertex -0.150000005960464 -1 0.0199999995529652
vertex -0.150000005960464 -0.949999988079071 0.0199999995529652
endloop
endfacet
facet normal 0 0 1
outer loop
vertex -0.150000005960464 -0.949999988079071 0.0199999995529652
vertex -0.150000005960464 -0.899999976158142 0.0199999995529652
vertex -0.400000005960464 -0.899999976158142 0.0199999995529652
endloop
endfacet
facet normal 0 0 1
outer loop
vertex -0.400000005960464 -0.899999976158142 0.0199999995529652
vertex -0.400000005960464 -0.949999988079071 0.0199999995529652
vertex -0.150000005960464 -0.949999988079071 0.0199999995529652
endloop
endfacet
facet normal 0 0 1
outer loop
vertex -0.150000005960464 -0.949999988079071 0.0199999995529652
vertex -0.400000005960464 -0.949999988079071 0.0199999995529652
vertex -0.400000005960464 -1 0.0199999995529652
endloop
endfacet
facet normal 0 -1 0
outer loop
vertex -0.150000005960464 -1 0.0599999986588955
vertex -0.400000005960464 -1 0.0599999986588955
vertex -0.400000005960464 -1 0.0500000007450581
endloop
endfacet
facet normal 0 -1 0
outer loop
vertex -0.150000005960464 -1 0.0500000007450581
vertex -0.400000005960464 -1 0.0500000007450581
vertex -0.400000005960464 -1 0.0399999991059303
endloop
endfacet
facet normal 0 -1 0
outer loop
vertex -0.400000005960464 -1 0.0399999991059303
vertex -0.150000005960464 -1 0.0399999991059303
vertex -0.150000005960464 -1 0.0500000007450581
endloop
endfacet
facet normal 0 -1 0
outer loop
vertex -0.400000005960464 -1 0.0500000007450581
vertex -0.150000005960464 -1 0.0500000007450581
vertex -0.150000005960464 -1 0.0599999986588955
endloop
endfacet
facet normal 0 0 -1
outer loop
vertex -0.400000005960464 -0.899999976158142 0.0399999991059303
vertex -0.150000005960464 -0.899999976158142 0.0399999991059303
vertex -0.150000005960464 -0.949999988079071 0.0399999991059303
endloop
endfacet
facet normal 0 0 -1
outer loop
vertex -0.400000005960464 -1 0.0399999991059303
vertex -0.400000005960464 -0.949999988079071 0.0399999991059303
vertex -0.150000005960464 -0.949999988079071 0.0399999991059303
endloop
endfacet
facet normal 0 0 -1
outer loop
vertex -0.150000005960464 -0.949999988079071 0.0399999991059303
vertex -0.150000005960464 -1 0.0399999991059303
vertex -0.400000005960464 -1 0.0399999991059303
endloop
endfacet
facet normal 0 0 -1
outer loop
vertex -0.150000005960464 -0.949999988079071 0.0399999991059303
vertex -0.400000005960464 -0.949999988079071 0.0399999991059303
vertex -0.400000005960464 -0.899999976158142 0.0399999991059303
endloop
endfacet
facet normal 0 0 1
outer loop
vertex -0.400000005960464 -1 0.0599999986588955
vertex -0.150000005960464 -1 0.0599999986588955
vertex -0.150000005960464 -0.949999988079071 0.0599999986588955
endloop
endfacet
facet normal 0 0 1
outer loop
vertex -0.150000005960464 -0.949999988079071 0.0599999986588955
vertex -0.150000005960464 -0.899999976158142 0.0599999986588955
vertex -0.400000005960464 -0.899999976158142 0.0599999986588955
endloop
endfacet
facet normal 0 0 1
outer loop
vertex -0.400000005960464 -0.899999976158142 0.0599999986588955
vertex -0.400000005960464 -0.949999988079071 0.0599999986588955
vertex -0.150000005960464 -0.949999988079071 0.0599999986588955
endloop
endfacet
facet normal 0 0 1
outer loop
vertex -0.150000005960464 -0.949999988079071 0.0599999986588955
vertex -0.400000005960464 -0.949999988079071 0.0599999986588955
vertex -0.400000005960464 -1 0.0599999986588955
endloop
endfacet
facet normal 1 0 0
outer loop
vertex -0.400000005960464 0.899999976158142 0.00999999977648258
vertex -0.400000005960464 0.899999976158142 0.0199999995529652
vertex -0.400000005960464 0 0.0199999995529652
endloop
endfacet
facet normal 1 0 0
outer loop
vertex -0.400000005960464 0 0.0199999995529652
vertex -0.400000005960464 -0.899999976158142 0.00999999977648258
vertex -0.400000005960464 0.899999976158142 0.00999999977648258
endloop
endfacet
facet normal 1 0 0
outer loop
vertex -0.400000005960464 -0.899999976158142 0.00999999977648258
vertex -0.400000005960464 -0.899999976158142 0
vertex -0.400000005960464 2.77555756156289e-16 0
endloop
endfacet
facet normal 1 0 0
outer loop
vertex -0.400000005960464 2.77555756156289e-16 0
vertex -0.400000005960464 0.899999976158142 0.00999999977648258
vertex -0.400000005960464 -0.899999976158142 0.00999999977648258
endloop
endfacet
facet normal 1 0 0
outer loop
vertex -0.400000005960464 2.77555756156289e-16 0
vertex -0.400000005960464 0.899999976158142 0
vertex -0.400000005960464 0.899999976158142 0.00999999977648258
endloop
endfacet
facet normal 1 0 0
outer loop
vertex -0.400000005960464 0 0.0199999995529652
vertex -0.400000005960464 -0.899999976158142 0.0199999995529652
vertex -0.400000005960464 -0.899999976158142 0.00999999977648258
endloop
endfacet
facet normal 0 1 0
outer loop
vertex -0.400000005960464 -0.899999976158142 0.0199999995529652
vertex -0.150000005960464 -0.899999976158142 0.0199999995529652
vertex -0.150000005960464 -0.899999976158142 0.00999999977648258
endloop
endfacet
facet normal 0 1 0
outer loop
vertex -0.400000005960464 -0.899999976158142 0.00999999977648258
vertex -0.150000005960464 -0.899999976158142 0.00999999977648258
vertex -0.150000005960464 -0.899999976158142 0
endloop
endfacet
facet normal 0 1 0
outer loop
vertex -0.150000005960464 -0.899999976158142 0
vertex -0.400000005960464 -0.899999976158142 0
vertex -0.400000005960464 -0.899999976158142 0.00999999977648258
endloop
endfacet
facet normal 0 1 0
outer loop
vertex -0.150000005960464 -0.899999976158142 0.00999999977648258
vertex -0.400000005960464 -0.899999976158142 0.00999999977648258
vertex -0.400000005960464 -0.899999976158142 0.0199999995529652
endloop
endfacet
facet normal 1 0 0
outer loop
vertex -0.400000005960464 0.899999976158142 0.0500000007450581
vertex -0.400000005960464 0.899999976158142 0.0599999986588955
vertex -0.400000005960464 0 0.0599999986588955
endloop
endfacet
facet normal 1 0 0
outer loop
vertex -0.400000005960464 0 0.0599999986588955
vertex -0.400000005960464 -0.899999976158142 0.0500000007450581
vertex -0.400000005960464 0.899999976158142 0.0500000007450581
endloop
endfacet
facet normal 1 0 0
outer loop
vertex -0.400000005960464 -0.899999976158142 0.0500000007450581
vertex -0.400000005960464 -0.899999976158142 0.0399999991059303
vertex -0.400000005960464 2.77555756156289e-16 0.0399999991059303
endloop
endfacet
facet normal 1 0 0
outer loop
vertex -0.400000005960464 2.77555756156289e-16 0.0399999991059303
vertex -0.400000005960464 0.899999976158142 0.0500000007450581
vertex -0.400000005960464 -0.899999976158142 0.0500000007450581
endloop
endfacet
facet normal 1 0 0
outer loop
vertex -0.400000005960464 2.77555756156289e-16 0.0399999991059303
vertex -0.400000005960464 0.899999976158142 0.0399999991059303
vertex -0.400000005960464 0.899999976158142 0.0500000007450581
endloop
endfacet
facet normal 1 0 0
outer loop
vertex -0.400000005960464 0 0.0599999986588955
vertex -0.400000005960464 -0.899999976158142 0.0599999986588955
vertex -0.400000005960464 -0.899999976158142 0.0500000007450581
endloop
endfacet
facet normal 0 1 0
outer loop
vertex -0.400000005960464 -0.899999976158142 0.0599999986588955
vertex -0.150000005960464 -0.899999976158142 0.0599999986588955
vertex -0.150000005960464 -0.899999976158142 0.0500000007450581
endloop
endfacet
facet normal 0 1 0
outer loop
vertex -0.400000005960464 -0.899999976158142 0.0500000007450581
vertex -0.150000005960464 -0.899999976158142 0.0500000007450581
vertex -0.150000005960464 -0.899999976158142 0.0399999991059303
endloop
endfacet
facet normal 0 1 0
outer loop
vertex -0.150000005960464 -0.899999976158142 0.0399999991059303
vertex -0.400000005960464 -0.899999976158142 0.0399999991059303
vertex -0.400000005960464 -0.899999976158142 0.0500000007450581
endloop
endfacet
facet normal 0 1 0
outer loop
vertex -0.150000005960464 -0.899999976158142 0.0500000007450581
vertex -0.400000005960464 -0.899999976158142 0.0500000007450581
vertex -0.400000005960464 -0.899999976158142 0.0599999986588955
endloop
endfacet
facet normal 0 -1 0
outer loop
vertex 0.400000005960464 0.899999976158142 0.0199999995529652
vertex -0.400000005960464 0.899999976158142 0.0199999995529652
vertex -0.400000005960464 0.899999976158142 0.00999999977648258
endloop
endfacet
facet normal 0 -1 0
outer loop
vertex 0.400000005960464 0.899999976158142 0.00999999977648258
vertex -0.400000005960464 0.899999976158142 0.00999999977648258
vertex -0.400000005960464 0.899999976158142 0
endloop
endfacet
facet normal 0 -1 0
outer loop
vertex -0.400000005960464 0.899999976158142 0
vertex 0.400000005960464 0.899999976158142 0
vertex 0.400000005960464 0.899999976158142 0.00999999977648258
endloop
endfacet
facet normal 0 -1 0
outer loop
vertex -0.400000005960464 0.899999976158142 0.00999999977648258
vertex 0.400000005960464 0.899999976158142 0.00999999977648258
vertex 0.400000005960464 0.899999976158142 0.0199999995529652
endloop
endfacet
facet normal 0 0 -1
outer loop
vertex -0.400000005960464 1 0
vertex 0.400000005960464 1 0
vertex 0.400000005960464 0.949999988079071 0
endloop
endfacet
facet normal 0 0 -1
outer loop
vertex -0.400000005960464 0.949999988079071 0
vertex 0.400000005960464 0.949999988079071 0
vertex 0.400000005960464 0.899999976158142 0
endloop
endfacet
facet normal 0 0 -1
outer loop
vertex 0.400000005960464 0.899999976158142 0
vertex -0.400000005960464 0.899999976158142 0
vertex -0.400000005960464 0.949999988079071 0
endloop
endfacet
facet normal 0 0 -1
outer loop
vertex 0.400000005960464 0.949999988079071 0
vertex -0.400000005960464 0.949999988079071 0
vertex -0.400000005960464 1 0
endloop
endfacet
facet normal 0 0 1
outer loop
vertex -0.400000005960464 0.899999976158142 0.0199999995529652
vertex 0.400000005960464 0.899999976158142 0.0199999995529652
vertex 0.400000005960464 0.949999988079071 0.0199999995529652
endloop
endfacet
facet normal 0 0 1
outer loop
vertex -0.400000005960464 0.949999988079071 0.0199999995529652
vertex 0.400000005960464 0.949999988079071 0.0199999995529652
vertex 0.400000005960464 1 0.0199999995529652
endloop
endfacet
facet normal 0 0 1
outer loop
vertex 0.400000005960464 1 0.0199999995529652
vertex -0.400000005960464 1 0.0199999995529652
vertex -0.400000005960464 0.949999988079071 0.0199999995529652
endloop
endfacet
facet normal 0 0 1
outer loop
vertex 0.400000005960464 0.949999988079071 0.0199999995529652
vertex -0.400000005960464 0.949999988079071 0.0199999995529652
vertex -0.400000005960464 0.899999976158142 0.0199999995529652
endloop
endfacet
facet normal 0 -1 0
outer loop
vertex 0.400000005960464 0.899999976158142 0.0599999986588955
vertex -0.400000005960464 0.899999976158142 0.0599999986588955
vertex -0.400000005960464 0.899999976158142 0.0500000007450581
endloop
endfacet
facet normal 0 -1 0
outer loop
vertex 0.400000005960464 0.899999976158142 0.0500000007450581
vertex -0.400000005960464 0.899999976158142 0.0500000007450581
vertex -0.400000005960464 0.899999976158142 0.0399999991059303
endloop
endfacet
facet normal 0 -1 0
outer loop
vertex -0.400000005960464 0.899999976158142 0.0399999991059303
vertex 0.400000005960464 0.899999976158142 0.0399999991059303
vertex 0.400000005960464 0.899999976158142 0.0500000007450581
endloop
endfacet
facet normal 0 -1 0
outer loop
vertex -0.400000005960464 0.899999976158142 0.0500000007450581
vertex 0.400000005960464 0.899999976158142 0.0500000007450581
vertex 0.400000005960464 0.899999976158142 0.0599999986588955
endloop
endfacet
facet normal 0 0 -1
outer loop
vertex -0.400000005960464 1 0.0399999991059303
vertex 0.400000005960464 1 0.0399999991059303
vertex 0.400000005960464 0.949999988079071 0.0399999991059303
endloop
endfacet
facet normal 0 0 -1
outer loop
vertex -0.400000005960464 0.949999988079071 0.0399999991059303
vertex 0.400000005960464 0.949999988079071 0.0399999991059303
vertex 0.400000005960464 0.899999976158142 0.0399999991059303
endloop
endfacet
facet normal 0 0 -1
outer loop
vertex 0.400000005960464 0.899999976158142 0.0399999991059303
vertex -0.400000005960464 0.899999976158142 0.0399999991059303
vertex -0.400000005960464 0.949999988079071 0.0399999991059303
endloop
endfacet
facet normal 0 0 -1
outer loop
vertex 0.400000005960464 0.949999988079071 0.0399999991059303
vertex -0.400000005960464 0.949999988079071 0.0399999991059303
vertex -0.400000005960464 1 0.0399999991059303
endloop
endfacet
facet normal 0 0 1
outer loop
vertex -0.400000005960464 0.899999976158142 0.0599999986588955
vertex 0.400000005960464 0.899999976158142 0.0599999986588955
vertex 0.400000005960464 0.949999988079071 0.0599999986588955
endloop
endfacet
facet normal 0 0 1
outer loop
vertex -0.400000005960464 0.949999988079071 0.0599999986588955
vertex 0.400000005960464 0.949999988079071 0.0599999986588955
vertex 0.400000005960464 1 0.0599999986588955
endloop
endfacet
facet normal 0 0 1
outer loop
vertex 0.400000005960464 1 0.0599999986588955
vertex -0.400000005960464 1 0.0599999986588955
vertex -0.400000005960464 0.949999988079071 0.0599999986588955
endloop
endfacet
facet normal 0 0 1
outer loop
vertex 0.400000005960464 0.949999988079071 0.0599999986588955
vertex -0.400000005960464 0.949999988079071 0.0599999986588955
vertex -0.400000005960464 0.899999976158142 0.0599999986588955
endloop
endfacet
facet normal 0 1 0
outer loop
vertex -0.400000005960464 1 0.0199999995529652
vertex 0.400000005960464 1 0.0199999995529652
vertex 0.400000005960464 1 0.00999999977648258
endloop
endfacet
facet normal 0 1 0
outer loop
vertex -0.400000005960464 1 0.00999999977648258
vertex 0.400000005960464 1 0.00999999977648258
vertex 0.400000005960464 1 0
endloop
endfacet
facet normal 0 1 0
outer loop
vertex 0.400000005960464 1 0
vertex -0.400000005960464 1 0
vertex -0.400000005960464 1 0.00999999977648258
endloop
endfacet
facet normal 0 1 0
outer loop
vertex 0.400000005960464 1 0.00999999977648258
vertex -0.400000005960464 1 0.00999999977648258
vertex -0.400000005960464 1 0.0199999995529652
endloop
endfacet
facet normal 0 1 0
outer loop
vertex -0.400000005960464 1 0.0599999986588955
vertex 0.400000005960464 1 0.0599999986588955
vertex 0.400000005960464 1 0.0500000007450581
endloop
endfacet
facet normal 0 1 0
outer loop
vertex -0.400000005960464 1 0.0500000007450581
vertex 0.400000005960464 1 0.0500000007450581
vertex 0.400000005960464 1 0.0399999991059303
endloop
endfacet
facet normal 0 1 0
outer loop
vertex 0.400000005960464 1 0.0399999991059303
vertex -0.400000005960464 1 0.0399999991059303
vertex -0.400000005960464 1 0.0500000007450581
endloop
endfacet
facet normal 0 1 0
outer loop
vertex 0.400000005960464 1 0.0500000007450581
vertex -0.400000005960464 1 0.0500000007450581
vertex -0.400000005960464 1 0.0599999986588955
endloop
endfacet
facet normal -1 0 0
outer loop
vertex -0.150000005960464 -1.25 0.00999999977648258
vertex -0.150000005960464 -1.25 0.0199999995529652
vertex -0.150000005960464 -1.125 0.0199999995529652
endloop
endfacet
facet normal -1 0 0
outer loop
vertex -0.150000005960464 -1.125 0.0199999995529652
vertex -0.150000005960464 -1 0.00999999977648258
vertex -0.150000005960464 -1.25 0.00999999977648258
endloop
endfacet
facet normal -1 0 0
outer loop
vertex -0.150000005960464 -1 0.00999999977648258
vertex -0.150000005960464 -1 0
vertex -0.150000005960464 -1.125 0
endloop
endfacet
facet normal -1 0 0
outer loop
vertex -0.150000005960464 -1.125 0
vertex -0.150000005960464 -1.25 0.00999999977648258
vertex -0.150000005960464 -1 0.00999999977648258
endloop
endfacet
facet normal -1 0 0
outer loop
vertex -0.150000005960464 -1.125 0
vertex -0.150000005960464 -1.25 0
vertex -0.150000005960464 -1.25 0.00999999977648258
endloop
endfacet
facet normal -1 0 0
outer loop
vertex -0.150000005960464 -1.125 0.0199999995529652
vertex -0.150000005960464 -1 0.0199999995529652
vertex -0.150000005960464 -1 0.00999999977648258
endloop
endfacet
facet normal 0 -1 0
outer loop
vertex -0.150000005960464 -1.25 0
vertex -0.0500000007450581 -1.25 0
vertex -0.0500000007450581 -1.25 0.00999999977648258
endloop
endfacet
facet normal 0 -1 0
outer loop
vertex -0.150000005960464 -1.25 0.00999999977648258
vertex -0.0500000007450581 -1.25 0.00999999977648258
vertex -0.0500000007450581 -1.25 0.0199999995529652
endloop
endfacet
facet normal 0 -1 0
outer loop
vertex -0.0500000007450581 -1.25 0.0199999995529652
vertex -0.150000005960464 -1.25 0.0199999995529652
vertex -0.150000005960464 -1.25 0.00999999977648258
endloop
endfacet
facet normal 0 -1 0
outer loop
vertex -0.0500000007450581 -1.25 0.00999999977648258
vertex -0.150000005960464 -1.25 0.00999999977648258
vertex -0.150000005960464 -1.25 0
endloop
endfacet
facet normal 0 0 -1
outer loop
vertex -0.150000005960464 -1 0
vertex -0.0500000007450581 -1 0
vertex -0.0500000007450581 -1.125 0
endloop
endfacet
facet normal 0 0 -1
outer loop
vertex -0.150000005960464 -1.125 0
vertex -0.0500000007450581 -1.125 0
vertex -0.0500000007450581 -1.25 0
endloop
endfacet
facet normal 0 0 -1
outer loop
vertex -0.0500000007450581 -1.25 0
vertex -0.150000005960464 -1.25 0
vertex -0.150000005960464 -1.125 0
endloop
endfacet
facet normal 0 0 -1
outer loop
vertex -0.0500000007450581 -1.125 0
vertex -0.150000005960464 -1.125 0
vertex -0.150000005960464 -1 0
endloop
endfacet
facet normal 0 0 1
outer loop
vertex -0.0500000007450581 -1.25 0.0199999995529652
vertex -0.0500000007450581 -1.125 0.0199999995529652
vertex -0.150000005960464 -1.125 0.0199999995529652
endloop
endfacet
facet normal 0 0 1
outer loop
vertex -0.150000005960464 -1.125 0.0199999995529652
vertex -0.0500000007450581 -1.125 0.0199999995529652
vertex -0.0500000007450581 -1 0.0199999995529652
endloop
endfacet
facet normal 0 0 1
outer loop
vertex -0.0500000007450581 -1 0.0199999995529652
vertex -0.150000005960464 -1 0.0199999995529652
vertex -0.150000005960464 -1.125 0.0199999995529652
endloop
endfacet
facet normal 0 0 1
outer loop
vertex -0.150000005960464 -1.125 0.0199999995529652
vertex -0.150000005960464 -1.25 0.0199999995529652
vertex -0.0500000007450581 -1.25 0.0199999995529652
endloop
endfacet
facet normal -1 0 0
outer loop
vertex -0.150000005960464 -1.25 0.0500000007450581
vertex -0.150000005960464 -1.25 0.0599999986588955
vertex -0.150000005960464 -1.125 0.0599999986588955
endloop
endfacet
facet normal -1 0 0
outer loop
vertex -0.150000005960464 -1.125 0.0599999986588955
vertex -0.150000005960464 -1 0.0500000007450581
vertex -0.150000005960464 -1.25 0.0500000007450581
endloop
endfacet
facet normal -1 0 0
outer loop
vertex -0.150000005960464 -1 0.0500000007450581
vertex -0.150000005960464 -1 0.0399999991059303
vertex -0.150000005960464 -1.125 0.0399999991059303
endloop
endfacet
facet normal -1 0 0
outer loop
vertex -0.150000005960464 -1.125 0.0399999991059303
vertex -0.150000005960464 -1.25 0.0500000007450581
vertex -0.150000005960464 -1 0.0500000007450581
endloop
endfacet
facet normal -1 0 0
outer loop
vertex -0.150000005960464 -1.125 0.0399999991059303
vertex -0.150000005960464 -1.25 0.0399999991059303
vertex -0.150000005960464 -1.25 0.0500000007450581
endloop
endfacet
facet normal -1 0 0
outer loop
vertex -0.150000005960464 -1.125 0.0599999986588955
vertex -0.150000005960464 -1 0.0599999986588955
vertex -0.150000005960464 -1 0.0500000007450581
endloop
endfacet
facet normal 0 -1 0
outer loop
vertex -0.150000005960464 -1.25 0.0399999991059303
vertex -0.0500000007450581 -1.25 0.0399999991059303
vertex -0.0500000007450581 -1.25 0.0500000007450581
endloop
endfacet
facet normal 0 -1 0
outer loop
vertex -0.150000005960464 -1.25 0.0500000007450581
vertex -0.0500000007450581 -1.25 0.0500000007450581
vertex -0.0500000007450581 -1.25 0.0599999986588955
endloop
endfacet
facet normal 0 -1 0
outer loop
vertex -0.0500000007450581 -1.25 0.0599999986588955
vertex -0.150000005960464 -1.25 0.0599999986588955
vertex -0.150000005960464 -1.25 0.0500000007450581
endloop
endfacet
facet normal 0 -1 0
outer loop
vertex -0.0500000007450581 -1.25 0.0500000007450581
vertex -0.150000005960464 -1.25 0.0500000007450581
vertex -0.150000005960464 -1.25 0.0399999991059303
endloop
endfacet
facet normal 0 0 -1
outer loop
vertex -0.150000005960464 -1 0.0399999991059303
vertex -0.0500000007450581 -1 0.0399999991059303
vertex -0.0500000007450581 -1.125 0.0399999991059303
endloop
endfacet
facet normal 0 0 -1
outer loop
vertex -0.150000005960464 -1.125 0.0399999991059303
vertex -0.0500000007450581 -1.125 0.0399999991059303
vertex -0.0500000007450581 -1.25 0.0399999991059303
endloop
endfacet
facet normal 0 0 -1
outer loop
vertex -0.0500000007450581 -1.25 0.0399999991059303
vertex -0.150000005960464 -1.25 0.0399999991059303
vertex -0.150000005960464 -1.125 0.0399999991059303
endloop
endfacet
facet normal 0 0 -1
outer loop
vertex -0.0500000007450581 -1.125 0.0399999991059303
vertex -0.150000005960464 -1.125 0.0399999991059303
vertex -0.150000005960464 -1 0.0399999991059303
endloop
endfacet
facet normal 0 0 1
outer loop
vertex -0.0500000007450581 -1.25 0.0599999986588955
vertex -0.0500000007450581 -1.125 0.0599999986588955
vertex -0.150000005960464 -1.125 0.0599999986588955
endloop
endfacet
facet normal 0 0 1
outer loop
vertex -0.150000005960464 -1.125 0.0599999986588955
vertex -0.0500000007450581 -1.125 0.0599999986588955
vertex -0.0500000007450581 -1 0.0599999986588955
endloop
endfacet
facet normal 0 0 1
outer loop
vertex -0.0500000007450581 -1 0.0599999986588955
vertex -0.150000005960464 -1 0.0599999986588955
vertex -0.150000005960464 -1.125 0.0599999986588955
endloop
endfacet
facet normal 0 0 1
outer loop
vertex -0.150000005960464 -1.125 0.0599999986588955
vertex -0.150000005960464 -1.25 0.0599999986588955
vertex -0.0500000007450581 -1.25 0.0599999986588955
endloop
endfacet
facet normal 0 0 -1
outer loop
vertex -0.150000005960464 -0.899999976158142 0
vertex -0.0500000007450581 -0.899999976158142 0
vertex -0.0500000007450581 -0.949999988079071 0
endloop
endfacet
facet normal 0 0 -1
outer loop
vertex -0.150000005960464 -0.949999988079071 0
vertex -0.0500000007450581 -0.949999988079071 0
vertex -0.0500000007450581 -1 0
endloop
endfacet
facet normal 0 0 -1
outer loop
vertex -0.0500000007450581 -1 0
vertex -0.150000005960464 -1 0
vertex -0.150000005960464 -0.949999988079071 0
endloop
endfacet
facet normal 0 0 -1
outer loop
vertex -0.0500000007450581 -0.949999988079071 0
vertex -0.150000005960464 -0.949999988079071 0
vertex -0.150000005960464 -0.899999976158142 0
endloop
endfacet
facet normal 0 0 1
outer loop
vertex -0.150000005960464 -1 0.0199999995529652
vertex -0.0500000007450581 -1 0.0199999995529652
vertex -0.0500000007450581 -0.949999988079071 0.0199999995529652
endloop
endfacet
facet normal 0 0 1
outer loop
vertex -0.150000005960464 -0.949999988079071 0.0199999995529652
vertex -0.0500000007450581 -0.949999988079071 0.0199999995529652
vertex -0.0500000007450581 -0.899999976158142 0.0199999995529652
endloop
endfacet
facet normal 0 0 1
outer loop
vertex -0.0500000007450581 -0.899999976158142 0.0199999995529652
vertex -0.150000005960464 -0.899999976158142 0.0199999995529652
vertex -0.150000005960464 -0.949999988079071 0.0199999995529652
endloop
endfacet
facet normal 0 0 1
outer loop
vertex -0.0500000007450581 -0.949999988079071 0.0199999995529652
vertex -0.150000005960464 -0.949999988079071 0.0199999995529652
vertex -0.150000005960464 -1 0.0199999995529652
endloop
endfacet
facet normal 0 0 -1
outer loop
vertex -0.150000005960464 -0.899999976158142 0.0399999991059303
vertex -0.0500000007450581 -0.899999976158142 0.0399999991059303
vertex -0.0500000007450581 -0.949999988079071 0.0399999991059303
endloop
endfacet
facet normal 0 0 -1
outer loop
vertex -0.150000005960464 -0.949999988079071 0.0399999991059303
vertex -0.0500000007450581 -0.949999988079071 0.0399999991059303
vertex -0.0500000007450581 -1 0.0399999991059303
endloop
endfacet
facet normal 0 0 -1
outer loop
vertex -0.0500000007450581 -1 0.0399999991059303
vertex -0.150000005960464 -1 0.0399999991059303
vertex -0.150000005960464 -0.949999988079071 0.0399999991059303
endloop
endfacet
facet normal 0 0 -1
outer loop
vertex -0.0500000007450581 -0.949999988079071 0.0399999991059303
vertex -0.150000005960464 -0.949999988079071 0.0399999991059303
vertex -0.150000005960464 -0.899999976158142 0.0399999991059303
endloop
endfacet
facet normal 0 0 1
outer loop
vertex -0.150000005960464 -1 0.0599999986588955
vertex -0.0500000007450581 -1 0.0599999986588955
vertex -0.0500000007450581 -0.949999988079071 0.0599999986588955
endloop
endfacet
facet normal 0 0 1
outer loop
vertex -0.150000005960464 -0.949999988079071 0.0599999986588955
vertex -0.0500000007450581 -0.949999988079071 0.0599999986588955
vertex -0.0500000007450581 -0.899999976158142 0.0599999986588955
endloop
endfacet
facet normal 0 0 1
outer loop
vertex -0.0500000007450581 -0.899999976158142 0.0599999986588955
vertex -0.150000005960464 -0.899999976158142 0.0599999986588955
vertex -0.150000005960464 -0.949999988079071 0.0599999986588955
endloop
endfacet
facet normal 0 0 1
outer loop
vertex -0.0500000007450581 -0.949999988079071 0.0599999986588955
vertex -0.150000005960464 -0.949999988079071 0.0599999986588955
vertex -0.150000005960464 -1 0.0599999986588955
endloop
endfacet
facet normal 0 1 0
outer loop
vertex -0.150000005960464 -0.899999976158142 0.0199999995529652
vertex -0.0500000007450581 -0.899999976158142 0.0199999995529652
vertex -0.0500000007450581 -0.899999976158142 0.00999999977648258
endloop
endfacet
facet normal 0 1 0
outer loop
vertex -0.150000005960464 -0.899999976158142 0.00999999977648258
vertex -0.0500000007450581 -0.899999976158142 0.00999999977648258
vertex -0.0500000007450581 -0.899999976158142 0
endloop
endfacet
facet normal 0 1 0
outer loop
vertex -0.0500000007450581 -0.899999976158142 0
vertex -0.150000005960464 -0.899999976158142 0
vertex -0.150000005960464 -0.899999976158142 0.00999999977648258
endloop
endfacet
facet normal 0 1 0
outer loop
vertex -0.0500000007450581 -0.899999976158142 0.00999999977648258
vertex -0.150000005960464 -0.899999976158142 0.00999999977648258
vertex -0.150000005960464 -0.899999976158142 0.0199999995529652
endloop
endfacet
facet normal 0 1 0
outer loop
vertex -0.150000005960464 -0.899999976158142 0.0599999986588955
vertex -0.0500000007450581 -0.899999976158142 0.0599999986588955
vertex -0.0500000007450581 -0.899999976158142 0.0500000007450581
endloop
endfacet
facet normal 0 1 0
outer loop
vertex -0.150000005960464 -0.899999976158142 0.0500000007450581
vertex -0.0500000007450581 -0.899999976158142 0.0500000007450581
vertex -0.0500000007450581 -0.899999976158142 0.0399999991059303
endloop
endfacet
facet normal 0 1 0
outer loop
vertex -0.0500000007450581 -0.899999976158142 0.0399999991059303
vertex -0.150000005960464 -0.899999976158142 0.0399999991059303
vertex -0.150000005960464 -0.899999976158142 0.0500000007450581
endloop
endfacet
facet normal 0 1 0
outer loop
vertex -0.0500000007450581 -0.899999976158142 0.0500000007450581
vertex -0.150000005960464 -0.899999976158142 0.0500000007450581
vertex -0.150000005960464 -0.899999976158142 0.0599999986588955
endloop
endfacet
facet normal 1 0 0
outer loop
vertex -0.0500000007450581 -1 0.00999999977648258
vertex -0.0500000007450581 -1 0.0199999995529652
vertex -0.0500000007450581 -1.125 0.0199999995529652
endloop
endfacet
facet normal 1 0 0
outer loop
vertex -0.0500000007450581 -1.125 0.0199999995529652
vertex -0.0500000007450581 -1.25 0.00999999977648258
vertex -0.0500000007450581 -1 0.00999999977648258
endloop
endfacet
facet normal 1 0 0
outer loop
vertex -0.0500000007450581 -1.25 0.00999999977648258
vertex -0.0500000007450581 -1.25 0
vertex -0.0500000007450581 -1.125 0
endloop
endfacet
facet normal 1 0 0
outer loop
vertex -0.0500000007450581 -1.125 0
vertex -0.0500000007450581 -1 0.00999999977648258
vertex -0.0500000007450581 -1.25 0.00999999977648258
endloop
endfacet
facet normal 1 0 0
outer loop
vertex -0.0500000007450581 -1.125 0
vertex -0.0500000007450581 -1 0
vertex -0.0500000007450581 -1 0.00999999977648258
endloop
endfacet
facet normal 1 0 0
outer loop
vertex -0.0500000007450581 -1.125 0.0199999995529652
vertex -0.0500000007450581 -1.25 0.0199999995529652
vertex -0.0500000007450581 -1.25 0.00999999977648258
endloop
endfacet
facet normal 1 0 0
outer loop
vertex -0.0500000007450581 -1 0.0500000007450581
vertex -0.0500000007450581 -1 0.0599999986588955
vertex -0.0500000007450581 -1.125 0.0599999986588955
endloop
endfacet
facet normal 1 0 0
outer loop
vertex -0.0500000007450581 -1.125 0.0599999986588955
vertex -0.0500000007450581 -1.25 0.0500000007450581
vertex -0.0500000007450581 -1 0.0500000007450581
endloop
endfacet
facet normal 1 0 0
outer loop
vertex -0.0500000007450581 -1.25 0.0500000007450581
vertex -0.0500000007450581 -1.25 0.0399999991059303
vertex -0.0500000007450581 -1.125 0.0399999991059303
endloop
endfacet
facet normal 1 0 0
outer loop
vertex -0.0500000007450581 -1.125 0.0399999991059303
vertex -0.0500000007450581 -1 0.0500000007450581
vertex -0.0500000007450581 -1.25 0.0500000007450581
endloop
endfacet
facet normal 1 0 0
outer loop
vertex -0.0500000007450581 -1.125 0.0399999991059303
vertex -0.0500000007450581 -1 0.0399999991059303
vertex -0.0500000007450581 -1 0.0500000007450581
endloop
endfacet
facet normal 1 0 0
outer loop
vertex -0.0500000007450581 -1.125 0.0599999986588955
vertex -0.0500000007450581 -1.25 0.0599999986588955
vertex -0.0500000007450581 -1.25 0.0500000007450581
endloop
endfacet
facet normal 1 0 0
outer loop
vertex -0.0500000007450581 -0.899999976158142 0.00999999977648258
vertex -0.0500000007450581 -0.899999976158142 0.0199999995529652
vertex -0.0500000007450581 -0.949999988079071 0.0199999995529652
endloop
endfacet
facet normal 1 0 0
outer loop
vertex -0.0500000007450581 -0.949999988079071 0.0199999995529652
vertex -0.0500000007450581 -1 0.00999999977648258
vertex -0.0500000007450581 -0.899999976158142 0.00999999977648258
endloop
endfacet
facet normal 1 0 0
outer loop
vertex -0.0500000007450581 -0.899999976158142 0.00999999977648258
vertex -0.0500000007450581 -1 0.00999999977648258
vertex -0.0500000007450581 -0.949999988079071 0
endloop
endfacet
facet normal 1 0 0
outer loop
vertex -0.0500000007450581 -1 0.00999999977648258
vertex -0.0500000007450581 -1 0
vertex -0.0500000007450581 -0.949999988079071 0
endloop
endfacet
facet normal 1 0 0
outer loop
vertex -0.0500000007450581 -0.949999988079071 0
vertex -0.0500000007450581 -0.899999976158142 0
vertex -0.0500000007450581 -0.899999976158142 0.00999999977648258
endloop
endfacet
facet normal 1 0 0
outer loop
vertex -0.0500000007450581 -0.949999988079071 0.0199999995529652
vertex -0.0500000007450581 -1 0.0199999995529652
vertex -0.0500000007450581 -1 0.00999999977648258
endloop
endfacet
facet normal 1 0 0
outer loop
vertex -0.0500000007450581 -0.899999976158142 0.0500000007450581
vertex -0.0500000007450581 -0.899999976158142 0.0599999986588955
vertex -0.0500000007450581 -0.949999988079071 0.0599999986588955
endloop
endfacet
facet normal 1 0 0
outer loop
vertex -0.0500000007450581 -0.949999988079071 0.0599999986588955
vertex -0.0500000007450581 -1 0.0500000007450581
vertex -0.0500000007450581 -0.899999976158142 0.0500000007450581
endloop
endfacet
facet normal 1 0 0
outer loop
vertex -0.0500000007450581 -0.899999976158142 0.0500000007450581
vertex -0.0500000007450581 -1 0.0500000007450581
vertex -0.0500000007450581 -0.949999988079071 0.0399999991059303
endloop
endfacet
facet normal 1 0 0
outer loop
vertex -0.0500000007450581 -1 0.0500000007450581
vertex -0.0500000007450581 -1 0.0399999991059303
vertex -0.0500000007450581 -0.949999988079071 0.0399999991059303
endloop
endfacet
facet normal 1 0 0
outer loop
vertex -0.0500000007450581 -0.949999988079071 0.0399999991059303
vertex -0.0500000007450581 -0.899999976158142 0.0399999991059303
vertex -0.0500000007450581 -0.899999976158142 0.0500000007450581
endloop
endfacet
facet normal 1 0 0
outer loop
vertex -0.0500000007450581 -0.949999988079071 0.0599999986588955
vertex -0.0500000007450581 -1 0.0599999986588955
vertex -0.0500000007450581 -1 0.0500000007450581
endloop
endfacet
facet normal -1 0 0
outer loop
vertex 0.0500000007450581 -1.25 0.00999999977648258
vertex 0.0500000007450581 -1.25 0.0199999995529652
vertex 0.0500000007450581 -1.125 0.0199999995529652
endloop
endfacet
facet normal -1 0 0
outer loop
vertex 0.0500000007450581 -1.125 0.0199999995529652
vertex 0.0500000007450581 -1 0.00999999977648258
vertex 0.0500000007450581 -1.25 0.00999999977648258
endloop
endfacet
facet normal -1 0 0
outer loop
vertex 0.0500000007450581 -1 0.00999999977648258
vertex 0.0500000007450581 -1 0
vertex 0.0500000007450581 -1.125 0
endloop
endfacet
facet normal -1 0 0
outer loop
vertex 0.0500000007450581 -1.125 0
vertex 0.0500000007450581 -1.25 0.00999999977648258
vertex 0.0500000007450581 -1 0.00999999977648258
endloop
endfacet
facet normal -1 0 0
outer loop
vertex 0.0500000007450581 -1.125 0
vertex 0.0500000007450581 -1.25 0
vertex 0.0500000007450581 -1.25 0.00999999977648258
endloop
endfacet
facet normal -1 0 0
outer loop
vertex 0.0500000007450581 -1.125 0.0199999995529652
vertex 0.0500000007450581 -1 0.0199999995529652
vertex 0.0500000007450581 -1 0.00999999977648258
endloop
endfacet
facet normal 0 -1 0
outer loop
vertex 0.0500000007450581 -1.25 0
vertex 0.150000005960464 -1.25 0
vertex 0.150000005960464 -1.25 0.00999999977648258
endloop
endfacet
facet normal 0 -1 0
outer loop
vertex 0.0500000007450581 -1.25 0.00999999977648258
vertex 0.150000005960464 -1.25 0.00999999977648258
vertex 0.150000005960464 -1.25 0.0199999995529652
endloop
endfacet
facet normal 0 -1 0
outer loop
vertex 0.150000005960464 -1.25 0.0199999995529652
vertex 0.0500000007450581 -1.25 0.0199999995529652
vertex 0.0500000007450581 -1.25 0.00999999977648258
endloop
endfacet
facet normal 0 -1 0
outer loop
vertex 0.150000005960464 -1.25 0.00999999977648258
vertex 0.0500000007450581 -1.25 0.00999999977648258
vertex 0.0500000007450581 -1.25 0
endloop
endfacet
facet normal 0 0 -1
outer loop
vertex 0.0500000007450581 -1 0
vertex 0.150000005960464 -1 0
vertex 0.150000005960464 -1.125 0
endloop
endfacet
facet normal 0 0 -1
outer loop
vertex 0.0500000007450581 -1.125 0
vertex 0.150000005960464 -1.125 0
vertex 0.150000005960464 -1.25 0
endloop
endfacet
facet normal 0 0 -1
outer loop
vertex 0.150000005960464 -1.25 0
vertex 0.0500000007450581 -1.25 0
vertex 0.0500000007450581 -1.125 0
endloop
endfacet
facet normal 0 0 -1
outer loop
vertex 0.150000005960464 -1.125 0
vertex 0.0500000007450581 -1.125 0
vertex 0.0500000007450581 -1 0
endloop
endfacet
facet normal 0 0 1
outer loop
vertex 0.0500000007450581 -1.25 0.0199999995529652
vertex 0.150000005960464 -1.25 0.0199999995529652
vertex 0.150000005960464 -1.125 0.0199999995529652
endloop
endfacet
facet normal 0 0 1
outer loop
vertex 0.0500000007450581 -1.125 0.0199999995529652
vertex 0.150000005960464 -1.125 0.0199999995529652
vertex 0.150000005960464 -1 0.0199999995529652
endloop
endfacet
facet normal 0 0 1
outer loop
vertex 0.150000005960464 -1 0.0199999995529652
vertex 0.0500000007450581 -1 0.0199999995529652
vertex 0.0500000007450581 -1.125 0.0199999995529652
endloop
endfacet
facet normal 0 0 1
outer loop
vertex 0.150000005960464 -1.125 0.0199999995529652
vertex 0.0500000007450581 -1.125 0.0199999995529652
vertex 0.0500000007450581 -1.25 0.0199999995529652
endloop
endfacet
facet normal -1 0 0
outer loop
vertex 0.0500000007450581 -1.25 0.0500000007450581
vertex 0.0500000007450581 -1.25 0.0599999986588955
vertex 0.0500000007450581 -1.125 0.0599999986588955
endloop
endfacet
facet normal -1 0 0
outer loop
vertex 0.0500000007450581 -1.125 0.0599999986588955
vertex 0.0500000007450581 -1 0.0500000007450581
vertex 0.0500000007450581 -1.25 0.0500000007450581
endloop
endfacet
facet normal -1 0 0
outer loop
vertex 0.0500000007450581 -1 0.0500000007450581
vertex 0.0500000007450581 -1 0.0399999991059303
vertex 0.0500000007450581 -1.125 0.0399999991059303
endloop
endfacet
facet normal -1 0 0
outer loop
vertex 0.0500000007450581 -1.125 0.0399999991059303
vertex 0.0500000007450581 -1.25 0.0500000007450581
vertex 0.0500000007450581 -1 0.0500000007450581
endloop
endfacet
facet normal -1 0 0
outer loop
vertex 0.0500000007450581 -1.125 0.0399999991059303
vertex 0.0500000007450581 -1.25 0.0399999991059303
vertex 0.0500000007450581 -1.25 0.0500000007450581
endloop
endfacet
facet normal -1 0 0
outer loop
vertex 0.0500000007450581 -1.125 0.0599999986588955
vertex 0.0500000007450581 -1 0.0599999986588955
vertex 0.0500000007450581 -1 0.0500000007450581
endloop
endfacet
facet normal 0 -1 0
outer loop
vertex 0.0500000007450581 -1.25 0.0399999991059303
vertex 0.150000005960464 -1.25 0.0399999991059303
vertex 0.150000005960464 -1.25 0.0500000007450581
endloop
endfacet
facet normal 0 -1 0
outer loop
vertex 0.0500000007450581 -1.25 0.0500000007450581
vertex 0.150000005960464 -1.25 0.0500000007450581
vertex 0.150000005960464 -1.25 0.0599999986588955
endloop
endfacet
facet normal 0 -1 0
outer loop
vertex 0.150000005960464 -1.25 0.0599999986588955
vertex 0.0500000007450581 -1.25 0.0599999986588955
vertex 0.0500000007450581 -1.25 0.0500000007450581
endloop
endfacet
facet normal 0 -1 0
outer loop
vertex 0.150000005960464 -1.25 0.0500000007450581
vertex 0.0500000007450581 -1.25 0.0500000007450581
vertex 0.0500000007450581 -1.25 0.0399999991059303
endloop
endfacet
facet normal 0 0 -1
outer loop
vertex 0.0500000007450581 -1 0.0399999991059303
vertex 0.150000005960464 -1 0.0399999991059303
vertex 0.150000005960464 -1.125 0.0399999991059303
endloop
endfacet
facet normal 0 0 -1
outer loop
vertex 0.0500000007450581 -1.125 0.0399999991059303
vertex 0.150000005960464 -1.125 0.0399999991059303
vertex 0.150000005960464 -1.25 0.0399999991059303
endloop
endfacet
facet normal 0 0 -1
outer loop
vertex 0.150000005960464 -1.25 0.0399999991059303
vertex 0.0500000007450581 -1.25 0.0399999991059303
vertex 0.0500000007450581 -1.125 0.0399999991059303
endloop
endfacet
facet normal 0 0 -1
outer loop
vertex 0.150000005960464 -1.125 0.0399999991059303
vertex 0.0500000007450581 -1.125 0.0399999991059303
vertex 0.0500000007450581 -1 0.0399999991059303
endloop
endfacet
facet normal 0 0 1
outer loop
vertex 0.0500000007450581 -1.25 0.0599999986588955
vertex 0.150000005960464 -1.25 0.0599999986588955
vertex 0.150000005960464 -1.125 0.0599999986588955
endloop
endfacet
facet normal 0 0 1
outer loop
vertex 0.0500000007450581 -1.125 0.0599999986588955
vertex 0.150000005960464 -1.125 0.0599999986588955
vertex 0.150000005960464 -1 0.0599999986588955
endloop
endfacet
facet normal 0 0 1
outer loop
vertex 0.150000005960464 -1 0.0599999986588955
vertex 0.0500000007450581 -1 0.0599999986588955
vertex 0.0500000007450581 -1.125 0.0599999986588955
endloop
endfacet
facet normal 0 0 1
outer loop
vertex 0.150000005960464 -1.125 0.0599999986588955
vertex 0.0500000007450581 -1.125 0.0599999986588955
vertex 0.0500000007450581 -1.25 0.0599999986588955
endloop
endfacet
facet normal -1 0 0
outer loop
vertex 0.0500000007450581 -0.899999976158142 0.00999999977648258
vertex 0.0500000007450581 -1 0.00999999977648258
vertex 0.0500000007450581 -0.949999988079071 0.0199999995529652
endloop
endfacet
facet normal -1 0 0
outer loop
vertex 0.0500000007450581 -1 0.00999999977648258
vertex 0.0500000007450581 -1 0.0199999995529652
vertex 0.0500000007450581 -0.949999988079071 0.0199999995529652
endloop
endfacet
facet normal -1 0 0
outer loop
vertex 0.0500000007450581 -0.899999976158142 0.00999999977648258
vertex 0.0500000007450581 -0.899999976158142 0
vertex 0.0500000007450581 -0.949999988079071 0
endloop
endfacet
facet normal -1 0 0
outer loop
vertex 0.0500000007450581 -0.949999988079071 0
vertex 0.0500000007450581 -1 0.00999999977648258
vertex 0.0500000007450581 -0.899999976158142 0.00999999977648258
endloop
endfacet
facet normal -1 0 0
outer loop
vertex 0.0500000007450581 -0.949999988079071 0
vertex 0.0500000007450581 -1 0
vertex 0.0500000007450581 -1 0.00999999977648258
endloop
endfacet
facet normal -1 0 0
outer loop
vertex 0.0500000007450581 -0.949999988079071 0.0199999995529652
vertex 0.0500000007450581 -0.899999976158142 0.0199999995529652
vertex 0.0500000007450581 -0.899999976158142 0.00999999977648258
endloop
endfacet
facet normal 0 0 -1
outer loop
vertex 0.150000005960464 -0.949999988079071 0
vertex 0.0500000007450581 -0.949999988079071 0
vertex 0.0500000007450581 -0.899999976158142 0
endloop
endfacet
facet normal 0 0 -1
outer loop
vertex 0.0500000007450581 -0.949999988079071 0
vertex 0.150000005960464 -0.949999988079071 0
vertex 0.150000005960464 -1 0
endloop
endfacet
facet normal 0 0 -1
outer loop
vertex 0.150000005960464 -1 0
vertex 0.0500000007450581 -1 0
vertex 0.0500000007450581 -0.949999988079071 0
endloop
endfacet
facet normal 0 0 -1
outer loop
vertex 0.0500000007450581 -0.899999976158142 0
vertex 0.150000005960464 -0.899999976158142 0
vertex 0.150000005960464 -0.949999988079071 0
endloop
endfacet
facet normal 0 0 1
outer loop
vertex 0.0500000007450581 -1 0.0199999995529652
vertex 0.150000005960464 -1 0.0199999995529652
vertex 0.150000005960464 -0.949999988079071 0.0199999995529652
endloop
endfacet
facet normal 0 0 1
outer loop
vertex 0.150000005960464 -0.949999988079071 0.0199999995529652
vertex 0.150000005960464 -0.899999976158142 0.0199999995529652
vertex 0.0500000007450581 -0.899999976158142 0.0199999995529652
endloop
endfacet
facet normal 0 0 1
outer loop
vertex 0.0500000007450581 -0.899999976158142 0.0199999995529652
vertex 0.0500000007450581 -0.949999988079071 0.0199999995529652
vertex 0.150000005960464 -0.949999988079071 0.0199999995529652
endloop
endfacet
facet normal 0 0 1
outer loop
vertex 0.150000005960464 -0.949999988079071 0.0199999995529652
vertex 0.0500000007450581 -0.949999988079071 0.0199999995529652
vertex 0.0500000007450581 -1 0.0199999995529652
endloop
endfacet
facet normal -1 0 0
outer loop
vertex 0.0500000007450581 -0.899999976158142 0.0500000007450581
vertex 0.0500000007450581 -1 0.0500000007450581
vertex 0.0500000007450581 -0.949999988079071 0.0599999986588955
endloop
endfacet
facet normal -1 0 0
outer loop
vertex 0.0500000007450581 -1 0.0500000007450581
vertex 0.0500000007450581 -1 0.0599999986588955
vertex 0.0500000007450581 -0.949999988079071 0.0599999986588955
endloop
endfacet
facet normal -1 0 0
outer loop
vertex 0.0500000007450581 -0.899999976158142 0.0500000007450581
vertex 0.0500000007450581 -0.899999976158142 0.0399999991059303
vertex 0.0500000007450581 -0.949999988079071 0.0399999991059303
endloop
endfacet
facet normal -1 0 0
outer loop
vertex 0.0500000007450581 -0.949999988079071 0.0399999991059303
vertex 0.0500000007450581 -1 0.0500000007450581
vertex 0.0500000007450581 -0.899999976158142 0.0500000007450581
endloop
endfacet
facet normal -1 0 0
outer loop
vertex 0.0500000007450581 -0.949999988079071 0.0399999991059303
vertex 0.0500000007450581 -1 0.0399999991059303
vertex 0.0500000007450581 -1 0.0500000007450581
endloop
endfacet
facet normal -1 0 0
outer loop
vertex 0.0500000007450581 -0.949999988079071 0.0599999986588955
vertex 0.0500000007450581 -0.899999976158142 0.0599999986588955
vertex 0.0500000007450581 -0.899999976158142 0.0500000007450581
endloop
endfacet
facet normal 0 0 -1
outer loop
vertex 0.150000005960464 -0.949999988079071 0.0399999991059303
vertex 0.0500000007450581 -0.949999988079071 0.0399999991059303
vertex 0.0500000007450581 -0.899999976158142 0.0399999991059303
endloop
endfacet
facet normal 0 0 -1
outer loop
vertex 0.0500000007450581 -0.949999988079071 0.0399999991059303
vertex 0.150000005960464 -0.949999988079071 0.0399999991059303
vertex 0.150000005960464 -1 0.0399999991059303
endloop
endfacet
facet normal 0 0 -1
outer loop
vertex 0.150000005960464 -1 0.0399999991059303
vertex 0.0500000007450581 -1 0.0399999991059303
vertex 0.0500000007450581 -0.949999988079071 0.0399999991059303
endloop
endfacet
facet normal 0 0 -1
outer loop
vertex 0.0500000007450581 -0.899999976158142 0.0399999991059303
vertex 0.150000005960464 -0.899999976158142 0.0399999991059303
vertex 0.150000005960464 -0.949999988079071 0.0399999991059303
endloop
endfacet
facet normal 0 0 1
outer loop
vertex 0.0500000007450581 -1 0.0599999986588955
vertex 0.150000005960464 -1 0.0599999986588955
vertex 0.150000005960464 -0.949999988079071 0.0599999986588955
endloop
endfacet
facet normal 0 0 1
outer loop
vertex 0.150000005960464 -0.949999988079071 0.0599999986588955
vertex 0.150000005960464 -0.899999976158142 0.0599999986588955
vertex 0.0500000007450581 -0.899999976158142 0.0599999986588955
endloop
endfacet
facet normal 0 0 1
outer loop
vertex 0.0500000007450581 -0.899999976158142 0.0599999986588955
vertex 0.0500000007450581 -0.949999988079071 0.0599999986588955
vertex 0.150000005960464 -0.949999988079071 0.0599999986588955
endloop
endfacet
facet normal 0 0 1
outer loop
vertex 0.150000005960464 -0.949999988079071 0.0599999986588955
vertex 0.0500000007450581 -0.949999988079071 0.0599999986588955
vertex 0.0500000007450581 -1 0.0599999986588955
endloop
endfacet
facet normal 0 1 0
outer loop
vertex 0.0500000007450581 -0.899999976158142 0.0199999995529652
vertex 0.150000005960464 -0.899999976158142 0.0199999995529652
vertex 0.150000005960464 -0.899999976158142 0.00999999977648258
endloop
endfacet
facet normal 0 1 0
outer loop
vertex 0.0500000007450581 -0.899999976158142 0.00999999977648258
vertex 0.150000005960464 -0.899999976158142 0.00999999977648258
vertex 0.150000005960464 -0.899999976158142 0
endloop
endfacet
facet normal 0 1 0
outer loop
vertex 0.150000005960464 -0.899999976158142 0
vertex 0.0500000007450581 -0.899999976158142 0
vertex 0.0500000007450581 -0.899999976158142 0.00999999977648258
endloop
endfacet
facet normal 0 1 0
outer loop
vertex 0.150000005960464 -0.899999976158142 0.00999999977648258
vertex 0.0500000007450581 -0.899999976158142 0.00999999977648258
vertex 0.0500000007450581 -0.899999976158142 0.0199999995529652
endloop
endfacet
facet normal 0 1 0
outer loop
vertex 0.0500000007450581 -0.899999976158142 0.0599999986588955
vertex 0.150000005960464 -0.899999976158142 0.0599999986588955
vertex 0.150000005960464 -0.899999976158142 0.0500000007450581
endloop
endfacet
facet normal 0 1 0
outer loop
vertex 0.0500000007450581 -0.899999976158142 0.0500000007450581
vertex 0.150000005960464 -0.899999976158142 0.0500000007450581
vertex 0.150000005960464 -0.899999976158142 0.0399999991059303
endloop
endfacet
facet normal 0 1 0
outer loop
vertex 0.150000005960464 -0.899999976158142 0.0399999991059303
vertex 0.0500000007450581 -0.899999976158142 0.0399999991059303
vertex 0.0500000007450581 -0.899999976158142 0.0500000007450581
endloop
endfacet
facet normal 0 1 0
outer loop
vertex 0.150000005960464 -0.899999976158142 0.0500000007450581
vertex 0.0500000007450581 -0.899999976158142 0.0500000007450581
vertex 0.0500000007450581 -0.899999976158142 0.0599999986588955
endloop
endfacet
facet normal 1 0 0
outer loop
vertex 0.150000005960464 -1 0.00999999977648258
vertex 0.150000005960464 -1 0.0199999995529652
vertex 0.150000005960464 -1.125 0.0199999995529652
endloop
endfacet
facet normal 1 0 0
outer loop
vertex 0.150000005960464 -1.125 0.0199999995529652
vertex 0.150000005960464 -1.25 0.00999999977648258
vertex 0.150000005960464 -1 0.00999999977648258
endloop
endfacet
facet normal 1 0 0
outer loop
vertex 0.150000005960464 -1.25 0.00999999977648258
vertex 0.150000005960464 -1.25 0
vertex 0.150000005960464 -1.125 0
endloop
endfacet
facet normal 1 0 0
outer loop
vertex 0.150000005960464 -1.125 0
vertex 0.150000005960464 -1 0.00999999977648258
vertex 0.150000005960464 -1.25 0.00999999977648258
endloop
endfacet
facet normal 1 0 0
outer loop
vertex 0.150000005960464 -1.125 0
vertex 0.150000005960464 -1 0
vertex 0.150000005960464 -1 0.00999999977648258
endloop
endfacet
facet normal 1 0 0
outer loop
vertex 0.150000005960464 -1.125 0.0199999995529652
vertex 0.150000005960464 -1.25 0.0199999995529652
vertex 0.150000005960464 -1.25 0.00999999977648258
endloop
endfacet
facet normal 1 0 0
outer loop
vertex 0.150000005960464 -1 0.0500000007450581
vertex 0.150000005960464 -1 0.0599999986588955
vertex 0.150000005960464 -1.125 0.0599999986588955
endloop
endfacet
facet normal 1 0 0
outer loop
vertex 0.150000005960464 -1.125 0.0599999986588955
vertex 0.150000005960464 -1.25 0.0500000007450581
vertex 0.150000005960464 -1 0.0500000007450581
endloop
endfacet
facet normal 1 0 0
outer loop
vertex 0.150000005960464 -1.25 0.0500000007450581
vertex 0.150000005960464 -1.25 0.0399999991059303
vertex 0.150000005960464 -1.125 0.0399999991059303
endloop
endfacet
facet normal 1 0 0
outer loop
vertex 0.150000005960464 -1.125 0.0399999991059303
vertex 0.150000005960464 -1 0.0500000007450581
vertex 0.150000005960464 -1.25 0.0500000007450581
endloop
endfacet
facet normal 1 0 0
outer loop
vertex 0.150000005960464 -1.125 0.0399999991059303
vertex 0.150000005960464 -1 0.0399999991059303
vertex 0.150000005960464 -1 0.0500000007450581
endloop
endfacet
facet normal 1 0 0
outer loop
vertex 0.150000005960464 -1.125 0.0599999986588955
vertex 0.150000005960464 -1.25 0.0599999986588955
vertex 0.150000005960464 -1.25 0.0500000007450581
endloop
endfacet
facet normal 0 -1 0
outer loop
vertex 0.400000005960464 -1 0.0199999995529652
vertex 0.150000005960464 -1 0.0199999995529652
vertex 0.150000005960464 -1 0.00999999977648258
endloop
endfacet
facet normal 0 -1 0
outer loop
vertex 0.400000005960464 -1 0.00999999977648258
vertex 0.150000005960464 -1 0.00999999977648258
vertex 0.150000005960464 -1 0
endloop
endfacet
facet normal 0 -1 0
outer loop
vertex 0.150000005960464 -1 0
vertex 0.400000005960464 -1 0
vertex 0.400000005960464 -1 0.00999999977648258
endloop
endfacet
facet normal 0 -1 0
outer loop
vertex 0.150000005960464 -1 0.00999999977648258
vertex 0.400000005960464 -1 0.00999999977648258
vertex 0.400000005960464 -1 0.0199999995529652
endloop
endfacet
facet normal 0 0 -1
outer loop
vertex 0.150000005960464 -0.899999976158142 0
vertex 0.400000005960464 -0.899999976158142 0
vertex 0.400000005960464 -0.949999988079071 0
endloop
endfacet
facet normal 0 0 -1
outer loop
vertex 0.150000005960464 -0.949999988079071 0
vertex 0.400000005960464 -0.949999988079071 0
vertex 0.400000005960464 -1 0
endloop
endfacet
facet normal 0 0 -1
outer loop
vertex 0.400000005960464 -1 0
vertex 0.150000005960464 -1 0
vertex 0.150000005960464 -0.949999988079071 0
endloop
endfacet
facet normal 0 0 -1
outer loop
vertex 0.400000005960464 -0.949999988079071 0
vertex 0.150000005960464 -0.949999988079071 0
vertex 0.150000005960464 -0.899999976158142 0
endloop
endfacet
facet normal 0 0 1
outer loop
vertex 0.150000005960464 -1 0.0199999995529652
vertex 0.400000005960464 -1 0.0199999995529652
vertex 0.400000005960464 -0.949999988079071 0.0199999995529652
endloop
endfacet
facet normal 0 0 1
outer loop
vertex 0.150000005960464 -0.949999988079071 0.0199999995529652
vertex 0.400000005960464 -0.949999988079071 0.0199999995529652
vertex 0.400000005960464 -0.899999976158142 0.0199999995529652
endloop
endfacet
facet normal 0 0 1
outer loop
vertex 0.400000005960464 -0.899999976158142 0.0199999995529652
vertex 0.150000005960464 -0.899999976158142 0.0199999995529652
vertex 0.150000005960464 -0.949999988079071 0.0199999995529652
endloop
endfacet
facet normal 0 0 1
outer loop
vertex 0.400000005960464 -0.949999988079071 0.0199999995529652
vertex 0.150000005960464 -0.949999988079071 0.0199999995529652
vertex 0.150000005960464 -1 0.0199999995529652
endloop
endfacet
facet normal 0 -1 0
outer loop
vertex 0.400000005960464 -1 0.0599999986588955
vertex 0.150000005960464 -1 0.0599999986588955
vertex 0.150000005960464 -1 0.0500000007450581
endloop
endfacet
facet normal 0 -1 0
outer loop
vertex 0.400000005960464 -1 0.0500000007450581
vertex 0.150000005960464 -1 0.0500000007450581
vertex 0.150000005960464 -1 0.0399999991059303
endloop
endfacet
facet normal 0 -1 0
outer loop
vertex 0.150000005960464 -1 0.0399999991059303
vertex 0.400000005960464 -1 0.0399999991059303
vertex 0.400000005960464 -1 0.0500000007450581
endloop
endfacet
facet normal 0 -1 0
outer loop
vertex 0.150000005960464 -1 0.0500000007450581
vertex 0.400000005960464 -1 0.0500000007450581
vertex 0.400000005960464 -1 0.0599999986588955
endloop
endfacet
facet normal 0 0 -1
outer loop
vertex 0.150000005960464 -0.899999976158142 0.0399999991059303
vertex 0.400000005960464 -0.899999976158142 0.0399999991059303
vertex 0.400000005960464 -0.949999988079071 0.0399999991059303
endloop
endfacet
facet normal 0 0 -1
outer loop
vertex 0.150000005960464 -0.949999988079071 0.0399999991059303
vertex 0.400000005960464 -0.949999988079071 0.0399999991059303
vertex 0.400000005960464 -1 0.0399999991059303
endloop
endfacet
facet normal 0 0 -1
outer loop
vertex 0.400000005960464 -1 0.0399999991059303
vertex 0.150000005960464 -1 0.0399999991059303
vertex 0.150000005960464 -0.949999988079071 0.0399999991059303
endloop
endfacet
facet normal 0 0 -1
outer loop
vertex 0.400000005960464 -0.949999988079071 0.0399999991059303
vertex 0.150000005960464 -0.949999988079071 0.0399999991059303
vertex 0.150000005960464 -0.899999976158142 0.0399999991059303
endloop
endfacet
facet normal 0 0 1
outer loop
vertex 0.150000005960464 -1 0.0599999986588955
vertex 0.400000005960464 -1 0.0599999986588955
vertex 0.400000005960464 -0.949999988079071 0.0599999986588955
endloop
endfacet
facet normal 0 0 1
outer loop
vertex 0.150000005960464 -0.949999988079071 0.0599999986588955
vertex 0.400000005960464 -0.949999988079071 0.0599999986588955
vertex 0.400000005960464 -0.899999976158142 0.0599999986588955
endloop
endfacet
facet normal 0 0 1
outer loop
vertex 0.400000005960464 -0.899999976158142 0.0599999986588955
vertex 0.150000005960464 -0.899999976158142 0.0599999986588955
vertex 0.150000005960464 -0.949999988079071 0.0599999986588955
endloop
endfacet
facet normal 0 0 1
outer loop
vertex 0.400000005960464 -0.949999988079071 0.0599999986588955
vertex 0.150000005960464 -0.949999988079071 0.0599999986588955
vertex 0.150000005960464 -1 0.0599999986588955
endloop
endfacet
facet normal 0 1 0
outer loop
vertex 0.150000005960464 -0.899999976158142 0.0199999995529652
vertex 0.400000005960464 -0.899999976158142 0.0199999995529652
vertex 0.400000005960464 -0.899999976158142 0.00999999977648258
endloop
endfacet
facet normal 0 1 0
outer loop
vertex 0.150000005960464 -0.899999976158142 0.00999999977648258
vertex 0.400000005960464 -0.899999976158142 0.00999999977648258
vertex 0.400000005960464 -0.899999976158142 0
endloop
endfacet
facet normal 0 1 0
outer loop
vertex 0.400000005960464 -0.899999976158142 0
vertex 0.150000005960464 -0.899999976158142 0
vertex 0.150000005960464 -0.899999976158142 0.00999999977648258
endloop
endfacet
facet normal 0 1 0
outer loop
vertex 0.400000005960464 -0.899999976158142 0.00999999977648258
vertex 0.150000005960464 -0.899999976158142 0.00999999977648258
vertex 0.150000005960464 -0.899999976158142 0.0199999995529652
endloop
endfacet
facet normal 0 1 0
outer loop
vertex 0.150000005960464 -0.899999976158142 0.0599999986588955
vertex 0.400000005960464 -0.899999976158142 0.0599999986588955
vertex 0.400000005960464 -0.899999976158142 0.0500000007450581
endloop
endfacet
facet normal 0 1 0
outer loop
vertex 0.150000005960464 -0.899999976158142 0.0500000007450581
vertex 0.400000005960464 -0.899999976158142 0.0500000007450581
vertex 0.400000005960464 -0.899999976158142 0.0399999991059303
endloop
endfacet
facet normal 0 1 0
outer loop
vertex 0.400000005960464 -0.899999976158142 0.0399999991059303
vertex 0.150000005960464 -0.899999976158142 0.0399999991059303
vertex 0.150000005960464 -0.899999976158142 0.0500000007450581
endloop
endfacet
facet normal 0 1 0
outer loop
vertex 0.400000005960464 -0.899999976158142 0.0500000007450581
vertex 0.150000005960464 -0.899999976158142 0.0500000007450581
vertex 0.150000005960464 -0.899999976158142 0.0599999986588955
endloop
endfacet
facet normal 0 -1 0
outer loop
vertex 0.5 -1 0.0199999995529652
vertex 0.400000005960464 -1 0.0199999995529652
vertex 0.400000005960464 -1 0.00999999977648258
endloop
endfacet
facet normal 0 -1 0
outer loop
vertex 0.5 -1 0.00999999977648258
vertex 0.400000005960464 -1 0.00999999977648258
vertex 0.400000005960464 -1 0
endloop
endfacet
facet normal 0 -1 0
outer loop
vertex 0.400000005960464 -1 0
vertex 0.5 -1 0
vertex 0.5 -1 0.00999999977648258
endloop
endfacet
facet normal 0 -1 0
outer loop
vertex 0.400000005960464 -1 0.00999999977648258
vertex 0.5 -1 0.00999999977648258
vertex 0.5 -1 0.0199999995529652
endloop
endfacet
facet normal 0 0 -1
outer loop
vertex 0.5 1 0
vertex 0.400000005960464 0.899999976158142 0
vertex 0.400000005960464 0.949999988079071 0
endloop
endfacet
facet normal 0 0 -1
outer loop
vertex 0.5 0 0
vertex 0.400000005960464 -2.77555756156289e-16 0
vertex 0.400000005960464 0.899999976158142 0
endloop
endfacet
facet normal 0 0 -1
outer loop
vertex 0.400000005960464 0.899999976158142 0
vertex 0.5 1 0
vertex 0.5 0 0
endloop
endfacet
facet normal 0 0 -1
outer loop
vertex 0.5 0 0
vertex 0.5 -1 0
vertex 0.400000005960464 -0.899999976158142 0
endloop
endfacet
facet normal 0 0 -1
outer loop
vertex 0.5 -1 0
vertex 0.400000005960464 -0.949999988079071 0
vertex 0.400000005960464 -0.899999976158142 0
endloop
endfacet
facet normal 0 0 -1
outer loop
vertex 0.5 -1 0
vertex 0.400000005960464 -1 0
vertex 0.400000005960464 -0.949999988079071 0
endloop
endfacet
facet normal 0 0 -1
outer loop
vertex 0.400000005960464 -0.899999976158142 0
vertex 0.400000005960464 -2.77555756156289e-16 0
vertex 0.5 0 0
endloop
endfacet
facet normal 0 0 -1
outer loop
vertex 0.400000005960464 0.949999988079071 0
vertex 0.400000005960464 1 0
vertex 0.5 1 0
endloop
endfacet
facet normal 0 0 1
outer loop
vertex 0.5 -1 0.0199999995529652
vertex 0.400000005960464 -0.899999976158142 0.0199999995529652
vertex 0.400000005960464 -0.949999988079071 0.0199999995529652
endloop
endfacet
facet normal 0 0 1
outer loop
vertex 0.5 0 0.0199999995529652
vertex 0.400000005960464 0 0.0199999995529652
vertex 0.400000005960464 -0.899999976158142 0.0199999995529652
endloop
endfacet
facet normal 0 0 1
outer loop
vertex 0.400000005960464 -0.899999976158142 0.0199999995529652
vertex 0.5 -1 0.0199999995529652
vertex 0.5 0 0.0199999995529652
endloop
endfacet
facet normal 0 0 1
outer loop
vertex 0.5 0 0.0199999995529652
vertex 0.5 1 0.0199999995529652
vertex 0.400000005960464 0.899999976158142 0.0199999995529652
endloop
endfacet
facet normal 0 0 1
outer loop
vertex 0.5 1 0.0199999995529652
vertex 0.400000005960464 0.949999988079071 0.0199999995529652
vertex 0.400000005960464 0.899999976158142 0.0199999995529652
endloop
endfacet
facet normal 0 0 1
outer loop
vertex 0.5 1 0.0199999995529652
vertex 0.400000005960464 1 0.0199999995529652
vertex 0.400000005960464 0.949999988079071 0.0199999995529652
endloop
endfacet
facet normal 0 0 1
outer loop
vertex 0.400000005960464 0.899999976158142 0.0199999995529652
vertex 0.400000005960464 0 0.0199999995529652
vertex 0.5 0 0.0199999995529652
endloop
endfacet
facet normal 0 0 1
outer loop
vertex 0.400000005960464 -0.949999988079071 0.0199999995529652
vertex 0.400000005960464 -1 0.0199999995529652
vertex 0.5 -1 0.0199999995529652
endloop
endfacet
facet normal 0 -1 0
outer loop
vertex 0.5 -1 0.0599999986588955
vertex 0.400000005960464 -1 0.0599999986588955
vertex 0.400000005960464 -1 0.0500000007450581
endloop
endfacet
facet normal 0 -1 0
outer loop
vertex 0.5 -1 0.0500000007450581
vertex 0.400000005960464 -1 0.0500000007450581
vertex 0.400000005960464 -1 0.0399999991059303
endloop
endfacet
facet normal 0 -1 0
outer loop
vertex 0.400000005960464 -1 0.0399999991059303
vertex 0.5 -1 0.0399999991059303
vertex 0.5 -1 0.0500000007450581
endloop
endfacet
facet normal 0 -1 0
outer loop
vertex 0.400000005960464 -1 0.0500000007450581
vertex 0.5 -1 0.0500000007450581
vertex 0.5 -1 0.0599999986588955
endloop
endfacet
facet normal 0 0 -1
outer loop
vertex 0.5 1 0.0399999991059303
vertex 0.400000005960464 0.899999976158142 0.0399999991059303
vertex 0.400000005960464 0.949999988079071 0.0399999991059303
endloop
endfacet
facet normal 0 0 -1
outer loop
vertex 0.5 0 0.0399999991059303
vertex 0.400000005960464 -2.77555756156289e-16 0.0399999991059303
vertex 0.400000005960464 0.899999976158142 0.0399999991059303
endloop
endfacet
facet normal 0 0 -1
outer loop
vertex 0.400000005960464 0.899999976158142 0.0399999991059303
vertex 0.5 1 0.0399999991059303
vertex 0.5 0 0.0399999991059303
endloop
endfacet
facet normal 0 0 -1
outer loop
vertex 0.5 0 0.0399999991059303
vertex 0.5 -1 0.0399999991059303
vertex 0.400000005960464 -0.899999976158142 0.0399999991059303
endloop
endfacet
facet normal 0 0 -1
outer loop
vertex 0.5 -1 0.0399999991059303
vertex 0.400000005960464 -0.949999988079071 0.0399999991059303
vertex 0.400000005960464 -0.899999976158142 0.0399999991059303
endloop
endfacet
facet normal 0 0 -1
outer loop
vertex 0.5 -1 0.0399999991059303
vertex 0.400000005960464 -1 0.0399999991059303
vertex 0.400000005960464 -0.949999988079071 0.0399999991059303
endloop
endfacet
facet normal 0 0 -1
outer loop
vertex 0.400000005960464 -0.899999976158142 0.0399999991059303
vertex 0.400000005960464 -2.77555756156289e-16 0.0399999991059303
vertex 0.5 0 0.0399999991059303
endloop
endfacet
facet normal 0 0 -1
outer loop
vertex 0.400000005960464 0.949999988079071 0.0399999991059303
vertex 0.400000005960464 1 0.0399999991059303
vertex 0.5 1 0.0399999991059303
endloop
endfacet
facet normal 0 0 1
outer loop
vertex 0.5 -1 0.0599999986588955
vertex 0.400000005960464 -0.899999976158142 0.0599999986588955
vertex 0.400000005960464 -0.949999988079071 0.0599999986588955
endloop
endfacet
facet normal 0 0 1
outer loop
vertex 0.5 0 0.0599999986588955
vertex 0.400000005960464 0 0.0599999986588955
vertex 0.400000005960464 -0.899999976158142 0.0599999986588955
endloop
endfacet
facet normal 0 0 1
outer loop
vertex 0.400000005960464 -0.899999976158142 0.0599999986588955
vertex 0.5 -1 0.0599999986588955
vertex 0.5 0 0.0599999986588955
endloop
endfacet
facet normal 0 0 1
outer loop
vertex 0.5 0 0.0599999986588955
vertex 0.5 1 0.0599999986588955
vertex 0.400000005960464 0.899999976158142 0.0599999986588955
endloop
endfacet
facet normal 0 0 1
outer loop
vertex 0.5 1 0.0599999986588955
vertex 0.400000005960464 0.949999988079071 0.0599999986588955
vertex 0.400000005960464 0.899999976158142 0.0599999986588955
endloop
endfacet
facet normal 0 0 1
outer loop
vertex 0.5 1 0.0599999986588955
vertex 0.400000005960464 1 0.0599999986588955
vertex 0.400000005960464 0.949999988079071 0.0599999986588955
endloop
endfacet
facet normal 0 0 1
outer loop
vertex 0.400000005960464 0.899999976158142 0.0599999986588955
vertex 0.400000005960464 0 0.0599999986588955
vertex 0.5 0 0.0599999986588955
endloop
endfacet
facet normal 0 0 1
outer loop
vertex 0.400000005960464 -0.949999988079071 0.0599999986588955
vertex 0.400000005960464 -1 0.0599999986588955
vertex 0.5 -1 0.0599999986588955
endloop
endfacet
facet normal -1 0 0
outer loop
vertex 0.400000005960464 -0.899999976158142 0.00999999977648258
vertex 0.400000005960464 -0.899999976158142 0.0199999995529652
vertex 0.400000005960464 0 0.0199999995529652
endloop
endfacet
facet normal -1 0 0
outer loop
vertex 0.400000005960464 0 0.0199999995529652
vertex 0.400000005960464 0.899999976158142 0.00999999977648258
vertex 0.400000005960464 -0.899999976158142 0.00999999977648258
endloop
endfacet
facet normal -1 0 0
outer loop
vertex 0.400000005960464 0.899999976158142 0.00999999977648258
vertex 0.400000005960464 0.899999976158142 0
vertex 0.400000005960464 -2.77555756156289e-16 0
endloop
endfacet
facet normal -1 0 0
outer loop
vertex 0.400000005960464 -2.77555756156289e-16 0
vertex 0.400000005960464 -0.899999976158142 0.00999999977648258
vertex 0.400000005960464 0.899999976158142 0.00999999977648258
endloop
endfacet
facet normal -1 0 0
outer loop
vertex 0.400000005960464 -2.77555756156289e-16 0
vertex 0.400000005960464 -0.899999976158142 0
vertex 0.400000005960464 -0.899999976158142 0.00999999977648258
endloop
endfacet
facet normal -1 0 0
outer loop
vertex 0.400000005960464 0 0.0199999995529652
vertex 0.400000005960464 0.899999976158142 0.0199999995529652
vertex 0.400000005960464 0.899999976158142 0.00999999977648258
endloop
endfacet
facet normal -1 0 0
outer loop
vertex 0.400000005960464 -0.899999976158142 0.0500000007450581
vertex 0.400000005960464 -0.899999976158142 0.0599999986588955
vertex 0.400000005960464 0 0.0599999986588955
endloop
endfacet
facet normal -1 0 0
outer loop
vertex 0.400000005960464 0 0.0599999986588955
vertex 0.400000005960464 0.899999976158142 0.0500000007450581
vertex 0.400000005960464 -0.899999976158142 0.0500000007450581
endloop
endfacet
facet normal -1 0 0
outer loop
vertex 0.400000005960464 0.899999976158142 0.0500000007450581
vertex 0.400000005960464 0.899999976158142 0.0399999991059303
vertex 0.400000005960464 -2.77555756156289e-16 0.0399999991059303
endloop
endfacet
facet normal -1 0 0
outer loop
vertex 0.400000005960464 -2.77555756156289e-16 0.0399999991059303
vertex 0.400000005960464 -0.899999976158142 0.0500000007450581
vertex 0.400000005960464 0.899999976158142 0.0500000007450581
endloop
endfacet
facet normal -1 0 0
outer loop
vertex 0.400000005960464 -2.77555756156289e-16 0.0399999991059303
vertex 0.400000005960464 -0.899999976158142 0.0399999991059303
vertex 0.400000005960464 -0.899999976158142 0.0500000007450581
endloop
endfacet
facet normal -1 0 0
outer loop
vertex 0.400000005960464 0 0.0599999986588955
vertex 0.400000005960464 0.899999976158142 0.0599999986588955
vertex 0.400000005960464 0.899999976158142 0.0500000007450581
endloop
endfacet
facet normal 0 1 0
outer loop
vertex 0.400000005960464 1 0.0199999995529652
vertex 0.5 1 0.0199999995529652
vertex 0.5 1 0.00999999977648258
endloop
endfacet
facet normal 0 1 0
outer loop
vertex 0.400000005960464 1 0.00999999977648258
vertex 0.5 1 0.00999999977648258
vertex 0.5 1 0
endloop
endfacet
facet normal 0 1 0
outer loop
vertex 0.5 1 0
vertex 0.400000005960464 1 0
vertex 0.400000005960464 1 0.00999999977648258
endloop
endfacet
facet normal 0 1 0
outer loop
vertex 0.5 1 0.00999999977648258
vertex 0.400000005960464 1 0.00999999977648258
vertex 0.400000005960464 1 0.0199999995529652
endloop
endfacet
facet normal 0 1 0
outer loop
vertex 0.400000005960464 1 0.0599999986588955
vertex 0.5 1 0.0599999986588955
vertex 0.5 1 0.0500000007450581
endloop
endfacet
facet normal 0 1 0
outer loop
vertex 0.400000005960464 1 0.0500000007450581
vertex 0.5 1 0.0500000007450581
vertex 0.5 1 0.0399999991059303
endloop
endfacet
facet normal 0 1 0
outer loop
vertex 0.5 1 0.0399999991059303
vertex 0.400000005960464 1 0.0399999991059303
vertex 0.400000005960464 1 0.0500000007450581
endloop
endfacet
facet normal 0 1 0
outer loop
vertex 0.5 1 0.0500000007450581
vertex 0.400000005960464 1 0.0500000007450581
vertex 0.400000005960464 1 0.0599999986588955
endloop
endfacet
facet normal 1 0 0
outer loop
vertex 0.5 -1 0.00999999977648258
vertex 0.5 1 0.00999999977648258
vertex 0.5 0 0.0199999995529652
endloop
endfacet
facet normal 1 0 0
outer loop
vertex 0.5 1 0.00999999977648258
vertex 0.5 1 0.0199999995529652
vertex 0.5 0 0.0199999995529652
endloop
endfacet
facet normal 1 0 0
outer loop
vertex 0.5 1 0.00999999977648258
vertex 0.5 -1 0.00999999977648258
vertex 0.5 0 0
endloop
endfacet
facet normal 1 0 0
outer loop
vertex 0.5 -1 0.00999999977648258
vertex 0.5 -1 0
vertex 0.5 0 0
endloop
endfacet
facet normal 1 0 0
outer loop
vertex 0.5 0 0
vertex 0.5 1 0
vertex 0.5 1 0.00999999977648258
endloop
endfacet
facet normal 1 0 0
outer loop
vertex 0.5 0 0.0199999995529652
vertex 0.5 -1 0.0199999995529652
vertex 0.5 -1 0.00999999977648258
endloop
endfacet
facet normal 1 0 0
outer loop
vertex 0.5 -1 0.0500000007450581
vertex 0.5 1 0.0500000007450581
vertex 0.5 0 0.0599999986588955
endloop
endfacet
facet normal 1 0 0
outer loop
vertex 0.5 1 0.0500000007450581
vertex 0.5 1 0.0599999986588955
vertex 0.5 0 0.0599999986588955
endloop
endfacet
facet normal 1 0 0
outer loop
vertex 0.5 1 0.0500000007450581
vertex 0.5 -1 0.0500000007450581
vertex 0.5 0 0.0399999991059303
endloop
endfacet
facet normal 1 0 0
outer loop
vertex 0.5 -1 0.0500000007450581
vertex 0.5 -1 0.0399999991059303
vertex 0.5 0 0.0399999991059303
endloop
endfacet
facet normal 1 0 0
outer loop
vertex 0.5 0 0.0399999991059303
vertex 0.5 1 0.0399999991059303
vertex 0.5 1 0.0500000007450581
endloop
endfacet
facet normal 1 0 0
outer loop
vertex 0.5 0 0.0599999986588955
vertex 0.5 -1 0.0599999986588955
vertex 0.5 -1 0.0500000007450581
endloop
endfacet
endsolid COMSOL rendering object uni1
