solid COMSOL rendering object fin
facet normal 1 0 0
outer loop
vertex -0.150000005960464 -1.25 0.0500000007450581
vertex -0.150000005960464 -1.29999995231628 0.0500000007450581
vertex -0.150000005960464 -1.27499997615814 0.0399999991059303
endloop
endfacet
facet normal 1 0 0
outer loop
vertex -0.150000005960464 -1.29999995231628 0.0500000007450581
vertex -0.150000005960464 -1.29999995231628 0.0399999991059303
vertex -0.150000005960464 -1.27499997615814 0.0399999991059303
endloop
endfacet
facet normal 1 0 0
outer loop
vertex -0.150000005960464 -1.25 0.0500000007450581
vertex -0.150000005960464 -1.25 0.0599999986588955
vertex -0.150000005960464 -1.27499997615814 0.0599999986588955
endloop
endfacet
facet normal 1 0 0
outer loop
vertex -0.150000005960464 -1.27499997615814 0.0599999986588955
vertex -0.150000005960464 -1.29999995231628 0.0500000007450581
vertex -0.150000005960464 -1.25 0.0500000007450581
endloop
endfacet
facet normal 1 0 0
outer loop
vertex -0.150000005960464 -1.27499997615814 0.0599999986588955
vertex -0.150000005960464 -1.29999995231628 0.0599999986588955
vertex -0.150000005960464 -1.29999995231628 0.0500000007450581
endloop
endfacet
facet normal 1 0 0
outer loop
vertex -0.150000005960464 -1.27499997615814 0.0399999991059303
vertex -0.150000005960464 -1.25 0.0399999991059303
vertex -0.150000005960464 -1.25 0.0500000007450581
endloop
endfacet
facet normal 0 -1 0
outer loop
vertex -0.0500000007450581 -1.29999995231628 0.0599999986588955
vertex -0.150000005960464 -1.29999995231628 0.0599999986588955
vertex -0.150000005960464 -1.29999995231628 0.0500000007450581
endloop
endfacet
facet normal 0 -1 0
outer loop
vertex -0.0500000007450581 -1.29999995231628 0.0500000007450581
vertex -0.150000005960464 -1.29999995231628 0.0500000007450581
vertex -0.150000005960464 -1.29999995231628 0.0399999991059303
endloop
endfacet
facet normal 0 -1 0
outer loop
vertex -0.150000005960464 -1.29999995231628 0.0399999991059303
vertex -0.0500000007450581 -1.29999995231628 0.0399999991059303
vertex -0.0500000007450581 -1.29999995231628 0.0500000007450581
endloop
endfacet
facet normal 0 -1 0
outer loop
vertex -0.150000005960464 -1.29999995231628 0.0500000007450581
vertex -0.0500000007450581 -1.29999995231628 0.0500000007450581
vertex -0.0500000007450581 -1.29999995231628 0.0599999986588955
endloop
endfacet
facet normal 0 0 1
outer loop
vertex -0.0500000007450581 -1.29999995231628 0.0399999991059303
vertex -0.0500000007450581 -1.27499997615814 0.0399999991059303
vertex -0.150000005960464 -1.27499997615814 0.0399999991059303
endloop
endfacet
facet normal 0 0 1
outer loop
vertex -0.0500000007450581 -1.27499997615814 0.0399999991059303
vertex -0.0500000007450581 -1.25 0.0399999991059303
vertex -0.150000005960464 -1.25 0.0399999991059303
endloop
endfacet
facet normal 0 0 1
outer loop
vertex -0.150000005960464 -1.25 0.0399999991059303
vertex -0.150000005960464 -1.27499997615814 0.0399999991059303
vertex -0.0500000007450581 -1.27499997615814 0.0399999991059303
endloop
endfacet
facet normal 0 0 1
outer loop
vertex -0.150000005960464 -1.27499997615814 0.0399999991059303
vertex -0.150000005960464 -1.29999995231628 0.0399999991059303
vertex -0.0500000007450581 -1.29999995231628 0.0399999991059303
endloop
endfacet
facet normal 0 0 1
outer loop
vertex -0.150000005960464 -1.29999995231628 0.0599999986588955
vertex -0.0500000007450581 -1.29999995231628 0.0599999986588955
vertex -0.0500000007450581 -1.27499997615814 0.0599999986588955
endloop
endfacet
facet normal 0 0 1
outer loop
vertex -0.150000005960464 -1.25 0.0599999986588955
vertex -0.150000005960464 -1.27499997615814 0.0599999986588955
vertex -0.0500000007450581 -1.27499997615814 0.0599999986588955
endloop
endfacet
facet normal 0 0 1
outer loop
vertex -0.0500000007450581 -1.27499997615814 0.0599999986588955
vertex -0.0500000007450581 -1.25 0.0599999986588955
vertex -0.150000005960464 -1.25 0.0599999986588955
endloop
endfacet
facet normal 0 0 1
outer loop
vertex -0.0500000007450581 -1.27499997615814 0.0599999986588955
vertex -0.150000005960464 -1.27499997615814 0.0599999986588955
vertex -0.150000005960464 -1.29999995231628 0.0599999986588955
endloop
endfacet
facet normal 0 -1 0
outer loop
vertex -0.150000005960464 -1.25 0.0399999991059303
vertex -0.0500000007450581 -1.25 0.0399999991059303
vertex -0.0500000007450581 -1.25 0.0500000007450581
endloop
endfacet
facet normal 0 -1 0
outer loop
vertex -0.150000005960464 -1.25 0.0500000007450581
vertex -0.0500000007450581 -1.25 0.0500000007450581
vertex -0.0500000007450581 -1.25 0.0599999986588955
endloop
endfacet
facet normal 0 -1 0
outer loop
vertex -0.0500000007450581 -1.25 0.0599999986588955
vertex -0.150000005960464 -1.25 0.0599999986588955
vertex -0.150000005960464 -1.25 0.0500000007450581
endloop
endfacet
facet normal 0 -1 0
outer loop
vertex -0.0500000007450581 -1.25 0.0500000007450581
vertex -0.150000005960464 -1.25 0.0500000007450581
vertex -0.150000005960464 -1.25 0.0399999991059303
endloop
endfacet
facet normal -1 0 0
outer loop
vertex -0.0500000007450581 -1.29999995231628 0.0500000007450581
vertex -0.0500000007450581 -1.25 0.0500000007450581
vertex -0.0500000007450581 -1.27499997615814 0.0399999991059303
endloop
endfacet
facet normal -1 0 0
outer loop
vertex -0.0500000007450581 -1.25 0.0500000007450581
vertex -0.0500000007450581 -1.25 0.0399999991059303
vertex -0.0500000007450581 -1.27499997615814 0.0399999991059303
endloop
endfacet
facet normal -1 0 0
outer loop
vertex -0.0500000007450581 -1.29999995231628 0.0500000007450581
vertex -0.0500000007450581 -1.29999995231628 0.0599999986588955
vertex -0.0500000007450581 -1.27499997615814 0.0599999986588955
endloop
endfacet
facet normal -1 0 0
outer loop
vertex -0.0500000007450581 -1.27499997615814 0.0599999986588955
vertex -0.0500000007450581 -1.25 0.0500000007450581
vertex -0.0500000007450581 -1.29999995231628 0.0500000007450581
endloop
endfacet
facet normal -1 0 0
outer loop
vertex -0.0500000007450581 -1.27499997615814 0.0599999986588955
vertex -0.0500000007450581 -1.25 0.0599999986588955
vertex -0.0500000007450581 -1.25 0.0500000007450581
endloop
endfacet
facet normal -1 0 0
outer loop
vertex -0.0500000007450581 -1.27499997615814 0.0399999991059303
vertex -0.0500000007450581 -1.29999995231628 0.0399999991059303
vertex -0.0500000007450581 -1.29999995231628 0.0500000007450581
endloop
endfacet
endsolid COMSOL rendering object fin
