solid COMSOL rendering object fin
facet normal 1 0 0
outer loop
vertex 0.0500000007450581 -1.25 0.00999999977648258
vertex 0.0500000007450581 -1.29999995231628 0.00999999977648258
vertex 0.0500000007450581 -1.27499997615814 0
endloop
endfacet
facet normal 1 0 0
outer loop
vertex 0.0500000007450581 -1.29999995231628 0.00999999977648258
vertex 0.0500000007450581 -1.29999995231628 0
vertex 0.0500000007450581 -1.27499997615814 0
endloop
endfacet
facet normal 1 0 0
outer loop
vertex 0.0500000007450581 -1.25 0.00999999977648258
vertex 0.0500000007450581 -1.25 0.0199999995529652
vertex 0.0500000007450581 -1.27499997615814 0.0199999995529652
endloop
endfacet
facet normal 1 0 0
outer loop
vertex 0.0500000007450581 -1.27499997615814 0.0199999995529652
vertex 0.0500000007450581 -1.29999995231628 0.00999999977648258
vertex 0.0500000007450581 -1.25 0.00999999977648258
endloop
endfacet
facet normal 1 0 0
outer loop
vertex 0.0500000007450581 -1.27499997615814 0.0199999995529652
vertex 0.0500000007450581 -1.29999995231628 0.0199999995529652
vertex 0.0500000007450581 -1.29999995231628 0.00999999977648258
endloop
endfacet
facet normal 1 0 0
outer loop
vertex 0.0500000007450581 -1.27499997615814 0
vertex 0.0500000007450581 -1.25 0
vertex 0.0500000007450581 -1.25 0.00999999977648258
endloop
endfacet
facet normal 0 -1 0
outer loop
vertex 0.150000005960464 -1.29999995231628 0.0199999995529652
vertex 0.0500000007450581 -1.29999995231628 0.0199999995529652
vertex 0.0500000007450581 -1.29999995231628 0.00999999977648258
endloop
endfacet
facet normal 0 -1 0
outer loop
vertex 0.150000005960464 -1.29999995231628 0.00999999977648258
vertex 0.0500000007450581 -1.29999995231628 0.00999999977648258
vertex 0.0500000007450581 -1.29999995231628 0
endloop
endfacet
facet normal 0 -1 0
outer loop
vertex 0.0500000007450581 -1.29999995231628 0
vertex 0.150000005960464 -1.29999995231628 0
vertex 0.150000005960464 -1.29999995231628 0.00999999977648258
endloop
endfacet
facet normal 0 -1 0
outer loop
vertex 0.0500000007450581 -1.29999995231628 0.00999999977648258
vertex 0.150000005960464 -1.29999995231628 0.00999999977648258
vertex 0.150000005960464 -1.29999995231628 0.0199999995529652
endloop
endfacet
facet normal 0 0 -1
outer loop
vertex 0.0500000007450581 -1.25 0
vertex 0.150000005960464 -1.25 0
vertex 0.150000005960464 -1.27499997615814 0
endloop
endfacet
facet normal 0 0 -1
outer loop
vertex 0.0500000007450581 -1.27499997615814 0
vertex 0.150000005960464 -1.27499997615814 0
vertex 0.150000005960464 -1.29999995231628 0
endloop
endfacet
facet normal 0 0 -1
outer loop
vertex 0.150000005960464 -1.29999995231628 0
vertex 0.0500000007450581 -1.29999995231628 0
vertex 0.0500000007450581 -1.27499997615814 0
endloop
endfacet
facet normal 0 0 -1
outer loop
vertex 0.150000005960464 -1.27499997615814 0
vertex 0.0500000007450581 -1.27499997615814 0
vertex 0.0500000007450581 -1.25 0
endloop
endfacet
facet normal 0 0 1
outer loop
vertex 0.150000005960464 -1.29999995231628 0.0199999995529652
vertex 0.150000005960464 -1.27499997615814 0.0199999995529652
vertex 0.0500000007450581 -1.27499997615814 0.0199999995529652
endloop
endfacet
facet normal 0 0 1
outer loop
vertex 0.150000005960464 -1.27499997615814 0.0199999995529652
vertex 0.150000005960464 -1.25 0.0199999995529652
vertex 0.0500000007450581 -1.25 0.0199999995529652
endloop
endfacet
facet normal 0 0 1
outer loop
vertex 0.0500000007450581 -1.25 0.0199999995529652
vertex 0.0500000007450581 -1.27499997615814 0.0199999995529652
vertex 0.150000005960464 -1.27499997615814 0.0199999995529652
endloop
endfacet
facet normal 0 0 1
outer loop
vertex 0.0500000007450581 -1.27499997615814 0.0199999995529652
vertex 0.0500000007450581 -1.29999995231628 0.0199999995529652
vertex 0.150000005960464 -1.29999995231628 0.0199999995529652
endloop
endfacet
facet normal 0 -1 0
outer loop
vertex 0.0500000007450581 -1.25 0
vertex 0.150000005960464 -1.25 0
vertex 0.150000005960464 -1.25 0.00999999977648258
endloop
endfacet
facet normal 0 -1 0
outer loop
vertex 0.0500000007450581 -1.25 0.00999999977648258
vertex 0.150000005960464 -1.25 0.00999999977648258
vertex 0.150000005960464 -1.25 0.0199999995529652
endloop
endfacet
facet normal 0 -1 0
outer loop
vertex 0.150000005960464 -1.25 0.0199999995529652
vertex 0.0500000007450581 -1.25 0.0199999995529652
vertex 0.0500000007450581 -1.25 0.00999999977648258
endloop
endfacet
facet normal 0 -1 0
outer loop
vertex 0.150000005960464 -1.25 0.00999999977648258
vertex 0.0500000007450581 -1.25 0.00999999977648258
vertex 0.0500000007450581 -1.25 0
endloop
endfacet
facet normal -1 0 0
outer loop
vertex 0.150000005960464 -1.29999995231628 0.00999999977648258
vertex 0.150000005960464 -1.25 0.00999999977648258
vertex 0.150000005960464 -1.27499997615814 0
endloop
endfacet
facet normal -1 0 0
outer loop
vertex 0.150000005960464 -1.25 0.00999999977648258
vertex 0.150000005960464 -1.25 0
vertex 0.150000005960464 -1.27499997615814 0
endloop
endfacet
facet normal -1 0 0
outer loop
vertex 0.150000005960464 -1.29999995231628 0.00999999977648258
vertex 0.150000005960464 -1.29999995231628 0.0199999995529652
vertex 0.150000005960464 -1.27499997615814 0.0199999995529652
endloop
endfacet
facet normal -1 0 0
outer loop
vertex 0.150000005960464 -1.27499997615814 0.0199999995529652
vertex 0.150000005960464 -1.25 0.00999999977648258
vertex 0.150000005960464 -1.29999995231628 0.00999999977648258
endloop
endfacet
facet normal -1 0 0
outer loop
vertex 0.150000005960464 -1.27499997615814 0.0199999995529652
vertex 0.150000005960464 -1.25 0.0199999995529652
vertex 0.150000005960464 -1.25 0.00999999977648258
endloop
endfacet
facet normal -1 0 0
outer loop
vertex 0.150000005960464 -1.27499997615814 0
vertex 0.150000005960464 -1.29999995231628 0
vertex 0.150000005960464 -1.29999995231628 0.00999999977648258
endloop
endfacet
endsolid COMSOL rendering object fin
